P2
121 46
182
32 32 30 27 26 28 27 24 32 32 33 33 33 33 33 34 30 34 32 44 69 83 82 81 82 85 87 86 85 80 62 39 27 33 45 60 69 62 56 63 59 52 52 61 69 75 77 77 80 80 79 74 68 63 58 51 50 48 41 35 34 33 31 31 31 31 30 30 30 29 29 32 37 38 38 43 47 48 48 48 48 41 36 36 37 31 28 32 30 28 28 31 33 31 30 32 33 32 28 29 33 30 27 30 28 30 30 29 25 24 27 30 29 28 25 25 26 26 25 26 27 
32 33 32 31 30 29 27 23 32 32 34 34 34 34 34 34 31 31 28 40 70 88 87 84 83 82 84 87 88 83 68 51 51 60 64 64 61 45 30 31 52 54 60 70 75 73 71 76 82 78 79 78 79 78 69 59 65 73 77 73 67 61 54 50 44 35 29 27 26 26 29 35 28 28 25 24 27 29 30 31 33 37 38 43 49 44 37 41 45 40 34 30 29 29 28 26 27 31 30 28 29 28 28 32 31 32 32 32 29 28 29 29 28 28 26 25 26 26 27 26 28 
35 34 31 28 28 29 28 26 32 32 33 33 33 34 34 34 34 32 27 36 65 85 85 79 78 79 82 83 86 86 70 48 30 34 40 54 62 48 41 59 51 59 71 79 82 82 78 71 44 39 49 55 62 70 63 58 53 67 77 78 78 81 81 79 80 79 73 64 59 58 51 43 32 35 34 31 33 32 28 27 28 29 40 40 25 25 37 39 35 38 39 40 43 43 37 29 21 25 26 25 29 32 31 29 25 26 27 30 31 31 30 28 32 33 31 28 26 28 27 25 28 
38 36 32 29 27 28 29 30 30 30 31 31 31 32 32 32 34 33 30 36 59 82 87 82 81 79 80 79 80 81 75 64 55 59 50 46 59 61 51 47 49 55 69 73 66 70 76 69 54 39 44 48 57 66 54 44 44 59 72 71 69 74 80 80 83 79 78 80 83 81 80 82 81 81 77 74 78 77 65 55 45 48 51 47 38 33 32 30 34 33 31 30 33 37 39 38 49 53 54 48 38 32 28 27 28 27 27 26 27 28 28 28 25 29 32 31 31 32 29 25 31 
35 34 33 31 29 28 27 27 29 29 30 30 31 31 32 32 35 34 30 33 53 78 88 82 83 84 83 81 82 85 75 60 40 34 30 44 61 52 35 36 40 51 70 71 47 37 52 63 50 38 47 49 51 56 48 41 41 58 65 51 32 32 45 52 67 76 78 75 77 82 82 81 86 88 88 85 85 86 85 82 74 68 57 48 45 40 33 29 31 29 27 27 26 26 30 35 33 29 29 33 35 36 36 34 36 34 31 28 25 25 26 27 29 31 32 31 32 35 35 33 30 
37 35 34 33 30 28 28 29 30 30 31 31 32 33 33 33 35 33 28 29 48 76 87 77 75 75 76 77 79 82 81 77 70 66 59 61 70 67 59 60 77 77 80 84 83 80 79 81 77 56 49 47 48 56 52 44 49 53 59 58 54 56 56 47 71 76 75 71 63 44 34 43 53 59 73 80 77 78 81 80 81 66 53 40 31 41 61 70 77 73 69 63 53 44 41 44 33 29 28 30 27 27 33 36 30 31 33 34 33 31 30 29 27 26 26 26 27 28 30 31 27 
41 39 37 36 33 30 31 34 30 30 31 31 32 33 33 34 34 33 32 31 46 76 90 79 61 31 16 24 34 36 40 48 63 66 68 71 75 78 79 77 80 85 83 79 80 83 82 81 71 53 49 50 48 53 54 46 43 47 55 57 52 53 54 48 59 79 84 79 70 47 29 38 39 46 62 61 39 38 61 76 64 64 65 63 61 61 68 77 85 86 88 87 84 80 77 77 74 65 58 51 41 36 33 28 31 31 32 33 33 32 30 27 21 21 24 29 31 28 26 28 29 
35 34 35 35 32 27 26 27 29 29 30 30 31 32 32 33 34 36 37 32 39 68 84 75 41 35 31 29 26 26 29 30 27 41 62 67 52 39 45 55 61 73 86 89 87 86 86 83 70 47 32 32 32 39 45 35 32 34 45 52 51 54 56 50 59 77 79 75 70 47 38 62 63 49 50 49 32 35 54 61 58 50 59 64 52 52 63 65 73 76 79 79 81 85 86 84 84 83 86 82 76 77 80 77 65 57 46 37 34 34 34 33 31 25 23 26 27 25 26 32 30 
39 37 35 34 33 31 29 30 29 30 31 32 32 32 33 33 34 30 27 30 36 60 85 83 58 31 28 43 41 34 34 32 30 34 51 69 52 21 19 29 25 30 36 36 43 58 70 81 76 81 81 78 80 80 75 70 73 67 59 53 48 47 47 47 57 71 75 76 75 51 26 26 31 34 44 41 36 39 47 58 56 43 59 68 52 47 52 52 64 84 81 61 51 59 74 76 76 80 81 82 85 84 79 77 79 78 78 79 74 64 47 28 22 24 25 24 24 26 27 28 26 
35 35 37 38 37 33 29 27 27 28 30 32 32 32 33 33 34 33 31 30 34 58 84 84 56 32 38 71 86 80 71 65 50 34 39 64 58 33 29 36 37 24 30 35 29 33 52 74 78 77 75 77 80 79 81 85 86 89 88 86 77 60 50 54 66 76 78 77 74 58 43 41 51 53 53 40 34 37 44 54 57 45 49 52 49 51 51 49 63 84 80 55 37 39 47 39 56 73 81 79 81 83 80 79 78 77 78 81 79 70 52 31 25 27 28 26 26 28 26 23 25 
31 31 31 33 33 30 27 27 27 27 28 30 31 33 34 34 32 35 35 30 31 54 81 86 64 33 27 59 85 86 76 70 61 44 40 58 55 33 34 51 63 57 48 41 41 33 41 76 87 86 83 81 79 63 33 11 34 48 50 48 57 66 70 72 75 73 73 79 79 69 64 68 75 76 63 36 28 34 39 46 51 48 54 56 51 46 44 47 62 81 80 58 39 47 55 43 51 75 86 81 82 83 79 79 77 78 80 79 74 66 51 35 30 31 28 23 23 28 28 24 29 
25 24 24 26 27 25 25 26 26 26 27 28 30 32 34 35 31 35 36 32 31 48 75 88 68 39 22 40 69 81 79 77 73 76 75 75 61 31 33 66 78 75 75 75 60 28 28 70 94 85 78 79 79 63 38 23 26 27 27 25 25 25 26 25 46 67 78 71 66 74 82 84 87 86 80 71 69 69 60 49 53 45 47 45 41 46 49 50 63 76 77 61 46 53 62 51 53 73 83 80 81 80 77 78 77 75 75 77 78 71 49 24 23 29 29 23 23 29 29 23 22 
21 21 23 25 25 23 20 20 25 25 26 28 29 31 33 33 33 34 35 33 33 43 64 86 81 59 31 17 21 27 28 27 35 55 70 75 62 30 25 59 77 83 84 81 67 27 14 52 90 85 82 85 85 69 44 27 33 29 26 25 25 25 26 27 40 67 72 43 13 11 28 46 46 52 69 82 81 78 78 75 68 64 61 50 47 56 52 40 32 41 49 49 43 49 59 53 51 70 79 76 77 78 77 79 78 78 78 77 74 68 53 33 21 28 30 25 23 29 30 27 31 
27 26 26 27 26 23 21 21 23 25 27 30 31 31 31 30 34 32 32 32 32 36 52 78 78 71 54 34 26 25 25 25 27 31 45 60 62 39 26 46 86 99 92 83 80 47 21 45 84 84 79 75 79 74 54 33 34 57 64 55 51 51 43 33 47 73 72 36 13 20 30 28 21 20 24 31 36 54 72 69 73 79 83 78 78 81 75 71 55 54 54 55 46 40 44 39 49 68 79 74 73 78 80 78 81 79 78 79 80 74 53 27 21 27 27 21 18 22 26 26 25 
32 31 30 30 29 28 26 27 25 26 28 30 32 32 31 30 33 31 32 32 33 36 50 74 83 80 78 76 72 63 52 45 38 29 33 51 66 51 24 22 29 29 43 55 51 34 30 48 86 82 78 80 83 72 48 29 48 80 100 95 88 82 75 73 80 78 65 43 27 30 31 23 14 24 29 28 30 48 66 59 30 25 31 39 48 55 59 68 75 73 71 74 72 64 63 63 61 71 79 76 73 79 84 80 79 81 82 79 74 68 52 31 24 29 31 28 26 26 27 26 28 
29 30 33 36 37 34 30 29 28 28 28 28 29 31 32 33 33 32 33 33 37 44 54 76 84 67 60 69 80 81 78 74 71 56 41 44 64 58 29 23 32 28 30 31 31 30 35 52 63 52 36 35 55 66 48 22 28 41 53 57 64 78 86 85 87 80 73 57 39 45 56 53 54 55 46 34 27 37 59 65 35 23 28 32 27 26 28 28 28 34 44 62 75 76 79 81 89 84 84 83 79 81 84 80 74 79 82 81 76 71 55 34 26 27 27 25 24 25 27 28 27 
26 26 26 27 30 32 32 31 34 34 34 34 36 35 33 32 30 32 34 36 39 43 56 72 80 65 31 16 48 98 112 96 90 67 30 15 46 59 34 28 46 47 36 35 35 28 36 55 75 55 27 24 45 61 57 38 27 27 28 24 25 29 31 40 63 78 82 78 74 73 77 85 79 77 70 49 27 32 55 67 43 15 18 28 29 29 25 28 30 29 35 52 75 78 59 50 48 51 65 66 67 76 77 75 81 82 76 76 77 71 51 19 21 23 22 20 19 20 23 23 23 
26 28 27 26 24 24 27 30 28 28 29 31 32 34 34 34 30 33 35 36 38 44 59 76 79 72 47 24 23 36 52 65 71 58 29 13 41 59 34 20 51 80 86 75 67 60 65 76 76 65 39 19 25 52 58 35 22 29 33 28 27 31 32 33 39 75 89 81 80 81 85 96 108 89 79 71 47 28 41 68 64 32 40 63 68 60 47 45 39 33 37 55 73 65 37 25 27 29 23 18 26 28 32 52 74 84 81 75 77 73 55 34 27 30 29 27 25 26 30 31 29 
27 25 26 28 27 25 25 26 26 26 26 27 27 28 29 30 30 34 36 36 34 37 52 68 85 81 64 30 10 21 32 17 16 19 22 28 52 59 35 23 59 88 89 79 81 83 84 87 87 85 83 84 81 81 76 61 40 47 56 63 58 45 35 28 35 59 78 81 80 82 73 57 45 61 93 87 36 16 40 60 47 20 38 71 81 80 75 76 73 66 64 71 74 57 28 19 28 29 27 29 28 25 28 30 43 72 84 76 76 72 50 32 22 30 36 32 23 20 22 25 26 
38 33 29 30 29 26 25 27 22 22 22 25 29 33 35 36 32 34 34 33 32 36 50 64 84 85 82 76 67 59 53 49 36 37 36 37 55 67 46 22 50 81 86 81 85 85 84 87 85 87 84 86 88 87 88 86 85 87 84 84 81 78 68 45 31 44 74 86 79 82 73 46 10 9 15 24 22 22 40 63 46 22 39 75 94 104 105 101 93 89 85 81 77 58 31 24 29 45 43 40 37 28 27 21 34 59 80 76 72 74 56 32 23 25 26 24 21 22 25 26 26 
31 32 36 38 35 30 27 28 27 25 23 24 27 29 29 29 30 32 31 30 28 28 34 41 50 59 64 70 79 82 79 79 82 79 73 67 71 72 48 20 37 84 97 84 82 86 85 80 85 88 84 81 82 83 80 72 78 84 86 85 82 84 81 59 25 33 68 84 77 77 72 57 27 27 27 28 26 30 48 68 48 25 26 33 26 31 50 63 64 71 81 83 75 50 21 16 51 76 75 70 69 63 55 37 29 43 79 89 74 71 59 32 26 28 29 26 23 23 25 26 22 
27 28 30 31 32 34 34 35 38 36 33 32 31 30 28 27 26 27 26 25 25 25 28 32 39 37 36 36 36 44 56 63 60 67 77 82 84 83 77 70 71 84 86 89 91 84 83 88 88 87 87 89 83 76 65 47 24 37 65 87 88 87 84 68 26 17 56 88 83 78 78 79 68 58 53 40 25 34 58 70 54 25 16 24 24 20 22 22 21 30 53 77 85 61 24 15 38 78 86 76 75 77 69 43 15 19 60 88 78 72 63 37 14 24 32 31 25 23 25 28 23 
24 25 27 27 30 35 34 30 27 29 30 31 31 32 34 36 32 32 27 21 21 22 25 30 33 39 38 41 54 55 46 43 38 43 40 37 44 58 68 69 73 81 80 80 85 88 90 85 85 88 88 85 81 81 76 56 21 16 26 37 39 52 55 41 17 18 57 70 35 20 52 97 85 78 75 75 58 26 31 72 77 47 26 31 44 48 47 41 34 23 29 59 86 74 34 14 47 96 105 92 94 89 77 68 52 43 52 70 74 73 64 40 18 21 23 21 18 18 18 18 23 
21 26 27 23 24 31 35 34 24 28 31 31 27 26 29 32 32 37 38 37 36 33 31 32 27 23 26 28 25 31 43 46 49 46 40 44 49 49 45 41 38 45 51 63 71 75 83 84 79 86 85 86 86 85 81 71 35 14 18 29 21 18 18 17 24 33 55 57 40 26 33 67 102 103 99 88 61 22 17 49 81 74 68 71 76 76 74 69 49 30 21 38 67 69 44 30 23 31 32 40 52 61 71 76 76 78 72 71 75 74 65 46 26 29 31 30 28 28 27 26 26 
27 28 28 29 31 33 37 40 31 35 36 38 41 43 38 32 28 29 30 29 27 27 30 34 37 36 34 32 31 29 28 27 30 31 30 29 33 38 41 41 44 44 41 35 31 32 39 48 56 68 79 81 80 82 85 86 77 57 41 38 33 29 29 29 33 37 51 60 47 26 21 30 47 61 72 71 49 15 15 49 87 101 100 90 85 86 90 89 79 55 25 25 58 76 52 21 24 28 22 19 26 27 23 26 38 53 75 81 72 70 65 49 28 23 28 28 23 24 25 24 26 
38 37 35 33 33 32 32 33 34 34 33 33 35 39 44 44 45 38 30 25 24 24 24 23 25 26 28 30 31 31 30 29 32 31 27 23 23 25 27 26 27 29 33 38 41 43 44 44 39 36 39 46 48 50 62 77 86 79 75 77 77 74 69 65 53 56 70 80 65 34 16 14 21 23 16 12 18 19 26 43 68 53 43 68 98 99 87 81 80 60 30 24 49 63 46 23 24 31 30 25 26 24 23 25 27 31 50 67 70 68 61 53 29 19 25 30 25 21 21 25 23 
57 52 45 38 35 34 34 35 30 30 31 32 32 31 32 34 41 40 37 33 29 27 27 27 24 24 25 25 25 26 26 27 31 32 34 33 32 31 28 25 19 20 22 23 24 26 29 31 33 41 47 46 46 50 52 51 51 59 63 63 65 68 71 74 74 78 79 78 77 73 57 39 30 31 26 24 28 25 32 51 62 44 17 24 54 70 75 80 85 68 30 13 40 72 56 20 31 55 68 65 60 54 44 38 28 26 43 65 72 71 66 56 30 17 23 30 25 20 20 25 27 
63 62 61 59 56 51 45 39 34 31 30 31 30 26 25 27 27 31 33 31 27 27 32 37 33 32 31 28 26 24 23 22 26 26 26 27 29 33 35 37 38 32 26 25 26 26 23 18 23 25 27 29 32 36 39 40 44 53 53 50 51 50 49 51 65 67 72 79 84 84 82 80 78 72 59 52 53 50 52 64 74 54 25 18 25 25 25 27 31 31 24 20 43 70 61 29 19 62 89 85 76 70 67 68 51 19 27 65 80 76 71 62 34 21 24 30 27 23 22 25 24 
51 54 60 66 67 64 60 55 56 48 38 35 32 30 30 33 28 28 28 28 27 28 31 33 39 40 41 40 37 33 28 25 26 25 23 22 21 22 23 24 28 29 31 31 30 30 32 34 29 22 19 20 21 21 23 28 23 28 31 33 39 44 49 57 65 49 39 43 47 48 54 65 74 75 75 78 80 75 76 86 77 73 55 33 20 19 26 24 25 24 21 22 43 73 68 35 24 51 79 92 93 93 87 79 53 24 24 52 67 71 69 59 37 19 19 25 24 21 18 20 23 
41 43 44 48 53 58 63 66 69 63 57 54 52 49 45 44 39 36 33 32 31 30 29 26 27 29 34 38 41 44 44 44 36 34 32 30 27 25 25 25 26 23 19 19 22 25 26 26 31 33 33 30 29 28 21 15 17 19 23 27 28 25 27 33 33 39 46 47 45 45 48 52 53 47 41 48 61 66 73 84 83 80 78 78 67 53 48 39 29 28 27 28 47 80 83 56 22 11 19 34 37 50 66 67 43 16 14 47 76 76 68 67 48 22 18 26 27 22 19 21 26 
43 41 40 39 41 45 50 53 57 59 62 63 65 64 60 55 51 48 41 37 35 34 33 33 30 30 30 30 33 35 35 37 40 40 44 45 41 33 26 22 26 26 26 25 22 21 23 24 21 21 22 25 29 31 31 31 36 29 25 27 25 22 21 20 22 21 22 26 29 30 32 36 41 46 44 40 45 48 45 37 41 50 57 64 68 74 82 79 80 71 64 66 74 82 78 65 43 18 13 23 24 26 28 21 25 21 26 49 71 75 71 69 54 26 17 23 26 24 19 18 23 
39 39 38 36 34 34 36 39 41 46 49 50 52 57 58 56 58 55 52 51 50 48 43 38 32 31 30 29 28 28 26 26 29 30 33 38 40 39 37 38 37 33 29 26 25 24 22 21 23 22 20 21 23 24 24 24 26 24 28 33 30 27 25 22 25 22 22 25 26 22 21 25 25 25 24 27 33 37 37 36 40 38 36 43 43 36 44 53 60 67 72 76 84 88 87 86 78 64 51 44 38 33 31 32 22 18 24 46 63 69 70 69 55 29 18 19 22 26 21 14 20 
38 40 40 40 39 37 36 36 38 41 38 35 41 46 43 41 46 48 51 53 52 50 48 46 39 39 37 34 31 28 28 28 28 27 24 23 25 29 33 36 36 36 38 39 40 36 30 27 22 26 23 25 35 32 22 22 22 24 25 26 25 26 27 29 30 31 31 29 26 23 21 21 21 21 23 23 22 23 28 33 25 28 33 39 44 46 46 46 39 37 36 39 44 49 56 62 72 73 75 77 77 75 73 70 61 59 59 66 75 79 76 72 65 38 22 28 34 27 19 21 23 
41 37 39 41 37 38 40 38 38 37 34 34 36 34 31 35 36 40 46 48 47 47 50 52 49 49 48 46 41 38 37 36 34 32 28 24 23 22 22 23 25 26 30 33 35 36 35 35 37 35 27 23 27 26 22 23 20 22 24 24 23 23 24 24 26 27 28 30 31 32 31 31 28 21 17 18 22 22 20 17 21 23 25 26 27 29 33 36 37 38 41 46 47 44 40 39 37 39 41 44 46 50 58 62 65 68 72 74 74 75 76 79 65 41 24 25 27 23 19 23 26 
30 33 30 30 37 36 32 38 32 36 35 32 35 39 36 32 30 32 33 33 32 33 36 39 47 47 46 44 43 44 45 46 39 39 38 37 34 32 30 29 18 22 25 25 23 24 28 32 35 34 34 33 33 31 25 23 26 26 25 23 20 20 21 22 23 23 23 25 26 27 25 23 28 30 31 29 21 17 18 23 21 21 22 21 20 20 21 21 21 21 24 28 31 33 35 38 41 41 41 43 43 38 32 26 28 29 32 38 46 52 55 55 52 37 27 27 27 23 21 23 23 
41 27 24 30 32 35 36 30 32 33 34 35 35 33 31 33 34 32 30 30 31 32 33 33 34 36 39 43 44 45 45 46 43 44 46 47 45 43 39 37 37 33 28 27 30 30 27 24 29 28 32 35 33 34 33 30 29 29 28 28 24 23 23 24 25 23 23 23 24 24 23 22 24 22 23 27 29 29 28 28 32 30 27 27 28 27 23 19 21 19 18 19 21 22 25 29 25 27 29 31 33 35 38 40 46 46 46 41 36 32 32 32 34 31 29 29 27 24 22 22 23 
161 123 59 12 5 13 21 30 32 29 29 31 32 32 33 34 32 30 31 31 31 32 32 31 33 32 32 32 34 37 39 40 38 40 43 45 46 44 41 39 40 40 37 35 31 29 29 30 29 27 28 29 26 28 32 30 28 29 31 32 32 31 29 27 24 25 25 25 24 24 23 24 22 22 24 26 26 25 24 24 31 28 25 26 29 31 31 30 30 27 23 22 22 21 23 26 24 25 25 25 24 24 24 25 29 28 27 28 30 31 31 31 27 28 27 25 23 22 22 24 25 
182 169 157 123 58 8 9 30 34 35 36 35 33 34 34 30 32 33 35 34 31 30 30 30 28 28 29 30 31 31 29 28 30 32 34 36 39 39 39 39 41 41 38 38 38 37 37 36 33 31 33 33 27 27 29 27 29 29 28 29 31 32 32 32 32 32 32 31 29 29 29 30 26 24 25 26 26 24 22 21 28 28 28 28 27 27 28 29 30 30 31 32 30 25 21 20 23 21 20 21 22 24 23 22 24 24 25 24 23 23 23 24 21 22 23 23 22 22 23 24 21 
128 130 126 124 121 100 63 35 15 18 33 47 44 35 34 36 35 35 35 34 33 33 33 33 33 32 30 29 30 30 30 29 29 29 29 30 31 31 32 32 33 36 38 38 37 37 39 43 40 37 36 35 33 33 34 32 33 31 28 26 27 29 30 30 30 30 30 30 31 32 34 36 31 31 31 30 27 24 22 24 20 23 26 27 26 26 27 29 30 28 27 28 26 25 26 28 28 29 30 28 24 22 21 22 24 20 17 20 25 26 22 17 16 17 20 23 23 23 21 21 26 
126 128 130 129 128 126 118 107 83 63 44 33 31 37 41 39 44 39 36 36 38 39 37 35 37 35 33 32 32 31 29 27 31 31 29 29 29 30 31 32 30 29 28 31 35 38 38 38 41 39 38 37 37 37 35 34 33 32 31 31 30 28 24 21 24 23 22 24 26 29 31 31 31 30 30 33 36 36 36 37 37 34 30 27 25 25 26 27 28 25 24 23 21 20 21 22 24 22 21 22 23 25 26 26 23 24 25 25 24 23 21 20 20 18 18 21 23 21 19 18 21 
128 126 125 126 126 128 129 129 128 126 122 102 65 35 25 23 41 39 36 35 35 35 35 35 31 34 35 33 35 38 33 25 28 31 32 28 28 31 30 28 31 31 30 29 29 29 28 28 32 34 36 37 38 38 37 37 40 40 40 39 38 36 34 33 32 31 28 26 25 25 26 27 27 27 27 27 29 31 33 34 35 31 31 35 37 34 30 29 27 29 29 26 24 24 22 18 21 23 23 23 23 25 24 23 23 23 24 25 25 26 26 26 21 20 19 19 19 19 20 20 19 
130 129 128 128 128 129 129 128 131 130 128 126 126 121 99 73 43 34 33 43 45 38 34 35 39 37 34 34 35 36 35 32 32 31 31 31 29 27 27 31 29 29 28 28 29 28 28 27 29 29 30 32 34 36 37 38 39 39 38 38 37 37 37 37 37 36 35 33 33 32 31 31 25 25 25 25 27 28 29 30 33 31 31 32 33 32 31 31 32 34 35 33 33 32 30 28 27 24 24 26 26 23 22 24 21 21 21 22 23 25 27 28 30 28 25 24 23 24 24 23 25 
130 129 129 129 129 129 126 124 123 125 124 122 125 128 123 119 121 103 69 34 25 33 37 33 34 35 33 30 31 34 35 33 26 31 31 25 23 27 32 32 27 27 28 29 29 28 27 27 31 29 27 26 26 27 29 30 32 32 32 33 35 37 40 43 38 39 40 41 40 39 37 36 35 34 33 31 28 26 27 26 24 25 25 24 24 27 29 30 29 31 33 34 34 35 35 33 35 35 34 32 30 28 27 25 20 21 23 24 24 23 22 22 26 21 17 20 27 30 27 23 28 
129 129 130 131 132 131 129 126 129 128 124 125 129 124 121 125 125 123 124 124 111 83 48 27 28 31 33 34 36 37 35 31 36 33 31 31 30 30 30 30 31 31 31 30 28 26 24 23 31 30 28 26 26 27 28 30 25 26 27 28 30 33 36 37 39 40 44 46 47 47 46 46 43 43 41 38 36 34 34 33 29 31 29 25 24 26 27 26 24 25 26 27 29 30 32 32 32 35 35 33 34 37 37 36 37 35 32 28 25 23 22 22 21 22 22 23 24 24 24 23 25 
130 130 129 129 129 128 124 122 116 122 121 119 120 120 120 122 123 125 124 120 121 124 119 110 83 50 24 27 35 36 35 40 35 30 28 31 34 34 29 27 27 27 29 30 30 30 30 30 28 27 27 27 27 27 28 29 25 26 26 27 27 26 26 25 30 31 32 34 37 38 38 38 39 39 39 39 39 39 38 38 39 40 38 33 32 32 31 27 28 27 26 25 24 25 27 28 31 28 28 30 31 30 31 33 30 31 32 34 34 33 32 31 29 28 26 24 23 23 24 25 21 
131 130 128 128 128 126 124 122 119 122 121 118 119 123 122 119 120 120 120 120 122 123 123 122 118 124 109 69 31 21 27 31 30 33 34 31 30 32 33 33 33 32 31 30 29 29 28 28 27 27 26 26 25 24 24 23 26 26 27 27 26 24 23 22 27 27 26 26 28 28 29 29 34 35 36 37 38 39 39 38 43 43 43 40 40 40 38 35 37 34 31 29 26 25 26 27 24 24 24 25 26 27 29 31 29 29 28 29 30 32 33 35 32 30 30 33 37 37 31 25 28 
