P2
121 46
236
60 59 61 62 74 60 46 49 58 109 168 182 186 187 188 189 189 183 171 159 145 127 98 65 35 15 4 0 6 14 20 19 26 31 25 24 22 25 25 25 18 14 16 20 13 18 26 54 92 126 153 160 168 169 167 173 171 165 151 123 77 53 45 44 40 31 22 29 36 39 39 45 50 49 52 54 51 53 53 55 57 58 59 60 62 61 62 59 62 61 59 66 60 62 63 61 61 63 66 65 66 63 62 66 68 65 62 66 68 63 61 63 66 65 61 62 65 62 62 63 65 
55 58 55 57 56 53 46 56 109 156 152 125 123 133 140 145 153 157 162 169 185 185 187 189 190 190 189 187 175 159 140 126 118 117 109 86 49 20 4 7 13 16 12 15 19 22 23 21 21 22 19 19 19 24 21 22 28 40 74 108 135 141 135 131 134 141 147 140 117 86 60 41 43 52 45 47 46 49 48 49 52 51 49 53 54 54 52 55 60 57 59 58 58 61 62 61 62 63 62 59 57 59 60 59 58 60 61 60 59 59 60 60 60 59 57 57 62 60 60 62 61 
69 43 32 37 55 52 46 82 143 141 113 109 109 90 83 89 89 84 80 78 89 94 101 111 123 137 152 161 169 170 177 177 179 185 187 189 190 196 190 173 150 136 116 91 57 39 25 10 2 5 6 5 7 11 15 19 23 24 20 20 22 23 25 29 33 38 46 55 90 112 105 111 116 97 85 74 56 52 56 58 52 51 51 44 44 50 53 51 52 51 52 52 54 54 55 56 55 54 56 60 57 56 58 60 61 58 59 62 61 59 58 60 61 60 60 62 62 60 62 65 62 
73 95 84 62 53 55 65 115 154 143 145 157 161 155 155 154 144 141 138 132 124 115 104 96 93 91 90 88 88 88 89 89 95 94 82 89 129 162 169 172 186 195 193 193 197 200 198 195 193 179 154 135 106 66 30 12 3 3 3 3 4 3 8 14 20 23 17 23 27 25 24 30 37 41 44 46 47 51 56 61 70 76 76 74 70 70 68 62 63 59 53 55 52 51 52 53 49 46 50 56 59 54 55 58 56 56 59 59 60 57 57 59 59 58 59 61 62 59 60 65 65 
99 84 46 41 51 56 88 143 160 155 155 154 155 160 158 158 161 156 146 148 156 154 152 154 156 155 151 147 141 141 150 148 120 111 122 132 112 85 72 80 87 98 112 123 133 143 152 159 172 183 188 192 197 198 198 200 202 200 190 180 159 134 97 58 30 13 4 3 4 4 4 5 6 11 20 19 23 23 28 34 34 35 38 43 48 50 54 65 71 65 63 63 60 61 59 56 54 53 52 50 49 53 51 47 50 53 51 49 51 52 55 56 54 54 56 56 60 61 60 59 60 
109 85 53 51 53 51 90 145 157 152 151 154 152 153 155 159 153 129 111 113 119 122 127 130 133 136 140 142 145 145 131 103 76 69 77 101 137 143 141 134 121 115 108 97 84 76 79 80 82 89 89 91 95 116 132 144 154 162 174 183 192 197 201 202 200 200 202 198 195 176 162 144 111 79 46 18 6 7 6 6 6 6 6 7 11 12 17 17 20 28 34 31 33 40 44 43 43 46 49 49 53 53 52 53 55 49 45 50 48 48 50 51 49 49 51 50 52 55 54 53 55 
93 50 33 46 46 58 114 155 151 149 153 152 148 148 154 155 152 153 156 153 148 145 143 144 144 136 122 111 108 107 96 71 60 75 83 103 145 167 171 169 164 162 167 167 163 159 158 152 149 142 129 125 116 103 88 84 82 77 78 79 83 92 115 133 138 146 157 170 181 183 185 192 196 194 194 196 198 196 197 183 154 128 98 66 24 4 2 3 3 3 3 4 4 5 9 15 18 23 30 36 32 35 41 43 46 57 67 65 56 52 53 53 51 51 52 51 52 50 48 50 51 
73 35 43 50 39 56 122 159 160 155 153 152 149 154 157 153 149 149 153 157 155 162 178 200 214 211 192 173 158 145 111 86 79 79 75 90 105 106 113 126 131 137 144 149 150 150 150 154 157 158 160 161 159 158 157 157 155 150 144 137 122 108 96 82 72 74 77 77 73 78 93 95 74 59 74 93 104 123 156 186 200 200 198 198 199 200 202 201 190 172 153 129 89 56 20 4 4 5 5 5 5 6 6 11 26 29 33 48 54 54 57 57 55 56 58 56 55 55 54 51 47 
56 49 52 50 46 78 126 147 148 148 147 153 152 153 151 157 151 149 159 153 155 150 105 41 46 86 95 105 138 159 144 90 72 125 188 213 180 175 180 166 166 160 124 122 121 111 111 125 132 129 132 139 145 151 156 154 155 159 161 162 161 161 162 158 156 156 148 147 146 142 129 108 120 145 136 120 120 116 105 103 109 109 120 138 149 157 167 170 173 182 194 200 200 199 199 202 199 197 194 174 153 134 90 22 4 8 30 30 44 55 52 49 52 51 50 58 56 59 55 50 47 
48 45 50 50 48 74 129 159 152 147 151 149 153 153 154 157 147 145 158 160 163 158 124 106 120 124 118 116 141 156 145 95 71 119 185 213 140 101 135 171 168 167 165 174 172 184 185 180 177 171 156 138 142 144 126 108 111 116 118 122 130 142 156 156 151 155 156 156 158 155 152 156 153 131 110 101 125 145 134 106 93 93 84 69 63 65 69 68 67 77 96 108 119 133 147 152 163 177 180 179 188 192 198 197 127 38 5 9 48 89 77 40 36 48 50 49 54 81 136 200 236 
42 45 52 49 51 82 133 155 150 150 149 154 153 157 151 145 145 147 152 157 165 163 145 111 107 110 90 89 108 101 105 111 124 163 188 178 146 117 111 99 93 100 92 88 106 130 151 161 170 175 176 183 217 234 231 223 218 210 218 219 187 146 110 106 110 105 109 118 129 120 127 122 92 46 32 71 81 97 135 148 142 148 149 145 146 144 135 129 126 111 96 94 71 63 65 66 62 72 95 114 124 140 156 188 188 120 28 5 50 82 63 35 36 42 44 47 52 48 74 134 202 
43 46 49 49 50 83 139 155 143 146 148 148 151 150 151 154 152 142 140 149 160 149 89 34 43 96 144 165 158 155 156 139 122 143 168 160 99 75 103 121 113 131 144 134 134 113 109 133 137 114 108 122 98 72 94 106 94 113 153 164 158 156 154 170 185 184 179 173 168 159 139 130 116 103 114 122 90 74 111 140 148 151 142 148 151 155 158 156 157 161 157 147 149 148 147 139 122 113 109 92 78 81 105 139 176 160 70 5 25 51 38 26 36 42 41 45 45 47 49 74 146 
43 44 46 48 53 86 128 146 146 155 166 167 164 164 166 163 161 169 172 166 156 166 159 154 153 147 145 146 152 138 102 51 38 92 142 143 129 121 118 124 146 158 138 117 111 124 126 134 144 143 140 132 132 136 133 125 127 125 116 92 96 123 156 163 115 72 100 155 153 150 161 150 119 123 134 113 103 140 169 154 139 128 105 100 104 104 104 112 130 145 148 147 149 148 150 153 155 153 152 154 152 156 152 150 157 162 109 31 17 50 45 31 36 39 38 46 54 47 48 52 71 
43 44 49 44 52 85 133 150 148 160 169 165 166 172 179 186 184 185 208 235 236 227 202 157 148 166 166 167 165 171 173 161 150 152 146 128 97 52 58 74 55 74 119 127 137 131 127 124 121 114 112 121 115 112 125 143 150 141 137 142 147 150 151 146 135 132 131 124 114 106 127 141 145 101 39 58 126 146 155 163 168 165 171 179 175 178 176 165 157 151 139 126 117 114 110 112 120 135 151 153 156 157 155 153 155 163 141 54 16 48 47 35 37 40 41 46 49 46 38 44 47 
43 43 46 43 57 105 150 150 144 127 86 71 82 88 92 116 145 159 163 160 162 181 192 192 188 187 188 184 178 173 166 168 175 172 171 177 176 181 179 166 149 147 148 136 111 103 114 109 98 106 110 112 120 117 113 121 128 122 132 151 142 149 150 144 148 151 144 139 147 146 147 153 152 140 137 152 154 130 118 129 137 139 135 118 91 82 112 152 154 149 161 170 159 157 157 156 138 134 153 160 159 155 155 156 164 157 118 41 31 58 47 34 41 43 43 48 50 48 43 45 49 
44 44 41 44 59 109 151 148 138 112 58 33 54 63 70 74 78 112 157 163 145 143 148 133 132 149 158 173 184 194 177 154 155 161 170 182 180 178 167 166 168 169 175 176 179 177 177 172 158 148 138 125 110 99 90 67 60 82 84 72 86 147 169 137 124 129 128 138 160 150 147 157 152 142 153 173 173 137 133 137 133 132 125 122 136 146 140 123 107 93 109 149 158 157 158 158 158 161 159 158 158 157 158 165 161 143 79 19 51 94 58 17 28 39 38 45 56 45 40 39 43 
43 45 40 41 69 121 149 146 136 99 51 48 68 72 67 69 75 98 140 158 148 136 108 65 48 58 61 59 62 83 123 166 167 148 151 158 164 172 179 182 184 182 184 192 186 186 180 176 173 170 170 173 174 176 173 166 159 151 134 124 131 135 141 110 51 37 61 69 65 94 145 175 149 109 113 141 111 73 82 119 102 71 92 124 107 84 94 136 155 144 141 154 155 155 161 158 154 158 161 163 160 158 155 164 171 135 54 10 61 95 55 34 51 54 53 60 67 56 39 32 46 
41 42 36 37 70 122 150 149 133 89 68 100 129 126 108 98 89 86 119 154 151 137 98 55 48 62 63 65 65 62 93 146 162 145 144 144 97 68 65 89 109 128 139 133 143 149 157 160 153 150 154 154 152 153 155 156 158 165 165 164 163 169 158 159 166 157 148 143 124 126 136 138 133 102 65 73 97 114 114 110 116 125 127 117 138 159 153 143 155 153 142 148 156 156 150 143 152 162 157 153 155 152 155 165 164 120 40 4 44 67 48 44 58 62 65 76 79 61 39 31 56 
44 41 34 36 76 143 159 145 129 87 78 125 157 148 141 139 111 81 106 146 152 135 92 65 85 94 68 48 65 65 79 118 150 158 148 121 71 43 44 63 61 60 69 69 71 76 105 139 151 150 151 150 151 151 148 156 181 196 188 185 174 154 157 159 156 161 161 162 168 165 166 165 163 162 158 155 147 145 128 120 124 123 123 126 129 141 141 84 22 55 133 162 155 153 151 151 159 164 158 155 156 157 160 164 157 109 32 4 65 105 63 26 32 37 40 43 46 40 33 37 60 
44 40 34 40 84 138 151 139 116 74 73 120 149 147 141 143 122 78 90 139 153 129 76 63 117 150 138 130 121 91 62 94 148 162 142 117 59 51 56 73 75 66 62 65 67 77 110 147 154 147 151 159 161 159 155 163 161 130 111 135 159 152 150 143 149 156 153 166 173 183 179 166 155 155 164 165 163 166 166 167 168 164 160 158 157 153 142 122 111 127 146 146 148 152 156 153 156 163 160 154 157 162 167 166 149 89 18 7 59 95 80 47 33 36 41 41 48 51 39 36 41 
46 41 33 42 98 145 147 135 117 79 92 162 195 181 174 166 121 62 76 133 146 123 70 62 117 148 140 140 143 119 72 84 141 157 143 138 135 128 120 104 82 72 74 73 70 69 90 132 156 154 150 153 153 150 154 127 61 16 34 90 146 158 157 156 151 159 188 198 160 143 169 188 171 149 140 154 156 154 154 162 173 176 169 165 164 163 166 170 170 167 166 165 160 156 148 150 162 168 161 157 157 169 179 173 145 79 14 12 45 62 69 61 42 30 37 43 57 66 56 43 43 
44 38 32 48 108 154 158 138 108 74 82 121 133 139 151 126 67 49 97 141 151 123 75 79 132 154 141 136 144 130 79 73 124 151 150 150 136 137 142 111 63 77 121 133 133 136 138 145 153 152 148 148 144 146 124 74 36 38 74 124 148 153 157 156 149 154 126 51 18 36 56 96 155 172 150 148 152 149 162 178 186 186 181 178 169 157 151 155 157 156 158 161 164 163 164 171 173 163 154 156 156 158 165 164 132 58 5 16 44 43 36 53 58 36 30 35 38 41 44 41 50 
40 36 37 62 118 147 142 132 104 56 51 77 81 71 66 66 69 87 120 145 145 112 69 86 143 173 178 180 159 110 56 73 124 145 144 142 148 143 141 106 60 83 135 146 141 143 141 145 151 152 151 148 146 146 123 69 27 36 75 117 144 145 142 144 146 101 34 15 40 51 43 53 102 153 169 155 149 154 172 152 73 8 45 138 189 167 153 152 152 155 157 155 170 177 181 174 162 156 158 160 153 158 166 162 126 50 4 18 39 27 28 40 49 50 48 44 41 38 39 42 49 
40 36 33 59 114 145 144 128 92 58 63 73 62 65 66 71 98 140 156 144 133 101 58 58 83 93 101 111 100 79 68 96 131 151 154 139 145 143 132 97 68 93 141 161 144 146 147 149 148 148 150 147 144 141 109 58 38 52 84 125 144 142 143 147 121 57 31 60 67 66 62 48 75 138 162 149 148 150 96 25 23 49 54 61 114 160 180 174 167 150 150 181 189 176 169 178 188 182 168 157 158 164 169 162 122 43 3 20 39 36 31 35 38 39 46 44 47 45 43 42 53 
35 27 29 68 129 144 138 129 97 76 105 123 106 101 87 70 79 121 149 143 130 100 60 55 68 75 85 82 80 79 87 117 143 147 147 148 145 149 132 82 53 98 146 149 142 146 145 147 147 144 148 149 149 142 121 106 96 74 88 127 148 144 145 136 79 32 65 110 111 117 90 48 58 115 148 143 137 104 48 33 47 53 57 58 74 128 163 158 146 153 163 148 82 12 17 55 134 175 160 142 157 167 167 154 104 29 2 20 37 28 28 33 32 30 33 41 52 54 54 55 58 
35 29 31 70 131 142 134 117 78 68 117 145 140 139 124 90 77 111 145 144 130 99 68 70 72 63 65 62 57 67 99 141 154 148 147 145 145 145 132 79 50 98 143 146 145 145 147 152 161 165 155 147 149 144 141 136 103 60 80 130 149 144 139 121 69 50 102 142 150 140 121 72 40 87 147 156 127 74 43 57 74 76 70 58 67 113 160 154 149 158 125 50 25 40 56 52 61 101 148 161 159 163 163 153 104 29 2 16 37 29 28 31 31 29 29 33 36 36 42 53 55 
36 34 42 86 135 139 131 112 77 81 128 140 145 142 137 111 84 101 136 147 128 92 79 110 127 117 109 103 111 132 144 145 145 145 146 144 144 144 121 62 56 119 153 146 144 146 145 138 138 149 151 147 141 144 141 130 86 48 82 129 151 144 130 100 50 49 113 155 148 137 121 76 43 89 143 142 88 26 28 98 134 130 109 72 53 96 143 156 157 135 65 35 60 77 70 73 65 80 130 156 155 156 155 144 89 18 2 23 33 28 28 30 29 30 31 34 34 33 33 39 44 
33 31 45 95 145 139 128 110 78 96 153 164 151 147 145 119 82 92 131 150 125 87 86 126 144 138 138 140 139 144 145 145 145 144 146 145 148 140 110 67 72 117 146 149 145 144 141 109 59 74 131 149 137 135 140 123 73 45 84 133 132 144 139 110 54 34 97 165 168 169 128 54 29 84 142 154 143 103 89 123 138 138 135 101 65 80 130 154 138 94 36 56 97 110 99 94 77 71 112 153 156 157 159 143 79 9 1 22 33 27 26 27 28 29 29 31 32 34 34 35 36 
30 30 48 102 149 142 131 108 69 83 144 164 172 175 141 65 26 77 135 144 115 74 81 123 139 135 136 138 140 140 143 145 143 144 146 141 143 138 107 63 70 121 147 143 142 141 143 118 66 71 126 147 140 140 140 117 59 45 99 138 139 144 134 123 82 26 42 96 136 120 67 17 35 106 154 160 143 143 145 145 146 153 137 98 44 72 132 148 134 79 34 47 110 137 141 122 86 56 90 139 154 155 156 134 67 5 4 25 27 21 22 24 25 26 26 29 33 31 32 37 40 
31 29 46 101 143 144 135 108 69 66 86 78 78 79 78 71 78 110 135 134 104 61 80 131 148 146 143 140 145 148 147 145 144 144 145 146 145 139 101 54 71 131 149 145 144 144 144 145 143 143 147 147 147 150 142 114 57 47 107 146 143 140 132 138 111 48 34 57 54 55 54 57 80 114 138 141 142 143 140 143 147 155 126 46 27 88 144 149 142 133 134 135 140 144 146 144 104 52 81 139 161 165 161 126 52 2 6 29 24 20 23 26 25 23 23 27 30 31 32 35 37 
34 34 54 111 143 145 123 79 35 33 57 60 68 62 52 56 90 134 148 134 99 56 85 135 140 133 136 142 144 144 145 146 147 146 145 145 144 134 90 54 83 141 150 145 146 147 147 147 151 151 147 145 148 147 142 101 49 59 107 143 136 145 148 130 73 29 40 53 52 53 53 82 134 155 145 140 145 142 141 143 152 123 61 33 58 114 144 148 140 140 140 143 143 150 154 142 79 40 78 133 150 161 157 115 42 1 6 27 25 21 22 25 24 23 22 25 30 32 34 35 33 
33 32 56 118 155 151 137 128 116 103 94 77 65 65 73 101 136 150 139 127 90 46 78 137 145 137 136 141 142 145 148 146 145 146 145 144 145 133 81 46 75 138 155 144 143 146 147 146 146 145 145 146 145 147 137 98 43 61 126 151 146 141 134 101 41 40 75 65 59 69 39 48 124 150 133 144 141 141 142 149 118 55 38 59 87 117 141 142 138 142 142 141 142 156 152 108 37 51 98 133 151 161 150 102 33 1 7 23 20 18 20 22 20 19 21 26 25 27 32 37 36 
40 34 48 105 161 156 146 137 141 140 132 140 138 135 135 139 144 143 136 128 69 28 62 136 148 134 140 149 145 150 151 149 145 145 145 146 142 123 75 60 122 166 152 140 146 147 148 147 145 144 145 146 148 146 133 92 51 77 133 145 130 140 113 61 49 85 115 116 126 83 42 50 103 149 150 126 138 139 145 121 54 26 56 85 113 134 146 143 142 144 141 143 149 147 89 26 30 75 114 138 156 159 149 107 29 1 7 26 21 19 20 22 22 24 27 25 31 35 34 33 36 
36 33 40 77 134 155 166 169 166 159 157 154 148 145 141 140 141 142 141 140 123 117 127 144 150 150 151 148 152 156 158 155 151 154 151 150 143 126 68 42 104 152 144 138 143 144 144 145 145 144 144 145 143 142 125 80 44 80 137 149 133 142 113 61 58 109 147 148 124 118 81 56 93 140 145 128 143 146 126 70 26 35 73 116 140 145 142 140 141 144 147 152 144 98 34 23 60 103 131 135 152 156 144 99 25 1 5 20 16 15 17 19 19 22 25 25 28 32 35 33 32 
33 32 31 42 100 154 171 166 173 174 172 175 173 173 170 165 156 150 145 144 139 137 135 138 145 144 132 120 125 145 145 145 151 151 148 145 139 95 35 36 108 153 147 143 146 146 146 146 147 149 149 149 146 144 124 79 53 91 137 144 143 137 97 51 63 120 147 134 134 118 67 44 89 133 136 130 145 118 33 9 51 86 113 126 136 137 140 141 139 141 147 147 94 26 23 65 94 122 140 145 153 154 130 73 10 1 12 20 17 17 19 20 19 20 23 23 29 34 32 30 35 
47 45 39 36 42 70 98 111 130 151 161 174 189 184 180 181 184 185 181 177 170 169 167 159 154 146 93 17 1 0 36 116 157 153 153 156 144 125 77 59 110 152 149 142 147 146 145 144 146 150 150 149 150 140 111 65 54 105 145 142 137 136 104 59 58 112 166 187 173 109 43 44 94 126 135 145 118 53 17 43 81 109 130 137 135 139 136 139 141 148 140 88 22 38 76 106 133 143 135 145 152 157 126 57 3 4 19 20 15 16 19 20 19 20 23 24 27 29 31 32 33 
47 54 56 56 50 45 42 31 25 32 44 59 75 102 136 159 167 167 168 171 182 175 181 181 173 173 153 108 78 54 83 140 155 147 146 149 147 142 138 137 141 146 148 148 147 145 144 146 148 151 152 152 149 135 94 48 54 106 138 139 137 139 116 67 31 41 86 126 90 48 42 85 127 146 141 128 66 28 49 97 115 124 128 132 138 141 140 138 149 143 84 18 31 81 108 127 138 134 141 150 154 155 118 42 1 1 15 18 14 16 18 19 19 20 23 25 28 29 29 29 30 
32 34 34 35 35 49 48 43 39 32 29 27 24 20 17 20 34 55 79 93 113 134 153 152 148 161 172 167 172 176 184 188 180 176 170 165 158 155 153 151 150 146 144 148 142 141 144 150 153 152 151 151 150 136 98 40 35 106 156 147 133 138 130 98 52 27 38 65 54 46 65 93 113 130 106 53 36 54 94 159 190 188 182 168 154 140 144 150 145 98 28 21 60 106 123 131 143 139 139 145 157 148 104 35 2 3 14 13 16 19 20 20 20 21 22 24 30 30 26 26 32 
34 35 37 35 34 30 30 38 38 36 36 27 27 27 28 27 25 22 19 17 27 20 22 38 59 83 112 137 156 172 175 172 168 174 179 175 182 179 177 178 172 167 163 156 149 148 147 148 147 147 148 149 151 151 142 125 121 131 138 138 142 151 150 120 69 28 24 38 45 56 84 113 133 139 100 40 42 58 56 48 63 89 111 142 151 140 142 147 90 20 28 91 128 124 136 140 137 139 142 152 157 143 92 21 1 6 16 12 14 17 19 19 19 19 20 22 22 22 25 29 29 
36 37 38 31 30 36 36 29 34 35 25 28 29 30 30 30 28 28 28 29 27 26 23 18 19 25 21 8 3 16 38 65 82 99 117 135 151 165 170 172 175 178 180 181 178 179 176 171 166 163 161 157 151 150 150 147 143 144 146 142 141 147 153 151 138 116 96 83 99 100 113 137 142 114 72 43 46 52 52 53 55 52 53 70 120 148 141 93 35 33 73 115 150 185 197 183 178 162 143 145 148 144 99 24 1 7 16 9 13 15 17 17 17 18 18 20 21 24 23 22 27 
31 28 29 30 35 33 32 32 34 35 34 34 27 27 28 31 34 34 33 32 31 31 31 30 27 27 28 29 24 21 19 21 23 24 19 14 24 45 67 79 93 116 136 145 149 159 167 171 173 173 173 175 177 175 172 169 166 160 153 148 146 141 141 141 140 142 143 136 133 141 143 143 141 126 89 46 31 41 46 45 46 45 53 72 114 140 125 72 30 41 50 45 47 63 84 101 131 150 145 142 148 132 93 12 1 7 15 10 11 13 15 16 16 18 19 18 18 21 23 23 20 
42 42 41 40 32 34 35 35 33 31 32 33 30 33 36 35 32 30 31 31 27 28 30 31 30 30 30 31 29 30 31 30 28 26 25 24 23 25 26 23 17 16 27 40 50 58 78 108 132 140 142 148 158 160 163 166 170 172 173 174 176 168 166 161 154 154 148 131 68 6 0 29 86 136 137 127 115 110 95 82 72 55 47 53 102 138 116 49 10 29 45 44 45 48 45 47 83 126 143 147 146 126 84 12 0 9 18 11 11 16 14 11 14 17 19 18 18 23 24 21 19 
68 61 55 50 46 46 43 40 37 35 36 37 34 34 33 30 32 35 35 34 34 34 35 34 31 30 32 33 29 29 29 30 31 31 30 29 27 27 29 29 24 19 21 27 27 21 18 21 24 24 35 52 79 92 112 129 138 143 147 149 152 157 164 169 170 171 161 143 90 16 1 2 39 123 150 139 132 135 134 134 133 127 123 122 135 140 120 78 44 47 53 50 53 47 41 49 86 129 147 149 144 124 77 17 4 17 25 16 11 11 13 13 12 16 21 22 21 23 22 21 21 
60 65 71 77 72 65 54 47 44 44 44 44 38 38 35 31 33 36 34 30 30 31 32 32 31 32 35 36 28 31 33 32 29 28 30 32 34 31 31 33 34 32 28 27 25 26 24 23 24 22 24 28 21 20 19 21 28 46 68 84 101 113 119 126 143 154 157 160 163 163 163 150 158 175 168 168 154 152 150 148 142 138 140 141 139 142 139 137 138 132 120 115 102 93 79 67 73 101 136 159 156 123 55 3 2 19 28 22 14 12 16 19 16 16 19 17 19 20 19 18 20 
25 23 27 32 45 49 56 63 67 62 55 49 45 48 48 44 40 39 38 36 33 33 34 34 34 33 32 31 34 35 35 34 33 33 34 36 32 27 24 29 33 31 29 29 32 33 30 27 30 31 27 23 23 24 24 22 20 19 19 21 18 23 23 33 58 82 103 122 149 171 175 172 182 173 156 164 167 167 168 172 171 169 168 165 159 154 152 149 146 142 141 139 138 138 137 134 135 148 163 167 147 105 39 5 6 23 27 27 22 19 19 20 21 20 18 17 18 23 24 21 20 
24 26 28 27 27 28 30 32 35 40 47 52 62 60 56 52 48 46 46 47 40 39 37 36 36 36 36 35 34 32 29 30 33 34 34 33 35 37 38 37 36 35 33 31 32 33 31 29 30 30 32 34 31 30 29 28 27 26 25 25 29 24 21 21 21 16 12 10 19 28 58 90 102 104 115 139 146 150 152 153 156 159 162 164 166 172 174 169 168 166 161 158 147 145 146 147 143 151 165 165 131 74 17 4 14 23 25 32 26 21 19 20 19 17 16 15 21 22 22 20 19 
