P2
121 46
219
58 58 58 67 90 91 71 67 78 78 78 79 80 80 80 81 78 82 79 76 79 76 60 44 32 46 55 59 64 67 69 74 74 70 75 81 77 72 75 79 78 80 81 82 83 81 80 80 78 80 80 78 77 77 76 75 77 77 76 76 77 77 77 77 74 74 74 74 74 73 74 74 77 77 78 78 79 79 80 80 81 83 84 83 82 82 82 83 86 85 85 85 84 83 80 79 80 80 79 77 75 74 77 78 77 75 75 74 75 74 74 73 75 77 78 77 74 72 73 76 75 
56 58 58 59 78 89 74 68 77 77 77 77 77 77 78 78 81 79 76 79 77 67 79 112 156 141 109 72 42 24 18 20 23 34 53 64 64 67 69 64 72 70 76 81 79 81 82 77 77 79 78 76 75 76 76 75 76 76 75 75 76 76 76 76 74 75 75 75 75 75 76 76 77 76 75 77 79 81 80 79 81 83 83 80 78 79 83 85 86 85 82 80 78 79 78 79 74 75 78 78 75 73 74 74 71 70 71 72 74 74 73 71 75 73 71 70 71 72 73 73 71 
57 56 58 56 68 83 75 70 79 79 78 78 78 78 78 78 74 78 80 75 73 87 126 167 168 167 178 192 194 194 194 190 167 131 97 77 58 48 54 63 56 48 47 52 58 69 77 77 69 73 75 73 72 74 76 76 74 74 74 74 74 74 74 74 75 75 75 75 76 76 77 77 77 76 75 76 77 78 78 78 76 80 83 82 82 82 81 80 82 82 82 82 82 81 79 78 78 78 78 77 75 74 74 74 73 73 73 74 74 74 73 72 73 71 69 68 71 71 69 67 70 
57 54 57 54 63 78 74 71 79 77 77 77 77 76 76 76 75 72 74 74 76 85 71 36 8 15 25 43 75 111 141 159 178 177 177 176 182 189 174 144 140 147 140 115 87 53 28 23 46 54 62 65 64 64 65 65 71 71 71 71 71 71 71 71 74 74 73 73 73 73 74 74 74 77 78 77 75 74 78 80 77 79 81 80 81 83 81 80 82 80 78 78 79 79 78 77 73 73 73 74 74 74 73 72 74 74 74 73 71 69 69 70 69 68 68 67 69 71 72 74 68 
53 54 53 52 58 66 71 73 72 72 74 75 74 74 74 74 73 73 73 69 75 88 82 62 72 81 72 47 29 30 31 17 4 11 24 40 55 90 136 154 178 190 174 180 189 193 180 162 120 69 16 0 0 4 6 21 43 52 61 58 60 67 66 69 72 66 71 72 70 74 76 75 73 74 74 74 77 80 78 74 69 75 80 81 80 80 81 82 82 81 80 81 83 79 75 79 74 74 74 74 74 73 71 70 73 72 72 72 71 72 72 70 70 70 70 70 69 69 68 68 69 
51 52 51 51 55 62 69 74 76 76 74 72 72 73 74 76 78 72 70 72 78 92 96 88 92 98 105 110 109 110 115 114 115 109 103 103 91 69 54 44 16 4 29 76 92 116 152 188 205 211 215 219 216 205 179 140 73 49 44 41 33 40 49 48 54 53 62 67 66 67 66 68 72 73 73 72 73 75 75 74 78 81 79 75 78 83 84 81 78 78 80 79 75 76 75 72 74 74 74 74 72 72 73 73 72 69 72 75 72 69 69 68 70 69 69 68 67 67 68 69 68 
50 50 50 50 50 55 64 73 70 71 71 72 72 72 71 70 76 73 73 74 80 96 105 99 100 107 105 92 69 55 62 69 91 103 110 117 128 140 150 149 115 62 83 133 100 38 2 1 3 19 57 109 148 168 184 188 187 183 182 178 174 163 144 132 108 85 56 34 34 45 44 44 50 57 64 66 66 69 72 73 75 77 77 78 79 76 77 84 79 79 81 78 74 75 74 68 72 71 70 70 70 70 69 69 70 69 72 72 69 70 73 70 69 68 67 67 66 67 68 68 67 
45 44 46 47 47 50 57 66 65 65 66 68 70 73 75 75 71 72 73 73 76 91 101 90 98 104 102 97 89 89 92 88 84 83 82 81 75 80 98 107 108 94 63 38 39 61 83 99 81 72 60 39 22 11 11 24 32 38 57 86 113 137 156 170 172 176 181 181 183 171 142 123 109 83 62 54 50 43 44 52 52 51 51 53 58 60 63 69 70 73 74 74 74 71 69 73 67 68 68 68 67 67 67 67 69 68 71 71 67 67 70 67 68 68 69 70 70 69 68 67 66 
21 21 26 32 36 38 44 50 55 56 58 61 64 66 68 69 70 70 70 73 75 89 103 92 96 98 97 96 95 95 100 97 94 99 99 98 95 92 88 76 68 64 66 55 39 48 80 98 103 94 95 95 94 91 81 77 82 71 56 50 49 44 35 31 33 45 73 103 132 146 154 169 178 183 184 182 179 176 167 156 143 133 121 126 124 81 30 15 47 54 54 51 55 59 59 59 56 59 63 64 64 65 66 68 68 65 67 69 66 66 70 72 66 67 67 68 68 68 67 66 64 
18 20 24 26 25 23 23 25 24 28 33 39 43 46 49 51 55 59 61 65 68 89 109 97 88 95 97 92 82 80 90 94 93 98 95 99 102 95 91 92 93 91 89 77 84 88 83 88 86 85 75 74 73 68 72 76 77 86 83 82 88 89 86 84 83 73 67 60 51 39 31 37 47 48 62 87 116 139 157 168 176 174 189 192 185 196 198 172 114 83 59 50 44 37 40 46 44 43 46 51 58 63 63 62 62 65 65 61 62 64 65 64 67 67 66 67 67 67 68 67 66 
14 20 24 24 21 18 18 17 17 19 19 18 18 20 26 31 38 43 45 47 50 78 108 102 91 96 96 94 88 84 79 66 78 99 103 98 98 98 98 96 90 83 83 68 58 60 84 101 113 129 117 98 94 96 96 90 84 71 62 65 63 61 70 73 84 83 89 91 91 90 84 84 75 74 69 60 50 43 40 39 39 38 22 16 47 92 132 160 177 178 179 177 175 173 162 144 131 114 91 71 58 50 44 40 42 46 43 42 47 50 51 55 64 65 66 67 66 66 67 66 67 
19 27 32 28 22 19 18 18 17 19 21 19 17 19 25 31 25 20 15 19 21 48 90 97 83 90 93 94 89 87 91 87 89 97 99 101 101 99 102 101 104 107 104 85 67 65 83 65 41 47 78 101 103 103 105 112 131 138 122 103 84 62 64 82 66 56 56 59 62 69 73 76 81 88 94 96 99 101 99 93 102 82 76 106 139 119 53 1 6 31 60 86 107 122 138 152 166 172 178 179 175 171 169 169 161 154 143 135 110 60 20 12 55 57 59 61 61 60 59 57 62 
24 28 24 20 22 20 18 24 16 17 20 20 17 18 24 31 30 19 13 20 20 40 83 97 84 87 86 85 94 108 110 101 92 98 100 98 100 102 102 104 107 103 106 110 108 100 88 78 57 52 70 106 130 131 115 99 58 34 65 102 110 115 110 105 120 134 136 117 105 100 90 77 67 63 55 54 61 70 80 89 91 95 87 65 47 58 50 41 51 75 72 61 51 38 37 39 37 38 53 73 90 112 135 143 153 168 171 175 179 207 205 123 27 13 39 53 46 47 50 56 54 
23 23 23 20 18 22 23 19 17 18 21 22 20 19 22 26 32 23 17 23 22 38 77 92 82 83 84 82 79 81 89 96 100 98 99 101 97 93 97 105 105 114 110 95 58 44 75 93 77 82 99 86 48 48 74 76 71 87 105 109 97 84 88 102 68 35 42 89 111 106 107 116 135 139 134 107 78 74 78 69 59 64 55 51 36 27 38 69 112 124 121 117 116 113 112 105 98 90 77 71 68 53 36 33 38 40 35 46 66 99 136 137 67 14 26 55 49 51 58 57 58 
26 26 24 21 21 23 23 20 19 18 18 19 18 18 23 27 35 26 17 18 15 30 68 88 77 74 72 69 66 67 69 66 64 63 59 62 80 94 90 80 88 88 88 88 86 90 101 105 102 111 110 105 104 100 100 110 112 92 87 104 93 81 97 101 85 75 74 92 109 114 112 112 109 108 115 117 117 134 139 122 119 128 119 108 80 62 72 88 77 71 69 75 83 91 99 100 107 112 114 112 112 111 110 110 101 91 88 82 64 67 108 148 137 58 23 44 62 57 52 59 58 
25 20 22 24 22 22 23 21 17 17 17 17 16 15 19 23 36 29 19 16 13 25 60 86 69 62 65 68 64 73 100 123 129 135 121 84 50 41 49 55 57 58 56 55 63 67 67 76 84 82 89 92 90 99 100 91 59 49 70 94 64 46 81 103 94 97 91 92 103 113 112 108 95 95 86 96 114 100 88 107 120 120 121 128 124 128 131 123 114 116 114 102 95 97 91 79 60 64 67 67 70 83 93 92 98 97 101 103 104 99 106 137 134 51 13 37 56 55 53 55 56 
3 8 11 13 19 22 21 20 19 18 19 18 16 15 17 22 31 28 20 17 15 21 48 75 66 59 59 63 63 59 36 4 1 15 51 79 75 65 64 63 86 111 111 99 77 56 58 58 54 60 58 57 66 74 75 76 76 79 82 90 98 96 99 109 83 48 47 88 119 121 111 103 82 44 45 89 104 79 77 104 101 95 97 98 103 107 107 106 107 111 131 150 152 137 120 114 121 121 118 116 113 105 94 88 71 71 72 69 69 77 99 135 109 37 20 46 51 51 56 52 56 
100 34 1 4 0 0 3 4 7 7 10 13 14 14 15 18 28 27 19 15 14 16 36 65 67 55 55 61 59 52 35 13 15 17 18 31 54 66 63 60 53 47 55 79 79 61 57 56 67 72 78 73 60 57 60 58 64 68 68 65 71 72 71 83 90 80 88 111 121 117 112 110 100 102 103 108 100 70 69 104 110 97 103 102 97 92 97 107 105 99 66 28 34 82 115 112 107 109 115 117 114 115 118 118 124 112 100 83 63 76 119 146 95 31 17 43 53 51 53 58 56 
147 173 179 168 145 84 21 0 1 0 0 3 8 11 12 13 26 27 19 15 18 17 30 60 64 57 58 59 58 60 47 21 15 43 39 22 40 61 62 60 40 19 10 12 26 51 61 58 59 66 68 65 69 84 94 93 61 49 54 64 64 61 61 62 61 71 74 71 76 83 89 92 90 98 109 106 76 44 56 95 96 104 113 99 90 96 118 126 115 100 89 94 93 97 112 112 109 108 112 112 107 110 115 111 105 111 101 95 85 88 123 145 89 17 12 45 51 53 55 53 56 
70 69 67 74 106 147 152 129 86 68 43 26 18 15 15 15 17 21 17 16 21 18 26 54 64 54 58 63 61 59 49 29 22 44 44 26 30 53 64 63 51 38 19 21 30 44 61 59 56 41 15 17 46 57 50 54 59 62 60 61 61 62 68 76 88 78 74 71 65 66 68 65 66 67 68 71 75 79 86 92 94 61 41 63 91 78 95 129 132 110 110 131 116 96 107 111 109 111 110 112 116 110 108 116 115 108 95 104 93 91 131 144 92 20 21 51 52 53 55 55 57 
64 70 71 69 74 76 77 80 92 102 102 98 100 89 69 60 43 32 22 21 18 11 18 36 67 63 55 58 59 59 56 34 21 39 55 45 43 56 55 58 54 35 17 20 27 36 53 62 61 50 29 17 34 44 28 20 52 62 63 60 61 63 71 75 94 106 111 102 71 49 54 57 58 57 62 60 58 64 64 61 64 66 72 77 77 60 43 51 88 96 65 30 52 107 126 113 112 115 109 103 108 114 112 109 111 110 96 63 46 80 128 146 82 15 16 39 46 49 52 51 56 
45 54 58 57 59 60 63 68 67 67 66 71 78 74 73 82 89 88 85 75 58 46 39 33 54 60 58 62 61 58 56 41 19 35 61 65 62 62 59 68 61 44 21 16 18 26 45 58 57 52 36 16 21 40 34 21 39 55 59 59 56 56 54 28 0 5 18 33 46 55 56 55 60 64 72 72 70 73 69 64 66 64 63 63 65 64 60 61 68 69 63 60 72 90 104 110 110 113 115 115 115 111 112 118 117 115 102 74 65 97 132 140 79 11 12 38 45 48 52 50 52 
25 24 22 26 39 49 52 53 52 57 62 63 63 63 64 64 72 70 72 76 78 82 83 79 65 62 55 61 65 62 60 49 26 35 58 64 62 63 60 64 60 47 28 26 33 33 42 57 62 55 35 9 8 32 40 30 33 65 62 59 66 64 58 40 16 13 19 17 25 46 55 58 55 54 48 34 35 47 55 61 58 57 57 61 65 69 70 65 66 61 59 63 68 68 70 76 99 96 89 89 99 108 109 107 111 112 112 108 105 117 135 141 79 13 14 39 43 44 50 51 52 
20 22 22 19 15 14 14 17 23 27 36 43 46 52 59 61 63 64 64 68 71 69 68 74 69 58 53 63 66 62 60 53 32 29 49 64 61 59 60 63 60 50 28 24 36 30 30 51 64 59 41 21 19 26 25 16 31 61 68 62 59 63 64 47 25 33 50 40 18 28 51 62 50 35 18 13 20 18 19 40 60 59 56 61 62 58 65 70 68 72 67 58 60 64 64 62 63 64 65 66 65 66 71 77 87 102 117 122 123 128 129 123 79 11 4 29 38 40 44 42 47 
20 18 18 18 18 17 15 13 17 14 16 17 16 22 30 30 40 49 56 59 62 62 62 64 69 63 56 58 61 61 59 56 42 22 34 63 75 76 70 58 62 60 34 22 37 34 26 44 68 68 54 32 15 13 18 22 29 43 58 63 65 64 55 46 21 32 52 54 25 19 47 64 59 43 20 17 35 34 20 29 46 55 53 50 36 11 5 16 22 38 57 65 63 60 58 58 59 63 69 71 66 59 57 59 60 61 69 85 94 95 101 114 68 8 0 20 30 30 34 35 36 
19 17 18 19 16 16 18 19 16 14 15 14 12 15 16 12 18 21 29 35 37 41 47 48 59 65 59 52 56 60 59 58 48 22 26 55 62 51 50 62 59 61 39 22 40 44 29 30 64 67 56 35 16 14 22 20 23 39 56 62 73 77 65 61 62 60 62 65 41 20 38 61 56 53 33 20 44 60 38 16 40 62 63 54 39 12 4 21 22 14 29 53 59 57 59 60 61 57 57 61 62 62 62 60 61 62 57 53 54 59 72 89 56 9 0 10 16 11 16 22 23 
20 16 19 22 20 19 19 17 19 13 14 20 20 16 16 18 16 14 23 31 23 13 15 24 29 45 59 59 54 56 59 59 55 29 25 55 63 33 23 50 65 62 43 23 31 39 28 23 44 66 67 44 18 8 18 23 23 25 50 58 24 4 30 65 65 60 61 60 39 18 30 56 60 52 36 21 32 54 42 15 25 52 60 52 45 24 16 37 53 29 19 39 61 64 58 55 57 67 53 16 7 39 60 53 53 56 57 60 59 52 61 86 69 23 0 4 15 11 10 13 14 
26 18 16 17 17 17 18 16 15 18 18 15 15 19 19 16 18 18 25 38 38 22 17 27 24 29 53 65 55 56 62 57 57 47 25 25 39 31 28 52 64 59 50 29 18 20 20 22 40 66 66 51 36 21 19 21 21 30 47 59 43 28 42 55 62 57 60 45 18 11 30 58 63 55 47 28 26 51 52 26 21 46 57 52 47 28 15 36 56 41 21 30 59 63 51 53 56 45 30 18 20 39 56 57 53 57 56 57 59 54 58 77 80 35 3 2 16 14 13 16 16 
24 26 22 24 24 16 15 16 20 14 18 19 14 17 22 17 19 19 23 31 33 24 19 23 20 30 47 57 57 56 59 63 57 49 33 19 13 17 29 41 58 63 55 32 17 20 26 24 38 56 63 55 38 21 20 31 28 27 37 55 65 61 58 60 60 60 61 54 30 14 32 58 65 62 52 31 20 45 60 37 18 39 66 68 58 58 59 58 57 47 22 17 52 75 61 51 56 39 22 23 29 37 53 60 58 58 59 57 58 59 58 68 82 53 9 2 13 16 21 17 14 
28 32 27 24 25 24 23 24 17 22 19 16 20 21 17 16 18 18 23 32 34 26 19 21 28 20 35 66 76 63 52 52 57 58 56 53 48 43 44 52 61 58 59 41 23 40 50 28 21 53 71 65 47 31 33 41 27 17 33 59 62 56 59 60 59 73 79 72 59 38 27 36 68 63 55 40 21 35 56 41 22 37 60 65 62 63 60 61 63 58 31 15 43 67 62 61 56 46 35 30 24 29 49 60 56 55 58 57 57 58 56 63 78 62 19 1 8 12 16 11 14 
39 33 33 32 26 22 23 27 23 18 24 27 19 18 21 17 22 20 22 30 33 27 23 25 19 22 28 48 84 116 112 88 66 55 45 47 52 52 53 57 57 59 58 46 40 48 51 42 23 44 64 64 45 24 24 45 36 13 22 53 63 60 61 60 65 51 33 35 55 44 21 33 53 65 64 41 13 28 60 49 26 38 60 61 59 65 61 60 42 14 9 32 54 58 54 54 62 63 61 54 33 22 39 59 56 54 57 57 56 57 57 59 79 71 26 1 6 14 14 11 13 
46 37 38 32 24 28 28 23 25 26 27 23 21 24 25 22 24 22 23 30 34 30 26 27 24 25 24 23 33 64 99 118 138 133 126 122 107 81 62 57 53 51 52 54 55 55 56 55 49 52 64 61 51 39 30 42 43 24 24 49 63 59 57 63 63 49 27 27 64 67 32 27 57 65 63 53 28 27 55 57 20 25 52 63 61 65 62 60 58 32 13 22 52 69 63 59 56 57 58 56 40 21 33 61 60 56 58 59 56 57 58 56 78 79 36 1 5 15 14 13 14 
42 33 35 33 29 30 27 27 24 25 21 20 25 26 23 23 23 23 26 33 37 32 23 22 22 19 21 25 24 22 20 16 34 47 72 101 118 118 118 124 131 129 111 89 75 64 57 58 58 58 59 56 55 52 52 57 58 42 32 44 62 63 59 62 60 56 37 21 44 58 33 21 50 67 64 53 30 20 47 61 32 19 44 67 63 61 65 70 70 61 50 41 47 58 59 59 60 60 57 57 51 31 27 49 63 60 61 60 57 57 60 56 68 84 55 11 3 11 14 12 11 
17 2 1 10 27 30 25 28 22 25 26 26 25 25 25 25 24 24 26 30 33 29 22 22 26 23 26 26 20 18 19 20 11 11 11 12 14 18 34 53 81 105 123 133 135 108 66 41 48 55 48 50 50 47 56 50 53 52 50 53 57 58 58 61 59 61 49 20 6 7 10 22 41 57 56 51 30 13 41 75 57 29 38 65 68 58 39 17 35 52 57 28 16 50 71 61 57 64 65 62 61 46 33 42 61 62 61 60 58 57 60 58 63 82 64 18 0 10 18 13 13 
181 179 149 87 27 1 2 4 21 31 30 23 26 29 26 25 29 28 26 27 27 25 24 27 23 25 25 22 23 28 25 14 21 18 15 16 20 19 16 19 18 12 13 13 15 41 76 92 102 114 119 125 130 130 119 96 70 65 58 54 54 56 55 51 57 59 58 50 43 38 31 28 40 59 64 59 45 27 21 21 29 21 32 54 61 60 49 24 1 42 65 37 12 30 54 61 55 59 61 57 54 47 33 33 54 60 57 57 57 56 58 57 61 74 69 33 3 8 18 14 15 
37 69 114 151 169 182 164 114 53 26 27 43 39 36 38 32 31 31 30 30 29 26 26 28 26 22 22 23 22 22 24 24 24 22 19 17 20 19 17 19 27 25 20 16 19 24 25 22 15 9 21 31 52 83 102 121 132 134 132 126 121 111 93 79 59 53 52 58 58 53 52 54 58 60 60 63 57 39 22 14 20 19 23 43 58 61 52 29 13 22 48 42 14 24 53 62 61 55 59 61 62 57 38 26 46 56 55 56 57 56 57 57 59 69 79 54 12 2 12 13 16 
57 49 46 46 37 40 77 121 147 134 120 107 84 59 50 55 49 50 48 47 47 45 38 30 30 28 28 26 24 27 28 23 23 21 21 23 21 21 23 26 25 27 28 28 26 25 28 31 28 16 17 22 17 10 8 5 10 14 26 46 73 98 117 128 124 123 129 119 88 63 56 55 51 51 53 56 56 54 52 51 46 42 45 53 57 58 57 52 32 21 13 15 19 25 41 59 58 58 61 64 63 56 37 18 38 63 68 58 59 60 56 58 58 64 80 67 23 5 16 20 19 
51 53 52 52 53 54 53 50 49 48 56 78 99 109 111 112 84 65 47 45 46 43 41 41 39 39 33 29 30 31 29 28 26 25 25 26 25 23 25 27 23 22 22 24 25 25 28 31 28 25 25 25 22 21 24 22 18 20 20 18 13 9 7 6 24 52 77 97 117 130 133 137 134 111 89 77 65 53 53 61 54 56 54 53 55 55 54 55 51 40 34 34 29 27 41 61 65 61 60 63 64 60 45 29 26 51 60 54 55 58 57 57 57 61 75 77 43 12 20 34 33 
48 51 50 46 48 54 52 47 52 55 58 56 54 56 59 62 76 90 103 106 105 95 72 48 42 43 39 38 41 40 35 32 27 27 27 27 26 24 25 27 24 26 26 25 25 28 32 34 23 24 23 22 23 23 22 19 19 20 20 21 20 18 18 16 21 19 14 10 8 13 34 60 89 106 122 131 134 135 128 117 110 100 86 74 65 55 54 62 64 60 58 55 54 60 62 58 56 59 60 57 59 62 51 31 27 47 57 54 52 56 59 60 56 62 69 80 52 8 14 39 41 
45 45 47 48 49 48 46 46 48 50 50 47 48 51 53 52 55 50 51 58 65 73 89 105 112 102 87 66 45 35 35 36 28 29 32 33 32 28 26 27 32 32 28 23 23 28 28 25 31 29 25 26 31 28 23 21 23 23 21 20 21 22 23 24 24 20 22 25 22 18 15 13 13 10 10 15 24 42 73 100 111 119 129 130 128 128 119 106 66 51 51 60 57 50 51 54 57 52 53 57 60 60 56 51 48 52 57 58 57 58 56 51 55 58 61 75 66 25 11 30 41 
44 43 42 43 45 45 45 45 44 46 49 49 47 46 46 47 51 54 54 51 50 52 52 50 55 61 76 93 97 93 81 68 49 45 40 36 31 28 29 32 30 30 31 30 30 29 28 26 34 29 22 22 27 28 25 25 22 24 26 24 20 18 20 21 22 26 25 19 18 20 22 25 27 23 17 17 27 33 21 5 2 7 14 19 31 55 72 75 78 87 96 93 84 89 102 104 86 81 76 71 61 57 58 62 63 60 60 61 58 57 58 58 60 56 59 73 77 45 15 26 41 
45 42 41 42 42 40 40 41 44 40 40 43 45 45 44 45 48 47 46 47 48 50 50 51 54 54 51 49 52 57 65 76 97 97 96 90 76 56 39 31 35 26 20 22 24 25 29 35 30 29 26 24 25 28 28 25 24 25 25 25 24 24 25 26 28 21 22 26 23 20 21 22 24 24 22 23 31 37 32 23 19 19 19 20 18 11 10 18 12 25 47 65 71 77 88 94 102 105 110 112 114 113 99 81 65 62 61 60 57 56 56 55 58 52 61 73 75 46 12 19 32 
45 39 37 40 43 42 40 39 39 39 41 43 44 44 44 46 47 47 47 46 44 43 46 49 47 50 48 49 50 47 48 53 51 53 59 68 78 87 98 106 93 72 46 31 25 24 25 27 31 26 26 28 28 28 28 24 27 23 21 21 24 27 27 27 24 20 24 29 26 27 29 24 22 25 23 21 27 33 32 25 21 25 23 22 22 21 23 27 25 15 12 16 16 10 8 12 18 28 47 65 75 81 87 90 101 102 99 96 97 97 87 73 64 58 63 69 63 36 9 9 19 
53 52 47 43 41 43 43 41 39 40 40 39 38 38 39 40 39 40 41 41 40 42 45 46 46 43 46 49 45 42 42 42 43 43 45 47 47 46 46 48 64 87 110 118 110 92 70 52 31 16 13 20 22 21 23 21 27 26 24 23 22 22 21 21 23 25 22 21 26 25 24 30 25 28 24 20 26 36 35 27 23 19 20 25 25 23 23 21 22 21 20 21 21 17 14 16 17 15 17 18 16 17 21 24 36 52 60 60 71 90 99 97 91 86 78 63 39 16 12 17 17 
47 50 52 53 55 49 43 44 42 40 38 40 38 37 38 40 38 38 37 35 37 41 42 41 39 39 39 40 42 43 43 43 44 45 45 46 45 44 43 42 43 48 45 46 56 64 71 82 114 110 103 84 56 39 33 31 21 26 26 21 21 25 26 24 22 26 28 25 23 25 27 27 24 24 24 24 24 24 26 29 23 21 21 23 24 22 21 23 23 19 17 18 19 19 20 21 17 17 17 17 17 17 18 18 13 9 8 10 14 17 25 34 42 48 45 30 16 14 17 17 18 
34 35 40 42 42 50 55 50 52 52 49 44 42 40 38 38 33 35 37 38 36 34 34 35 37 37 36 35 37 38 39 39 39 40 41 43 43 44 43 43 46 48 43 40 44 43 42 46 45 43 51 69 87 102 104 97 88 72 56 47 39 30 22 21 28 25 23 23 25 26 25 25 24 25 24 25 29 32 31 28 27 25 22 22 26 28 25 20 19 21 20 17 18 21 22 19 14 14 15 16 16 17 20 20 22 18 17 18 20 21 28 37 30 22 18 19 20 19 20 21 19 
