P2
121 46
163
72 109 110 106 115 113 112 113 111 106 104 107 107 104 104 103 96 88 72 57 50 57 57 55 68 96 100 73 47 56 62 60 58 56 55 54 46 45 47 50 48 44 44 48 54 55 64 74 77 81 88 92 94 97 98 99 100 102 102 99 93 93 93 94 95 97 99 99 101 100 92 83 82 83 72 56 49 41 40 38 35 31 24 22 21 23 22 22 23 23 21 19 23 25 23 21 22 22 22 22 24 24 20 16 18 21 20 20 20 19 20 21 20 20 21 18 16 17 18 19 20 
82 125 121 112 115 117 119 120 116 113 123 141 128 111 108 113 115 116 113 109 112 113 108 101 97 98 97 88 76 76 84 76 62 58 58 55 55 58 57 53 51 51 49 48 50 46 41 41 46 49 47 45 47 49 55 62 68 75 80 80 87 86 86 91 96 99 96 92 97 96 96 95 94 99 105 104 101 102 101 96 91 83 75 72 72 61 44 29 21 21 25 27 23 17 14 17 20 20 21 23 22 18 18 22 21 20 21 21 16 19 20 19 20 21 20 19 18 20 21 19 18 
75 119 119 109 109 112 114 115 114 110 109 112 113 107 110 113 112 113 112 110 109 113 113 110 110 113 112 107 103 109 116 116 104 90 92 93 83 80 67 54 54 56 56 56 50 51 51 51 51 49 47 45 48 52 50 44 44 48 44 33 40 43 47 50 55 60 66 71 73 66 65 71 72 69 75 84 98 100 96 97 100 98 98 100 98 98 99 100 99 97 93 87 71 68 63 56 47 37 29 23 28 30 24 19 24 27 24 23 27 24 23 23 25 23 20 22 21 23 21 20 20 
67 111 119 113 114 112 112 115 115 110 110 115 112 108 109 112 112 112 110 110 110 110 112 114 112 111 113 115 110 101 89 84 101 113 111 114 115 101 111 125 114 99 92 83 82 71 63 64 65 62 57 52 47 53 57 54 48 45 46 48 40 45 49 46 40 36 37 41 35 36 33 50 74 71 59 64 90 98 97 97 98 98 99 100 104 98 97 101 101 99 100 102 100 101 103 104 105 107 109 107 99 89 91 82 48 20 18 28 26 26 28 28 26 24 25 23 25 25 23 20 19 
65 107 113 110 113 112 112 112 112 112 111 108 112 113 114 113 113 113 111 110 112 114 114 111 110 112 112 109 103 96 99 107 95 79 87 94 105 112 107 91 86 97 108 109 102 110 115 112 105 92 80 77 83 84 78 65 59 62 63 58 49 49 49 49 49 48 47 46 52 48 51 58 61 65 60 46 33 36 41 47 52 58 68 75 82 86 90 92 96 99 98 97 101 101 103 103 101 101 102 101 101 104 106 105 87 40 5 10 21 21 20 24 24 21 24 23 26 25 24 24 24 
62 103 113 107 112 114 115 112 111 114 121 125 119 113 112 114 113 112 111 114 114 116 115 113 114 114 112 112 114 112 105 92 89 85 79 84 107 116 100 89 104 109 92 82 94 101 91 80 90 103 104 104 111 112 112 108 104 100 95 89 83 81 77 73 70 68 67 68 62 69 80 81 68 58 56 55 52 50 51 49 48 49 47 43 44 45 45 45 47 53 65 78 73 79 85 87 90 94 96 95 95 97 96 97 99 80 36 2 7 19 21 20 19 21 24 21 19 19 20 22 23 
61 103 119 110 115 132 144 147 148 144 135 124 125 121 120 118 118 119 116 113 113 113 114 111 112 114 113 114 112 109 104 98 87 79 87 93 79 83 91 93 91 95 88 69 82 87 78 67 77 95 96 84 45 54 78 101 102 92 96 112 105 106 104 101 94 88 86 85 81 77 80 82 74 66 64 65 56 48 48 50 50 50 51 52 49 50 50 49 48 47 47 47 48 48 47 49 53 57 60 62 67 81 96 101 99 96 68 17 0 7 12 12 13 15 16 18 16 18 20 19 19 
57 101 116 110 109 90 64 63 88 114 132 140 136 122 109 104 107 110 112 116 112 108 110 108 103 100 100 101 102 100 92 83 89 95 100 103 106 103 105 107 96 78 68 69 74 79 87 85 83 98 103 84 73 82 78 62 61 77 83 77 80 78 76 82 91 98 101 100 104 105 97 90 93 94 91 92 86 83 75 61 51 50 49 43 41 41 43 41 40 44 46 44 48 48 47 47 45 41 41 46 43 37 59 95 105 101 83 36 0 5 15 14 11 12 12 14 16 19 20 19 20 
56 100 117 105 103 88 35 0 1 5 5 3 31 92 125 117 111 115 128 146 152 149 145 137 121 115 114 111 113 108 101 97 99 97 96 97 96 99 99 78 62 69 73 68 70 80 100 101 88 96 105 94 59 58 68 78 86 87 81 84 82 85 80 83 94 86 67 61 85 108 110 103 103 102 103 105 105 103 105 106 106 104 101 100 93 83 76 72 67 61 56 51 43 36 39 41 40 41 43 45 44 47 64 91 103 103 93 56 5 2 13 10 9 16 18 15 17 17 18 18 17 
51 97 118 108 106 90 41 8 19 31 24 20 16 28 84 121 116 104 66 12 11 69 108 130 142 140 135 118 104 105 108 104 106 108 101 98 94 87 82 87 89 86 87 81 88 89 83 70 77 105 113 93 91 88 87 74 64 68 78 91 99 84 73 83 95 85 71 73 92 102 105 104 104 102 103 107 107 105 106 108 108 107 108 109 106 109 107 105 108 106 104 106 96 80 77 87 76 60 59 56 48 53 76 106 111 105 96 62 12 1 10 14 13 16 17 16 16 16 18 19 18 
49 93 114 103 102 88 37 18 68 96 79 67 60 35 36 82 120 114 73 28 3 4 5 5 3 18 75 113 123 108 106 111 110 107 115 141 148 143 132 125 114 103 101 96 99 96 94 96 97 94 92 94 93 92 97 86 76 81 86 87 92 75 81 112 124 104 94 105 104 106 108 110 109 108 107 108 108 108 109 109 109 108 108 109 107 107 108 106 104 104 102 99 96 88 95 105 111 112 109 110 108 103 97 103 107 105 99 71 17 3 12 15 9 12 17 19 17 17 17 16 16 
43 96 122 109 104 94 47 26 75 111 107 99 90 56 24 53 106 122 84 22 14 47 55 38 26 8 19 70 124 126 114 106 107 136 131 62 2 3 43 93 118 116 103 102 104 105 100 95 100 105 104 101 98 95 103 100 93 95 88 77 69 83 82 62 57 79 91 85 86 109 115 108 112 112 108 110 111 110 110 109 108 108 108 109 111 111 109 109 111 113 119 130 129 102 93 106 109 104 109 110 109 108 107 110 109 107 97 63 18 4 14 19 16 19 17 13 13 14 15 16 18 
40 89 118 112 104 93 41 17 66 110 109 102 100 82 34 31 89 118 81 27 28 79 100 87 78 67 37 24 76 117 122 107 114 91 26 1 3 8 13 11 45 110 134 115 108 106 107 108 106 103 105 111 107 108 118 119 114 115 111 108 101 100 101 98 92 88 84 78 86 96 104 106 101 104 111 107 107 107 108 108 108 109 110 110 113 109 112 113 109 109 108 103 101 103 99 105 112 110 111 110 113 109 106 108 108 108 101 71 16 1 10 15 12 13 12 12 16 15 16 18 19 
33 84 116 109 104 96 49 23 83 138 123 107 111 95 33 18 82 125 93 31 28 83 109 106 98 97 77 37 32 90 118 107 88 45 1 3 30 44 39 18 8 43 97 122 107 104 106 110 109 107 108 109 110 113 121 124 131 138 137 139 133 131 126 122 114 105 101 103 100 108 108 107 104 99 100 101 101 102 105 106 107 108 108 107 106 113 112 109 112 113 109 110 101 87 97 112 113 110 110 114 110 110 108 111 112 110 100 75 17 1 9 14 12 13 13 15 16 16 16 16 16 
29 74 110 108 104 90 47 14 59 128 148 153 155 90 10 18 84 114 87 34 25 82 113 106 100 98 88 49 23 61 111 113 73 20 8 53 89 96 80 51 23 28 76 118 113 105 103 107 106 102 103 107 105 82 43 7 8 25 35 49 85 98 106 109 111 105 100 104 108 113 118 126 129 119 115 116 112 113 112 110 108 108 108 107 105 106 110 110 108 107 108 109 107 102 101 112 117 114 115 113 113 109 110 111 109 108 101 71 18 1 11 17 14 16 17 17 15 16 17 16 14 
28 71 109 112 106 98 57 8 1 8 4 5 8 10 16 46 86 109 87 35 24 78 126 116 106 104 100 70 30 55 105 110 68 18 22 77 107 100 100 89 50 6 23 89 121 112 103 103 107 109 108 109 105 91 53 13 12 21 16 19 19 15 16 50 104 128 118 111 123 133 128 115 118 125 118 105 106 109 111 111 111 112 114 114 115 117 120 122 126 130 130 128 121 118 120 117 115 118 117 117 114 111 110 112 111 110 102 73 18 0 12 20 16 16 17 17 18 17 17 18 17 
29 69 110 113 108 98 65 15 6 27 25 13 17 22 32 61 96 119 99 40 15 68 135 162 151 149 124 61 7 54 96 102 66 20 27 75 106 100 97 96 76 25 5 45 108 112 105 104 103 106 107 100 104 95 62 10 6 33 38 15 19 22 26 54 102 114 99 109 115 65 3 0 16 82 117 112 103 104 107 112 110 108 109 118 134 138 134 115 105 108 118 116 117 120 115 113 115 113 111 113 112 113 112 113 110 111 104 68 16 2 10 16 15 14 12 13 17 19 18 15 15 
21 65 105 104 103 103 61 16 41 81 75 66 57 41 24 60 114 124 93 57 11 6 5 23 63 84 51 2 22 70 108 109 68 14 24 85 116 108 100 99 99 83 64 75 93 106 104 102 104 106 104 104 102 97 67 17 23 72 99 89 77 71 71 81 93 106 108 100 69 16 6 18 32 74 115 108 102 106 106 109 107 105 106 89 62 62 100 122 116 111 111 109 115 112 112 115 123 130 125 116 114 112 112 114 110 109 104 75 18 3 12 19 16 14 14 15 14 14 17 19 17 
23 57 100 112 116 101 66 18 27 93 119 99 89 92 48 18 65 128 119 58 11 11 24 19 11 12 12 24 51 84 103 101 71 14 14 79 115 102 98 101 101 103 101 101 104 104 107 113 110 107 106 104 106 102 69 13 21 80 113 102 96 99 92 95 104 106 106 97 69 23 7 14 34 75 111 111 105 106 108 107 109 112 96 48 3 12 72 115 115 107 107 113 108 116 123 137 141 137 139 136 117 111 108 113 115 112 102 72 20 1 5 13 13 13 11 11 14 13 14 16 17 
16 51 97 114 99 108 76 21 36 99 120 112 105 105 74 28 30 99 122 60 14 33 79 85 61 35 20 41 89 106 101 96 80 22 12 74 113 107 98 102 108 107 103 107 110 109 107 111 123 136 130 108 96 101 82 33 31 85 138 153 145 125 104 104 110 111 109 102 83 36 19 30 27 71 119 120 108 106 110 108 106 106 80 30 6 43 90 109 107 105 108 109 109 117 115 56 7 1 26 95 123 113 106 111 112 109 103 79 21 1 5 14 12 11 12 11 10 12 14 13 14 
21 51 95 113 98 104 74 19 27 86 107 99 99 103 89 38 13 78 121 67 24 49 91 98 90 63 29 49 102 120 107 95 81 22 9 74 114 106 96 101 105 106 107 105 106 104 108 103 65 26 50 99 115 101 72 21 1 11 35 46 77 119 135 112 105 110 107 111 100 89 72 35 16 64 117 118 109 109 109 112 110 100 62 12 22 72 107 112 107 107 110 108 111 92 38 0 8 23 36 74 117 114 110 111 111 112 106 79 22 0 4 13 10 9 14 14 12 13 14 14 15 
26 44 86 113 102 94 79 34 27 96 152 159 133 129 99 48 24 72 108 75 30 45 95 113 105 82 36 21 92 121 113 99 83 27 12 72 113 115 104 103 107 105 104 107 106 107 111 104 63 17 43 103 117 104 77 29 5 7 17 18 15 40 101 130 113 105 109 111 110 103 85 36 14 61 107 113 106 108 107 107 105 87 38 4 28 86 115 109 105 108 107 107 103 88 39 4 15 26 46 89 117 114 108 107 111 114 106 74 21 0 2 10 7 6 12 14 14 13 12 13 15 
16 40 89 119 105 109 84 28 8 34 64 88 125 133 83 13 14 88 122 79 25 29 91 119 101 91 58 18 61 104 110 97 81 29 11 62 110 109 104 104 104 107 108 103 101 105 107 103 84 55 62 96 116 106 76 22 1 11 27 29 23 13 41 98 126 116 105 110 105 111 90 32 4 58 105 116 106 103 106 106 101 65 18 16 66 103 109 102 105 109 108 113 109 92 59 27 19 14 34 91 129 119 109 113 116 115 108 80 22 0 0 9 10 9 12 10 12 13 14 14 15 
22 40 84 115 120 104 86 40 0 0 8 5 3 6 7 23 58 98 105 69 16 31 94 122 108 98 71 35 38 98 117 105 84 32 17 64 117 112 102 103 109 118 133 142 125 99 94 102 104 98 99 102 106 104 93 57 41 54 78 88 73 25 4 63 123 121 104 103 108 104 88 37 6 48 106 116 103 103 105 105 91 33 1 22 90 116 113 108 108 108 110 109 105 98 90 84 56 14 28 92 130 118 106 109 115 116 109 80 22 0 0 8 8 8 12 10 13 11 10 11 14 
22 26 60 106 124 122 103 80 70 65 58 57 40 35 45 64 86 104 97 72 16 30 88 123 108 102 92 54 17 73 114 103 93 54 9 45 117 129 103 93 102 75 22 17 74 111 107 101 104 105 105 107 105 106 100 98 98 101 104 98 90 62 21 31 92 121 110 103 105 105 94 44 0 39 104 120 104 103 112 104 59 6 9 68 112 128 139 151 139 110 98 107 108 107 105 98 65 12 22 90 123 115 107 111 114 114 105 74 22 0 2 12 12 10 10 12 12 12 11 13 14 
28 23 54 100 128 132 112 89 93 107 104 93 91 82 81 89 100 110 101 79 12 29 82 117 109 103 97 75 21 39 98 120 98 61 19 8 65 133 134 108 114 80 12 3 65 112 114 103 103 105 104 104 101 107 103 103 106 104 104 106 98 87 38 18 73 119 113 98 104 107 96 47 3 38 105 123 105 100 105 92 43 10 33 90 105 63 9 13 79 123 114 107 109 109 112 104 63 7 18 89 125 115 108 112 115 114 106 78 25 2 8 17 12 11 12 10 10 11 13 14 15 
46 49 56 70 97 132 157 154 139 120 112 113 98 101 108 109 106 107 106 98 86 75 87 107 110 110 103 85 36 21 75 119 103 85 56 7 5 67 138 158 107 30 0 30 86 108 103 101 103 101 102 108 104 102 115 128 118 111 112 100 107 88 33 10 60 113 118 105 106 104 97 57 9 35 100 119 101 101 102 62 7 7 59 101 106 71 16 10 76 126 118 108 111 111 111 102 62 6 15 84 123 114 107 110 111 110 107 83 28 0 4 16 12 11 14 11 14 15 16 17 17 
21 22 28 38 81 98 116 131 142 143 145 152 161 147 130 116 111 112 111 106 108 98 103 110 105 105 107 99 77 54 70 101 105 104 83 35 11 4 4 4 7 11 25 57 97 106 100 100 102 102 104 104 103 101 107 121 124 125 124 110 100 92 43 14 60 111 116 105 105 106 97 54 5 33 101 119 102 103 88 31 3 32 85 105 94 61 20 26 82 117 111 100 108 108 106 102 66 7 15 87 126 115 105 110 115 116 108 80 23 0 4 14 12 11 11 10 12 14 16 14 12 
18 18 16 16 21 67 101 107 104 101 104 110 122 130 142 155 163 162 155 152 142 120 113 114 110 109 93 62 34 47 65 91 105 102 97 90 44 10 8 17 14 20 49 83 100 105 104 105 105 106 110 109 104 105 99 55 1 23 96 131 110 106 47 8 60 115 113 96 104 104 94 56 8 25 90 119 109 96 70 14 0 63 126 126 105 70 12 6 70 114 108 99 106 109 107 104 69 9 17 87 125 113 102 107 114 116 105 73 23 1 3 13 13 12 11 11 10 11 12 13 14 
20 21 21 19 16 15 13 27 61 84 90 90 87 99 107 108 105 105 118 139 149 143 153 159 148 128 90 45 3 2 10 52 96 106 100 98 94 83 73 63 65 72 82 98 101 100 99 104 106 104 106 108 110 111 98 68 24 9 70 149 153 82 4 0 65 115 116 104 103 107 105 66 11 24 89 117 102 93 62 17 7 64 121 151 152 105 28 1 76 146 138 108 102 109 110 106 69 10 17 82 122 114 106 109 113 114 108 80 31 4 6 16 15 13 13 12 14 14 14 15 15 
18 17 19 20 22 17 11 14 18 11 10 21 32 46 60 77 92 92 93 104 98 99 105 111 116 125 136 138 101 79 68 84 105 111 105 104 101 95 95 96 93 95 98 104 103 104 104 103 105 106 108 106 105 106 104 97 66 20 4 11 12 12 17 34 66 98 110 105 103 103 102 63 4 17 85 120 112 102 74 23 0 4 9 6 5 7 11 20 61 111 129 118 106 107 108 104 67 8 16 87 118 110 103 107 110 111 106 80 21 0 6 15 12 11 13 11 14 14 14 15 17 
22 22 22 20 25 26 19 15 23 25 20 18 15 13 5 3 11 15 29 52 70 88 101 106 104 103 117 141 154 148 152 154 153 155 154 156 151 152 135 113 108 109 102 102 102 99 104 106 104 101 103 104 101 108 106 105 87 43 14 14 23 18 23 57 97 107 101 105 105 105 101 63 9 15 77 122 114 102 77 21 2 5 12 9 12 20 22 18 19 32 77 119 112 109 109 105 73 12 10 79 124 112 102 105 109 110 105 79 26 1 6 17 14 12 14 14 14 15 15 15 14 
22 21 19 18 19 19 19 22 23 21 20 21 18 18 18 19 20 20 19 19 14 12 12 16 28 47 65 77 94 107 118 115 106 101 103 108 112 120 133 144 148 150 153 154 141 123 108 107 102 91 89 96 96 95 100 103 103 97 83 58 49 62 77 83 92 101 104 104 101 104 106 73 15 15 75 117 108 101 101 95 85 82 77 66 54 43 32 23 17 39 83 112 113 111 108 103 72 15 12 75 117 111 105 108 111 112 106 76 25 0 8 16 13 14 12 12 18 18 17 16 14 
21 23 22 21 15 18 17 15 16 19 20 18 21 22 22 22 21 21 17 16 15 15 16 15 15 16 16 14 9 11 29 53 67 78 95 108 105 104 104 104 104 104 107 109 130 142 146 145 145 147 140 129 112 102 101 102 105 103 99 95 93 94 98 99 103 108 108 105 103 107 102 71 14 14 77 119 112 103 104 102 99 98 98 94 89 70 36 21 39 68 89 104 104 102 103 100 69 9 9 74 120 112 105 108 109 108 103 74 19 0 2 10 9 9 11 10 16 16 16 16 17 
24 24 21 19 20 19 18 17 18 18 18 19 17 18 20 21 22 21 20 20 18 21 23 20 19 20 20 19 16 15 12 11 12 11 11 16 30 49 68 79 89 101 107 106 104 105 105 104 109 120 134 141 150 152 154 153 149 131 113 108 106 101 100 100 102 104 105 105 108 108 98 86 64 63 90 115 111 109 107 109 110 109 105 99 101 91 37 5 52 109 116 101 104 105 105 100 70 20 22 83 124 114 104 111 114 108 105 81 25 2 4 13 13 12 14 14 18 18 17 16 15 
35 32 30 29 31 27 24 23 22 20 18 20 20 19 19 19 19 19 20 20 20 21 22 21 21 21 20 17 16 18 21 19 14 13 15 15 12 10 11 13 14 18 28 40 58 72 90 104 112 114 114 112 112 108 104 113 126 139 150 147 152 151 146 134 122 113 107 106 102 100 95 59 15 25 54 72 99 110 105 104 107 105 105 107 104 91 41 13 57 112 118 100 101 105 109 102 67 17 22 80 120 113 102 108 112 109 106 80 25 2 8 13 10 12 12 12 12 12 13 14 16 
44 40 38 37 35 34 29 23 22 23 22 19 23 22 21 20 19 18 17 18 19 21 23 24 22 22 22 22 21 20 20 19 16 13 15 18 18 14 13 17 20 17 13 14 11 13 14 17 29 50 68 77 96 114 107 103 107 104 104 107 108 111 121 134 149 157 156 156 151 134 104 58 15 2 1 23 83 113 112 107 109 108 109 111 111 87 56 46 70 104 114 104 109 104 106 99 61 9 13 70 123 118 106 107 110 109 103 74 19 0 8 15 10 11 12 13 16 16 16 17 17 
61 61 57 53 43 38 33 30 29 29 28 26 23 22 23 22 22 21 19 19 22 20 19 18 18 20 21 23 21 23 22 20 23 23 22 24 18 21 19 14 18 21 20 14 21 17 15 15 14 10 9 10 10 13 25 47 60 70 83 97 110 107 107 104 101 103 106 109 117 137 142 116 90 91 90 84 101 116 109 103 105 102 102 103 107 101 100 95 89 99 111 108 107 108 112 102 65 22 27 73 113 112 104 106 109 108 104 79 23 0 3 12 10 8 12 14 14 15 15 16 17 
74 78 78 76 72 65 59 56 50 39 31 28 32 32 30 28 28 26 24 23 23 24 23 21 20 19 19 19 22 21 21 20 19 21 21 19 20 20 21 21 20 19 20 23 17 18 18 18 19 19 17 15 18 18 17 13 8 11 17 25 28 41 59 67 71 85 101 111 107 109 124 148 156 153 149 146 151 154 154 151 153 153 143 125 114 103 100 103 101 101 104 104 112 109 109 106 98 80 70 80 102 106 105 108 110 107 102 79 19 1 4 13 13 13 14 12 14 14 15 15 16 
54 60 67 72 72 74 75 75 74 70 62 54 45 43 39 35 34 33 32 32 27 29 27 24 22 22 21 18 23 23 22 21 21 20 18 20 25 23 21 20 20 21 23 24 22 20 20 21 21 19 19 20 18 20 18 18 19 27 32 31 29 29 29 24 17 16 19 27 52 65 78 93 110 119 131 141 122 102 103 105 108 120 134 137 147 150 151 152 149 137 123 118 109 105 104 102 101 97 94 104 104 103 104 113 115 106 95 71 22 1 10 16 11 11 11 13 16 16 16 17 17 
32 36 39 41 48 52 58 65 70 74 75 76 77 73 66 58 51 44 37 35 34 31 24 21 23 22 20 20 21 22 23 23 22 22 23 23 22 21 20 20 21 22 22 22 23 23 25 26 25 25 24 24 23 20 20 21 29 34 32 31 31 31 28 25 22 18 16 16 15 16 15 10 12 30 54 61 75 85 93 99 103 103 103 106 102 100 101 112 128 137 148 160 152 152 155 153 136 113 102 104 102 96 104 125 119 101 89 63 16 5 13 17 15 16 12 15 17 17 15 15 16 
23 25 27 29 34 35 38 43 47 51 54 56 61 63 65 69 71 71 70 69 61 51 45 40 33 29 29 28 24 24 24 24 23 21 20 21 21 20 20 21 23 23 23 22 21 21 21 21 19 18 18 17 22 20 22 24 25 25 25 25 31 30 26 23 21 19 19 19 17 17 15 14 14 17 19 13 13 12 9 20 43 55 62 72 92 96 100 100 101 103 103 100 100 108 120 132 139 143 145 147 151 155 154 132 96 85 73 34 6 11 18 14 12 14 12 13 13 14 15 16 18 
22 22 22 23 25 24 23 24 27 31 34 37 44 45 48 52 57 61 65 67 66 67 63 57 54 51 46 40 34 31 29 29 25 20 20 23 20 19 18 19 20 21 20 20 21 21 20 20 21 22 23 23 19 20 21 21 20 21 23 21 24 23 22 21 21 21 19 18 17 17 17 19 19 20 20 17 20 18 16 15 15 14 12 11 10 20 34 46 56 74 85 84 97 97 99 101 99 97 102 109 112 111 104 94 93 87 52 10 2 11 15 12 12 14 13 14 17 18 19 20 20 
29 28 27 27 23 23 24 25 27 27 25 24 29 29 28 30 34 40 48 51 53 57 59 59 59 62 63 62 62 57 52 48 44 37 34 33 30 28 24 22 21 21 21 21 24 24 22 21 22 22 23 24 25 25 21 21 22 19 18 18 21 21 20 20 19 20 20 21 17 18 18 16 13 12 15 19 17 18 16 16 18 16 14 17 19 16 13 11 8 9 13 15 29 37 47 56 69 82 86 84 90 91 90 91 85 48 9 2 10 13 15 17 18 17 20 24 27 26 24 23 22 
33 32 31 31 31 27 23 21 23 25 26 27 26 26 26 25 26 26 27 27 33 36 40 45 48 50 54 57 57 59 60 58 58 58 57 55 45 41 37 33 33 32 29 28 25 24 22 20 19 19 20 20 24 20 12 13 18 21 22 21 21 20 18 18 19 20 19 18 19 20 20 18 19 19 18 17 19 19 17 16 19 18 18 21 18 15 12 14 17 14 14 19 17 11 10 15 16 18 30 47 67 61 66 61 31 11 13 17 15 15 16 18 19 22 25 28 29 31 35 38 39 
30 30 30 31 28 27 27 28 30 28 25 22 22 23 23 24 24 23 22 22 24 27 28 29 32 34 35 36 44 46 49 52 55 56 57 58 55 54 52 51 51 48 44 41 34 33 31 29 27 26 26 26 22 24 22 21 20 20 21 20 21 20 20 20 21 22 20 19 21 23 24 22 21 22 21 20 21 21 24 26 23 21 21 21 18 20 18 19 23 20 16 17 18 18 18 19 20 21 18 15 9 11 11 11 12 13 16 18 17 17 17 14 15 18 17 17 25 25 25 26 28 
