P2
121 46
187
43 40 41 45 45 40 46 43 41 82 143 175 156 150 152 151 153 154 153 149 147 145 144 144 143 139 137 137 134 126 121 118 111 101 94 90 80 74 82 94 93 89 92 96 94 96 101 99 106 133 139 116 114 129 116 91 84 80 65 54 49 49 38 25 23 21 19 27 24 24 23 22 24 24 25 26 26 23 22 26 31 27 27 35 33 33 35 37 38 38 39 44 46 46 46 47 48 48 49 50 54 55 54 56 57 57 59 58 56 57 55 53 54 53 51 51 53 56 58 61 63 
44 41 38 38 43 47 50 37 43 97 149 158 149 150 151 152 157 158 155 152 140 131 124 124 124 125 129 129 128 128 128 124 120 116 105 91 64 65 87 110 113 111 113 110 107 105 98 94 98 100 97 95 92 96 104 108 103 101 105 108 104 103 104 104 95 88 84 70 61 54 44 36 34 31 25 21 24 21 20 21 23 25 24 24 28 26 26 27 28 30 30 33 33 35 36 37 37 38 39 40 44 46 50 49 47 48 47 49 51 48 50 51 47 47 51 52 51 50 50 51 52 
44 41 45 51 45 41 43 39 55 106 151 156 153 154 153 151 152 156 156 154 154 155 150 147 149 147 139 133 128 125 122 118 117 119 111 98 69 67 90 119 125 118 117 121 124 123 121 121 123 117 111 110 115 113 105 102 104 102 98 100 99 96 96 92 102 110 101 96 109 106 101 100 101 99 94 90 82 63 44 33 28 28 29 26 23 20 21 21 22 21 19 20 23 23 25 27 29 30 30 30 27 24 27 29 32 35 35 39 38 38 38 39 43 43 43 45 47 48 48 49 51 
47 44 44 47 49 48 49 43 48 93 146 167 164 155 152 155 154 155 152 151 153 157 160 161 159 159 159 158 156 155 154 152 148 143 130 115 91 91 103 116 118 114 115 116 119 121 121 123 129 131 130 131 129 130 128 124 123 125 123 120 116 110 111 111 103 100 102 102 94 95 95 95 95 98 99 101 108 113 122 141 154 141 108 85 71 75 76 66 61 59 48 35 24 18 15 19 21 21 20 20 24 24 23 26 27 26 28 28 27 28 30 31 33 33 35 38 36 35 35 36 38 
38 41 43 41 40 43 47 40 51 99 144 152 144 151 148 147 152 152 152 150 149 154 157 158 158 157 156 158 161 160 160 159 158 156 152 150 150 153 157 157 157 157 151 141 139 139 134 128 121 120 121 119 117 123 124 125 126 130 134 132 132 129 128 131 128 124 124 122 118 115 111 110 108 100 97 104 107 101 98 96 105 112 103 98 101 103 105 106 106 108 112 115 124 124 106 77 61 57 51 46 41 28 19 19 17 20 24 27 21 25 20 23 25 21 24 23 20 21 22 23 24 
40 41 41 41 36 45 47 45 55 97 142 146 142 142 148 154 149 144 148 144 152 156 156 155 159 160 156 160 158 159 162 165 165 161 154 148 151 135 114 116 132 136 137 149 155 149 150 157 160 157 152 150 152 144 141 140 136 133 129 123 121 125 124 125 130 128 128 130 129 126 125 123 120 118 116 112 99 84 79 93 96 93 99 99 98 99 100 100 101 102 105 106 125 146 146 115 104 134 140 107 98 103 98 77 39 15 17 24 21 28 22 21 23 21 22 21 20 20 21 22 22 
41 40 39 39 41 44 40 39 50 97 149 152 146 145 145 150 150 147 149 145 149 153 160 159 161 164 161 160 164 163 163 165 167 166 162 158 152 133 130 151 155 129 119 137 141 147 144 135 124 129 142 144 136 142 151 158 160 153 144 145 144 142 137 135 132 129 128 126 120 120 119 119 120 118 112 108 94 62 53 95 129 124 119 125 123 122 120 118 117 116 115 115 113 113 113 112 115 120 122 121 120 128 123 123 121 80 20 0 9 25 27 24 24 22 22 24 23 23 23 23 23 
41 41 41 43 43 43 39 38 54 100 144 150 142 142 146 150 148 157 169 160 134 111 104 115 128 129 128 142 150 154 160 167 171 169 162 157 165 160 151 146 135 105 91 102 143 152 140 136 149 156 148 131 130 145 141 116 114 140 152 144 148 155 159 156 151 151 151 149 142 139 135 135 133 124 118 120 119 122 120 110 112 119 117 122 125 124 125 126 130 132 133 132 128 129 125 124 128 129 129 130 129 126 130 133 136 124 68 7 2 15 22 22 23 23 24 26 26 26 27 27 28 
36 38 39 39 36 39 40 38 54 105 149 148 149 150 148 167 183 163 136 128 147 171 172 145 136 143 141 142 141 137 131 125 123 126 132 135 138 144 124 110 125 133 134 148 152 147 156 152 141 145 147 141 142 141 138 135 133 137 144 146 137 113 108 129 143 144 142 142 142 141 145 147 145 145 144 138 136 124 126 129 126 125 122 122 118 117 118 120 123 125 125 124 128 128 130 132 132 132 134 136 136 138 137 139 140 139 103 34 3 4 12 16 16 19 21 21 23 23 23 23 24 
36 38 39 38 39 37 37 38 47 97 152 154 146 152 161 126 46 0 2 0 9 73 140 156 138 135 145 146 145 154 165 170 167 162 157 155 141 117 103 111 116 112 118 135 146 151 146 145 138 133 135 118 116 131 139 140 139 139 143 144 128 116 109 123 136 125 119 134 131 116 115 124 124 123 133 144 142 121 117 145 160 150 147 149 148 147 146 145 143 141 138 137 134 135 132 129 132 133 134 139 141 142 141 142 142 145 117 48 1 3 20 27 21 21 23 24 17 17 18 19 21 
34 33 34 36 33 37 31 32 59 116 161 156 147 159 130 54 1 14 39 27 11 7 48 118 150 144 113 61 0 0 1 5 21 54 93 121 141 147 159 167 165 158 142 124 122 116 111 88 82 103 111 116 116 128 134 123 115 134 154 157 140 124 131 143 134 123 130 142 133 124 123 125 122 122 134 144 128 102 85 111 146 150 148 150 148 149 150 150 148 147 146 146 147 144 144 147 145 139 138 143 144 146 146 145 145 144 116 59 1 8 29 34 29 29 30 31 30 30 29 28 26 
31 29 34 41 38 34 30 32 64 121 152 144 146 124 51 3 44 108 128 112 67 19 5 76 148 153 99 25 0 9 18 18 11 7 11 17 78 135 92 14 51 139 160 142 141 147 154 162 168 160 142 132 125 119 116 110 107 116 128 134 120 125 141 145 119 89 97 133 136 128 126 125 122 133 147 147 124 123 131 132 136 148 150 147 150 151 152 151 149 146 146 146 142 144 148 149 145 138 138 144 145 145 143 145 144 142 111 37 1 5 17 19 23 30 26 24 28 29 31 33 33 
31 32 32 35 32 34 35 38 72 125 149 147 143 95 22 32 114 154 146 136 124 64 7 50 125 154 108 38 29 84 87 60 58 54 46 52 100 130 88 9 23 110 155 150 139 143 118 47 31 105 151 146 140 141 141 142 143 143 142 148 145 139 128 113 111 114 110 114 117 87 79 117 129 112 123 141 133 129 130 131 140 152 152 149 152 153 153 153 150 147 145 142 146 147 148 150 141 130 135 143 147 144 144 144 146 142 101 27 1 12 22 23 24 25 25 26 31 31 29 28 27 
33 34 34 34 34 36 33 38 78 135 151 146 132 79 19 50 129 153 140 134 132 84 21 40 120 147 82 21 49 124 153 147 135 118 120 126 131 114 60 5 19 91 142 144 141 125 63 5 29 105 147 143 140 140 141 141 143 145 151 152 147 156 157 148 145 142 141 139 136 137 129 122 115 102 98 114 110 89 89 119 152 155 146 151 151 154 157 153 151 149 147 151 143 145 149 142 131 130 141 151 146 141 146 146 147 139 87 19 1 12 22 23 24 25 25 26 28 30 30 31 30 
31 30 33 34 34 33 32 38 77 136 156 147 136 69 14 59 134 147 139 143 139 129 124 125 136 131 69 19 64 143 154 140 138 137 147 139 138 115 56 2 0 53 125 155 138 90 19 4 56 117 147 142 139 140 142 143 141 144 117 36 2 54 122 140 141 146 141 139 138 146 162 164 163 161 147 134 134 129 130 124 121 126 126 124 125 126 140 145 145 151 152 150 155 152 152 154 146 136 140 146 148 143 143 148 145 134 90 16 0 11 20 21 22 23 24 26 28 29 28 28 27 
34 35 36 35 35 36 33 43 90 147 157 147 129 59 16 76 147 151 139 141 146 142 144 142 142 129 65 19 82 146 151 141 143 132 136 141 142 119 49 1 7 50 116 155 117 39 4 24 64 114 144 140 143 140 141 140 147 134 70 8 46 109 144 142 141 143 142 142 137 135 102 18 20 101 147 154 157 143 144 149 151 158 157 153 139 130 119 117 116 117 122 126 126 132 139 145 135 129 140 146 145 145 143 143 148 130 70 12 1 14 23 24 25 26 27 28 31 32 30 30 29 
29 31 32 32 30 35 36 49 96 149 153 142 121 52 17 80 147 152 143 141 141 145 142 141 142 120 59 16 67 138 170 164 165 169 158 138 135 112 44 4 6 28 82 128 85 32 17 31 71 124 144 142 140 142 141 146 146 112 43 11 65 132 155 157 147 146 149 144 147 126 53 7 52 117 142 141 134 140 146 147 121 68 56 103 169 187 157 131 139 143 142 138 137 143 146 137 129 135 142 144 145 141 147 147 143 129 74 8 0 14 23 24 24 25 26 28 27 29 32 33 33 
24 25 25 26 26 27 29 44 95 153 161 145 118 52 21 82 144 150 142 138 141 142 146 149 141 122 66 12 0 4 8 9 28 81 130 143 137 110 45 3 0 17 60 95 60 23 25 44 74 125 148 144 140 140 143 145 134 74 7 35 109 145 148 141 142 149 139 143 140 99 17 12 84 144 145 137 135 138 131 76 9 1 6 5 36 115 155 151 141 136 141 141 150 160 145 134 150 156 146 141 143 151 147 145 143 125 70 6 0 11 21 22 22 22 23 25 25 27 29 30 31 
20 21 22 20 21 24 20 30 86 148 155 140 120 56 26 85 142 145 139 140 146 148 143 143 142 116 51 7 31 43 28 9 15 64 121 134 139 100 36 21 53 52 19 4 24 29 32 34 69 128 157 158 149 145 143 145 104 21 8 74 142 150 145 142 140 142 143 143 124 62 8 52 119 144 141 137 137 129 86 23 2 23 30 24 18 36 94 147 155 144 141 140 149 118 36 11 80 141 148 138 137 141 143 140 142 120 52 0 1 14 23 24 24 25 26 27 29 30 30 29 29 
19 17 18 17 20 20 18 26 76 142 156 138 117 55 29 91 145 143 138 143 146 157 162 156 143 105 46 29 90 117 96 79 79 90 129 145 140 92 25 30 87 72 15 13 39 78 72 38 69 133 152 144 150 148 146 129 73 13 48 112 146 144 139 142 146 142 142 140 93 17 26 93 137 138 134 130 135 112 57 7 31 94 106 81 38 12 66 136 152 143 145 164 148 77 1 14 97 142 137 136 141 141 138 141 140 116 57 4 1 15 23 24 24 25 26 27 27 29 31 32 33 
19 20 19 18 17 18 15 17 69 137 152 136 117 60 15 70 150 156 139 137 122 60 18 87 147 106 48 39 107 149 143 139 136 136 147 140 135 94 37 51 112 93 27 10 60 123 80 34 69 105 51 17 85 146 154 101 22 26 92 139 142 141 138 142 144 144 145 130 71 11 47 124 142 129 133 132 133 108 39 16 74 135 146 128 74 15 39 120 156 143 134 119 38 0 6 68 119 141 138 136 143 138 138 141 140 111 47 0 1 14 20 20 21 26 27 27 28 30 30 32 33 
20 21 21 20 17 17 19 21 57 115 142 140 123 79 11 27 115 163 169 170 101 9 7 92 154 119 35 30 103 142 138 141 144 138 142 140 139 86 15 33 119 121 54 24 75 128 77 31 72 116 60 12 85 159 131 35 8 59 131 159 163 169 165 148 142 148 147 97 23 31 100 146 137 128 135 139 135 100 32 19 90 146 143 130 82 19 40 111 149 144 128 84 23 2 17 68 119 142 139 136 139 140 137 138 139 106 40 2 10 22 24 24 25 28 28 27 32 31 30 29 28 
21 21 20 19 18 20 18 18 58 120 147 144 133 109 50 6 0 1 6 4 1 29 75 113 140 102 31 46 124 169 154 140 144 142 142 142 132 87 21 37 126 146 93 62 98 134 79 29 67 128 112 92 111 132 88 22 39 94 135 110 73 66 123 151 146 141 126 77 4 7 80 161 187 170 140 130 136 101 34 28 90 142 150 125 74 18 45 115 149 146 132 94 58 32 28 62 118 142 142 141 140 142 142 141 137 103 37 0 5 19 23 25 23 25 28 28 31 30 29 30 31 
20 21 20 19 19 19 16 25 73 125 140 135 135 136 112 61 9 3 21 17 22 60 106 139 138 99 37 7 82 134 152 155 157 163 164 155 126 73 16 46 130 153 128 119 131 130 62 19 63 130 136 131 133 95 33 6 59 145 185 138 34 31 111 152 141 140 104 32 0 7 12 22 64 130 154 139 130 93 28 22 90 141 142 125 67 7 33 117 148 142 135 126 108 70 33 53 118 149 144 140 140 143 144 144 138 103 37 0 8 20 24 26 25 27 28 27 26 30 29 27 30 
22 23 20 16 19 20 18 28 86 146 154 142 140 137 136 131 109 89 85 84 91 120 142 147 146 104 26 0 0 8 1 2 4 15 65 132 148 77 17 56 134 154 138 132 141 123 56 23 74 137 150 147 133 89 21 6 19 41 45 29 25 46 109 172 162 123 63 1 1 25 30 32 26 58 112 144 136 93 29 28 98 146 143 120 67 16 51 128 148 143 139 134 124 73 18 50 124 153 143 142 141 146 144 143 138 97 30 1 7 18 23 24 23 25 25 26 30 26 27 30 29 
18 18 19 20 19 17 16 23 73 139 163 160 150 150 148 147 147 145 142 141 142 144 146 147 142 113 64 44 51 45 29 29 23 14 49 123 134 69 20 65 134 148 140 140 146 114 47 22 87 149 150 133 121 89 22 3 4 22 23 14 23 28 51 113 142 102 26 12 74 118 106 65 10 23 97 146 138 93 17 24 109 155 150 119 56 13 60 132 151 138 139 141 124 66 10 50 126 155 144 141 140 141 141 142 131 85 23 2 15 21 22 22 24 28 27 26 30 30 31 31 32 
20 20 19 18 20 20 22 23 48 105 148 154 154 152 152 152 151 149 146 146 141 148 142 142 140 141 139 134 125 116 110 104 86 77 91 126 128 69 20 65 138 152 141 139 130 106 51 34 95 142 144 137 134 112 83 75 60 53 61 53 30 26 61 112 137 88 13 44 115 145 133 104 33 10 77 155 155 69 4 38 122 153 137 110 51 17 73 138 149 139 153 164 134 57 9 60 133 150 138 138 140 139 140 142 124 73 15 0 13 21 21 21 21 25 26 27 27 27 26 27 29 
21 20 21 21 21 20 25 27 28 67 117 135 136 148 148 142 150 159 158 159 158 159 157 154 149 153 149 150 148 147 140 132 96 32 18 84 128 123 91 96 136 150 146 140 132 96 38 29 98 138 138 139 134 141 137 128 136 134 124 76 23 43 101 136 125 72 19 40 119 146 129 99 40 23 71 137 139 76 11 40 122 154 141 109 37 8 77 150 149 143 161 170 133 45 7 64 136 148 138 137 136 141 140 139 125 70 9 0 9 19 19 20 19 20 24 25 28 28 30 28 25 
21 21 20 17 19 18 20 21 21 22 37 60 82 91 103 111 117 125 136 144 143 147 150 153 163 166 160 164 164 155 152 142 101 43 5 1 60 128 140 126 137 143 144 144 141 121 76 57 96 137 138 124 130 142 136 138 143 141 117 66 17 53 119 150 138 90 28 10 111 173 170 105 32 20 89 144 129 64 13 53 121 148 134 100 34 23 84 139 143 148 163 160 121 45 8 68 139 145 134 136 139 141 139 137 119 62 6 1 14 16 19 21 21 23 25 24 23 25 27 28 28 
22 21 21 20 19 19 18 17 21 24 23 19 14 16 17 17 20 29 44 54 71 88 109 124 139 142 137 142 149 153 157 159 159 156 146 136 139 153 151 150 149 146 151 147 143 140 132 134 141 137 132 139 138 139 138 144 142 141 125 74 13 56 131 156 136 108 57 7 2 32 32 14 16 51 104 140 129 68 17 52 122 153 145 99 31 22 81 140 152 148 152 156 119 40 7 72 141 147 136 137 140 137 138 138 115 57 5 1 8 16 19 19 21 22 22 24 22 24 26 26 25 
24 22 21 20 22 18 17 19 21 20 20 19 15 17 19 18 16 16 20 23 14 17 19 18 26 38 51 68 95 110 124 130 133 142 149 151 156 161 163 171 173 168 168 162 164 158 149 143 138 136 136 138 134 139 143 145 135 133 132 102 68 86 121 137 134 129 95 53 11 4 17 20 26 72 123 148 132 91 25 13 80 139 136 68 10 35 103 144 142 138 148 155 108 32 18 84 141 146 137 137 136 139 140 137 115 55 2 0 8 11 17 18 17 21 22 18 20 22 24 25 24 
26 22 21 21 19 22 22 21 20 20 22 22 23 22 21 19 16 17 20 22 18 20 22 21 23 24 21 25 19 22 21 22 37 63 80 84 107 125 126 128 139 146 152 157 156 154 162 168 161 155 155 154 143 145 137 136 139 140 141 133 131 134 139 144 144 135 126 123 81 50 40 56 90 123 134 137 137 114 65 18 8 6 12 19 36 64 111 138 141 140 140 134 101 35 28 95 143 142 138 141 139 140 141 137 108 49 4 2 12 15 16 15 17 19 19 20 24 24 23 24 25 
28 24 20 20 20 18 18 19 21 21 21 23 21 21 21 21 20 20 20 20 23 20 19 16 18 20 18 20 20 22 23 23 25 25 23 19 25 27 27 39 63 86 109 119 128 124 131 137 137 145 156 158 158 160 156 157 160 156 151 145 142 138 136 142 144 139 137 136 134 125 129 132 131 135 141 142 138 133 108 58 13 4 14 30 53 96 129 137 138 138 139 134 100 34 24 97 148 143 139 140 138 137 140 137 103 41 0 2 16 13 10 11 15 17 16 16 16 17 15 17 22 
38 31 18 16 18 18 19 19 21 22 20 19 23 23 23 21 20 19 20 21 23 21 23 20 19 22 21 25 23 19 18 21 23 21 20 22 19 20 19 20 15 10 15 25 31 44 61 67 67 84 113 130 134 132 138 143 143 151 160 160 162 162 160 157 152 148 148 148 142 144 135 131 103 34 7 43 85 111 132 121 85 67 67 79 105 129 139 142 144 143 142 135 92 29 38 108 150 146 140 142 140 139 139 137 107 45 0 0 12 8 8 10 11 13 14 12 16 17 14 14 16 
31 21 14 19 19 18 18 21 21 21 20 19 20 21 24 23 22 22 23 25 21 20 23 21 17 19 19 22 17 22 23 18 15 16 18 15 18 21 19 21 26 21 12 14 17 10 13 21 20 17 24 35 44 48 68 90 109 128 136 136 132 138 142 144 149 151 150 154 159 156 153 152 131 74 19 1 9 92 146 142 130 131 131 132 136 140 142 144 145 146 143 134 92 52 70 118 144 145 141 143 141 138 140 136 98 37 1 1 11 11 8 9 13 14 12 13 14 16 15 15 16 
33 29 22 20 21 19 21 22 20 21 23 21 21 22 24 22 20 20 22 25 24 22 26 25 22 23 22 22 21 20 20 22 21 18 18 20 21 22 21 18 19 21 20 21 19 21 19 15 13 15 18 19 17 23 23 17 21 25 26 38 61 67 85 101 116 130 132 131 137 138 147 148 153 159 155 155 154 152 158 154 147 141 141 143 146 145 142 144 149 150 144 141 132 118 113 130 145 141 140 142 141 139 139 135 99 35 0 3 11 11 11 11 11 12 13 12 13 14 13 13 16 
54 57 34 14 25 25 17 13 25 28 23 23 24 23 22 23 25 26 24 23 23 23 24 24 23 23 23 23 21 21 21 21 21 21 21 21 20 20 20 19 19 18 18 18 21 20 18 17 19 21 20 18 20 21 21 19 17 17 20 23 18 19 21 18 15 24 46 67 83 90 97 105 118 126 132 141 153 151 149 150 152 155 155 156 154 151 151 151 148 148 148 145 143 141 141 145 145 143 142 145 139 139 138 133 84 17 0 3 12 8 7 11 14 12 11 16 14 12 12 13 12 
106 41 3 15 24 22 23 25 26 23 23 23 26 25 24 25 26 26 24 23 22 22 23 24 23 24 24 24 23 23 23 23 24 24 24 24 25 25 24 24 24 24 24 24 24 22 19 17 17 18 19 18 18 19 21 23 22 21 22 23 20 21 22 22 20 19 19 21 16 19 23 28 37 51 61 66 87 114 133 135 134 136 138 144 149 151 157 156 153 157 156 153 150 149 149 149 147 145 143 143 147 146 140 124 68 9 1 5 10 9 9 10 10 11 11 11 10 11 13 14 13 
48 45 41 44 41 34 33 34 31 31 33 32 31 29 28 27 27 26 24 23 20 20 22 22 23 24 24 24 21 21 22 23 23 23 24 24 23 23 23 25 24 24 24 24 25 24 24 23 22 21 21 22 19 20 20 20 19 18 17 17 21 19 18 21 22 20 18 15 21 19 17 17 16 17 19 18 17 19 23 35 51 63 82 108 117 117 125 128 129 135 139 142 147 150 150 150 150 150 149 147 151 148 133 102 47 3 2 8 10 10 12 13 13 14 17 17 14 16 16 15 14 
51 52 50 49 45 44 44 43 43 43 39 33 32 31 30 29 29 28 27 26 22 22 23 23 23 23 24 24 19 19 20 21 21 21 22 22 21 21 21 23 22 23 23 23 24 24 25 26 25 24 25 27 26 25 21 19 20 22 19 15 21 20 19 19 20 21 21 19 23 21 20 21 22 20 18 19 21 24 24 22 21 19 19 21 27 33 48 58 72 92 105 110 120 123 126 129 134 142 147 147 143 129 116 82 17 1 10 10 11 12 13 14 16 15 16 18 20 18 17 17 17 
55 53 50 49 49 50 51 49 48 50 50 47 45 44 40 36 32 28 26 25 28 28 28 27 26 25 25 24 21 21 21 21 21 21 20 20 20 20 20 21 21 21 21 21 18 20 24 27 27 25 24 25 23 23 23 22 22 22 22 22 22 20 18 18 20 20 18 14 18 21 18 17 21 21 18 18 17 20 22 23 22 21 20 21 21 19 20 23 23 22 26 31 58 67 79 89 99 108 112 111 110 97 53 16 11 14 15 16 14 16 17 17 17 16 16 17 17 17 18 19 17 
50 50 52 52 55 49 51 54 51 50 51 48 48 47 46 44 40 38 38 37 31 31 30 29 27 26 25 25 22 22 22 22 21 21 20 19 21 21 21 21 21 21 21 21 20 21 23 24 24 23 24 25 25 23 23 24 23 21 21 22 24 23 23 23 20 17 18 22 19 19 18 17 20 21 18 18 17 17 17 18 21 21 21 22 22 19 16 17 19 20 19 17 23 21 18 17 23 34 47 53 56 29 13 17 21 18 19 24 18 16 18 20 19 18 18 19 16 17 19 18 17 
59 61 59 56 52 46 43 44 46 47 48 49 47 48 48 46 43 41 41 41 33 33 32 32 31 30 29 29 27 26 26 25 24 23 22 22 23 23 24 24 24 24 23 23 22 23 25 25 23 23 23 22 21 21 21 22 20 20 22 24 23 23 23 23 23 23 23 24 20 20 21 23 24 22 20 20 19 21 20 19 21 23 22 21 24 22 23 24 24 21 19 21 18 18 19 21 21 17 11 10 15 19 19 18 21 23 21 21 23 19 20 23 23 21 23 25 27 23 20 19 19 
37 44 59 73 89 96 90 78 70 56 43 40 39 40 41 40 38 37 38 39 39 38 38 38 37 37 36 36 32 32 31 30 28 27 26 26 21 20 21 21 20 20 20 19 21 22 23 21 21 21 20 19 21 22 21 20 20 22 22 19 23 23 23 25 23 20 19 22 24 24 22 21 21 22 22 22 24 24 24 22 20 20 21 23 23 20 19 17 18 20 17 18 20 17 17 19 20 19 18 22 18 19 17 16 19 19 15 19 22 21 19 20 21 21 21 21 21 19 19 21 21 
31 31 29 28 29 30 40 60 84 100 105 103 102 86 60 41 39 40 36 31 31 30 35 37 35 36 38 35 36 35 34 34 34 34 33 32 28 30 31 29 26 22 22 26 24 22 21 23 23 21 20 21 19 19 20 20 19 19 21 23 18 18 18 17 17 18 19 20 22 20 20 21 20 21 23 23 21 23 22 22 24 24 23 25 24 20 20 23 22 21 23 25 20 19 17 16 18 18 17 17 18 16 16 19 20 18 17 17 19 18 17 18 19 19 18 16 19 18 18 19 21 
27 27 26 26 30 29 29 28 28 30 33 36 46 60 87 106 109 107 101 90 52 43 38 34 28 29 31 27 27 29 30 31 32 32 32 33 32 31 36 34 26 27 32 30 24 23 19 22 22 20 25 21 16 17 19 19 18 18 21 21 21 20 19 19 18 18 18 18 15 17 19 19 18 19 20 19 23 25 26 26 25 24 24 25 21 19 20 21 20 20 20 19 21 21 20 20 21 21 19 19 18 19 18 16 17 19 18 15 18 16 16 17 16 16 17 15 17 18 17 17 17 
