P2
121 46
250
61 104 113 111 112 116 115 114 116 108 92 78 71 67 59 53 54 62 75 88 100 109 113 113 115 120 122 116 103 87 71 60 53 54 51 49 50 51 55 63 86 96 110 120 125 124 124 130 115 98 80 65 51 49 54 56 62 73 91 114 127 137 163 192 213 230 236 243 247 242 244 244 245 246 250 238 204 169 145 126 110 108 113 112 112 127 139 132 126 119 112 95 77 74 77 76 72 73 69 65 61 62 65 62 63 63 61 60 59 57 58 56 51 45 39 40 39 35 32 32 27 
94 119 88 56 53 57 63 73 84 92 107 122 129 127 121 117 105 90 72 60 55 54 54 53 57 69 84 97 105 109 108 105 108 107 108 104 92 77 61 50 53 50 44 42 45 49 59 75 109 117 128 129 127 136 139 130 116 112 84 50 36 39 44 47 60 86 118 138 150 169 194 203 205 223 239 242 243 243 243 244 248 247 247 241 203 130 81 79 83 87 86 92 114 130 128 126 128 121 102 76 56 52 58 61 55 55 57 57 57 57 56 57 56 55 55 51 51 54 50 50 47 
101 130 116 102 97 97 95 81 66 61 60 58 56 61 76 88 108 113 116 117 121 120 104 85 72 62 50 45 43 43 47 52 57 62 74 84 91 100 109 111 117 121 114 98 84 74 59 46 29 27 29 34 43 59 81 96 119 132 137 139 155 165 159 148 122 92 57 32 35 42 42 59 69 91 111 131 163 185 201 217 235 240 243 244 246 245 244 247 246 246 235 190 128 89 76 70 78 95 121 131 127 124 117 103 75 61 61 63 61 62 59 57 58 53 57 58 57 58 54 54 55 
111 119 72 57 78 89 95 96 98 99 104 104 93 81 73 68 59 52 51 59 69 80 95 111 114 117 118 117 113 100 81 65 68 55 43 44 50 49 48 54 69 73 88 107 114 118 126 131 137 133 112 87 76 59 37 23 22 31 27 22 35 61 91 114 134 144 154 163 162 146 127 105 69 43 31 33 34 41 63 81 99 114 131 150 170 192 215 237 249 245 244 244 245 246 245 244 246 228 178 115 72 46 32 32 41 54 57 57 59 59 62 63 65 63 60 60 60 56 53 55 56 
122 134 79 49 55 55 48 51 56 60 67 75 84 94 102 109 108 101 86 79 72 57 50 50 54 56 62 70 77 90 101 101 101 104 103 102 97 81 68 61 48 46 45 45 45 46 53 59 73 88 100 111 122 129 132 132 132 124 101 83 62 43 31 15 1 10 18 27 43 82 114 130 145 154 165 172 167 148 119 104 76 52 34 35 41 43 54 68 98 124 144 161 187 210 226 240 246 246 243 244 243 241 225 193 140 102 63 41 27 22 27 33 37 39 42 48 54 54 54 59 59 
109 132 82 53 62 66 58 58 55 56 57 57 54 54 55 56 71 77 79 86 98 105 107 103 91 78 61 55 52 49 49 49 49 53 66 78 85 89 94 97 100 98 95 86 74 62 53 45 41 39 41 37 38 41 46 63 85 96 113 119 136 160 166 172 160 127 93 61 47 35 36 40 31 33 51 71 86 112 138 154 163 176 180 165 143 124 100 77 51 42 36 39 45 50 66 88 113 122 132 152 170 183 198 205 216 230 242 243 235 214 184 163 142 121 96 75 56 46 39 34 40 
111 158 107 52 51 60 57 56 58 57 56 57 58 58 57 56 54 58 56 55 55 58 63 69 79 86 94 98 95 96 93 79 65 59 53 50 48 46 45 47 49 56 63 78 98 107 104 104 104 101 90 75 69 62 50 44 44 39 39 39 42 50 61 81 121 146 154 154 120 54 12 0 10 19 24 22 26 29 27 26 27 30 39 59 86 113 135 150 155 154 151 140 124 103 77 55 54 57 49 46 50 54 62 70 91 110 128 145 164 178 188 196 200 197 197 200 200 199 193 181 165 
97 157 122 61 42 53 58 53 59 58 57 57 58 57 57 57 58 60 59 58 56 55 54 54 53 53 51 54 55 55 65 78 89 88 89 92 94 85 70 61 56 46 42 43 39 38 46 54 68 73 79 89 100 105 108 109 102 89 74 68 55 37 32 32 31 32 26 32 34 25 14 32 27 10 8 13 17 22 29 29 28 39 39 36 40 42 36 32 34 38 56 80 94 103 118 133 127 124 118 111 91 67 51 49 46 40 38 40 36 36 44 52 69 87 107 121 136 152 167 177 185 
94 153 114 54 46 57 57 59 58 58 58 59 59 60 60 60 61 62 61 60 61 61 60 60 59 58 57 54 49 52 56 50 46 44 47 50 53 65 78 86 89 97 96 86 76 67 55 49 44 41 41 40 37 41 46 50 66 77 87 93 98 102 103 101 89 69 69 52 46 94 164 190 190 188 176 151 116 68 29 10 8 9 15 26 33 33 32 32 42 45 43 40 40 41 38 34 44 46 55 69 78 77 70 68 60 57 59 60 55 51 52 53 44 46 42 37 39 42 41 41 57 
90 165 154 90 45 47 60 56 58 58 58 59 60 60 59 58 63 61 59 58 59 59 59 61 60 58 54 57 61 57 55 57 52 51 53 52 48 47 47 47 47 47 53 59 62 74 84 83 83 85 82 77 67 59 57 51 47 43 40 43 50 53 59 72 81 95 96 110 137 148 140 117 134 148 164 176 185 188 187 185 173 157 126 81 43 35 36 27 32 32 33 37 40 40 42 47 37 46 49 40 38 39 36 41 38 42 43 46 49 49 51 58 55 56 57 53 45 44 45 45 40 
111 185 177 120 60 39 49 53 53 54 57 58 57 58 58 59 61 61 63 62 62 62 61 62 60 61 61 62 59 57 58 55 57 57 56 54 53 53 53 53 49 48 45 44 46 46 43 43 51 53 56 72 80 77 83 86 82 80 67 56 56 53 47 42 38 44 44 74 116 111 65 59 97 99 92 92 105 126 142 148 155 164 175 177 173 167 148 124 99 79 55 38 31 34 39 39 45 42 46 49 52 50 45 49 42 42 42 41 39 32 28 31 33 32 37 43 44 45 47 47 45 
114 178 187 174 115 46 34 48 50 50 52 52 53 54 55 57 58 56 57 56 55 56 55 57 57 57 55 56 57 55 57 60 54 54 57 59 57 56 59 57 53 54 54 52 51 50 50 49 43 46 45 40 40 41 42 47 58 63 70 73 79 83 79 77 70 54 49 61 97 110 103 104 115 119 118 121 119 113 107 101 94 96 99 112 129 135 138 150 146 151 158 155 142 136 122 97 70 54 52 48 46 52 51 48 43 40 41 42 43 45 45 41 45 44 41 41 41 37 35 38 37 
86 150 176 184 159 86 22 13 30 41 42 46 46 46 49 51 55 57 56 54 55 58 57 54 57 58 55 55 57 57 58 58 56 55 54 55 56 57 55 54 53 55 56 55 53 52 52 53 49 49 49 50 50 48 46 45 43 41 41 43 43 46 60 71 75 74 72 81 108 123 116 116 125 126 127 128 129 130 127 124 123 123 119 113 101 93 93 90 88 85 102 116 128 141 141 148 158 154 131 95 78 80 78 70 50 38 34 41 42 34 32 38 36 37 39 39 38 39 39 39 41 
57 113 138 163 177 142 69 18 11 28 37 38 40 46 45 47 51 52 53 54 54 55 56 56 57 57 56 58 59 58 58 59 58 58 58 57 57 57 55 55 55 53 52 53 55 55 53 51 52 52 50 49 48 49 50 48 50 51 48 44 41 42 42 36 34 38 42 55 89 121 123 120 125 128 130 131 132 133 132 131 127 129 127 126 125 125 126 118 82 80 97 98 88 88 87 90 96 108 115 121 133 145 151 154 152 159 157 143 127 110 85 63 40 31 27 31 32 29 29 33 35 
44 72 85 117 157 160 98 25 11 27 35 35 34 37 42 43 47 48 49 50 52 54 54 53 52 55 58 57 56 57 57 56 55 55 56 56 56 55 54 54 53 53 53 53 53 53 54 55 52 51 51 51 51 50 49 49 50 49 48 48 47 47 49 47 46 47 46 51 80 118 125 119 127 130 132 132 131 131 133 133 129 131 133 133 123 102 79 51 52 71 110 123 114 114 113 112 110 109 104 102 104 103 102 104 123 128 136 145 153 158 160 162 171 168 157 138 123 105 80 55 30 
37 61 57 70 122 158 115 32 2 24 30 31 39 40 39 42 44 44 45 47 49 50 49 50 52 50 54 56 55 54 54 56 54 53 54 54 55 56 54 53 54 55 56 55 54 53 53 53 53 51 49 49 48 48 49 51 50 49 49 51 51 49 50 48 49 48 45 48 78 122 132 123 128 131 132 131 129 129 131 131 125 129 130 131 129 119 87 42 39 65 105 124 124 123 118 119 118 118 118 118 120 121 116 111 110 104 98 94 92 92 94 99 122 133 145 152 155 160 164 166 167 
35 54 55 57 85 138 128 44 0 10 31 30 25 31 36 38 40 41 42 43 45 46 46 44 46 49 52 50 48 51 51 52 54 53 53 53 53 53 52 51 52 51 50 49 50 50 51 52 50 51 51 50 49 49 49 48 50 50 51 52 50 50 53 52 50 52 51 51 78 125 138 128 129 131 132 132 131 132 133 133 130 132 133 140 146 145 116 69 49 84 120 125 119 122 124 121 121 123 119 118 121 122 118 114 112 113 112 112 113 113 111 108 103 98 94 91 86 86 100 117 136 
34 59 54 51 75 118 105 37 0 8 24 31 36 35 33 37 43 39 38 42 44 44 45 47 48 46 47 47 48 47 46 48 49 50 51 51 49 49 50 51 50 50 51 51 51 51 51 50 50 51 52 52 50 50 49 49 49 47 48 51 52 51 53 51 51 52 51 52 80 125 136 127 129 130 131 131 131 133 133 132 133 130 130 118 77 56 83 112 94 96 114 127 125 127 131 127 129 129 123 121 122 114 110 115 118 116 116 119 120 116 113 113 116 115 114 114 114 112 108 104 88 
43 70 62 58 78 114 94 25 3 26 27 51 105 101 49 19 32 37 39 35 35 41 45 43 44 47 47 45 43 43 44 45 43 45 46 47 47 47 48 50 49 48 47 48 49 50 51 51 51 51 50 51 51 50 49 50 51 51 51 51 48 47 49 48 47 47 49 52 77 118 131 123 127 128 129 130 131 131 131 129 135 134 127 115 105 115 117 94 72 63 87 125 133 127 128 132 131 127 131 135 127 116 116 125 122 126 127 122 120 123 123 120 119 118 119 120 120 117 115 115 118 
43 61 53 61 81 101 76 16 3 14 27 41 93 134 101 38 15 20 25 28 28 29 32 33 37 40 39 40 41 39 40 41 40 40 41 41 42 42 42 42 47 47 47 48 47 47 47 47 48 50 50 49 49 49 48 48 51 50 48 50 49 50 52 50 49 49 50 51 74 119 133 123 124 126 128 129 129 130 129 128 128 127 127 120 98 93 107 107 102 104 109 119 136 142 119 82 51 53 85 111 104 103 117 121 123 127 129 126 123 126 128 129 125 126 124 119 118 120 121 121 115 
29 44 39 68 121 157 136 83 71 89 119 135 107 82 102 121 72 22 12 25 19 19 26 28 27 32 34 34 35 38 40 40 42 39 38 38 39 38 37 38 42 44 41 40 42 43 44 44 45 45 45 45 45 45 46 48 45 45 47 47 47 47 47 46 52 49 46 46 69 108 125 125 123 126 125 126 128 128 129 127 128 131 127 130 122 92 82 91 78 72 90 109 105 107 112 107 107 119 114 90 63 72 96 88 57 59 93 118 122 126 128 130 128 128 130 133 129 122 122 123 119 
74 105 109 129 158 170 169 162 160 172 173 164 122 60 44 55 62 69 85 80 46 20 18 27 26 23 25 29 30 31 32 33 35 35 36 36 35 34 35 37 37 37 37 38 37 37 41 40 40 40 42 44 44 42 41 42 43 44 46 47 45 42 43 46 46 48 44 43 69 111 125 121 120 121 126 124 123 125 123 124 126 123 121 107 74 61 82 95 80 78 94 112 111 108 111 111 91 87 93 97 99 99 95 96 91 88 95 114 122 84 42 41 89 105 102 104 115 123 130 129 131 
97 151 158 154 157 158 156 150 152 153 144 144 120 70 54 68 75 75 77 81 89 98 93 73 46 32 24 25 27 26 28 29 31 32 33 32 30 31 33 34 33 36 37 39 38 35 34 33 36 35 35 38 39 38 38 39 42 40 41 42 43 43 44 46 43 41 44 46 57 90 109 109 115 122 133 129 120 120 118 119 117 126 124 118 108 96 101 114 105 110 119 125 126 128 126 120 122 108 93 84 74 71 82 95 98 88 91 115 118 98 95 101 96 91 73 47 69 96 84 86 93 
93 150 158 147 142 145 151 150 151 151 147 150 123 74 63 84 91 85 79 79 79 80 88 94 92 96 93 74 44 27 26 28 27 29 31 30 29 31 33 33 32 35 33 34 36 36 35 36 35 35 35 35 36 36 35 34 37 38 38 38 39 38 37 36 36 42 42 39 52 81 98 105 119 144 163 152 124 109 114 123 128 133 130 124 124 122 121 122 122 125 125 124 127 131 123 108 58 59 77 81 76 78 80 87 97 101 95 107 118 100 85 88 97 90 88 91 87 82 81 80 84 
90 150 165 163 159 154 154 157 156 160 157 155 131 83 68 92 102 90 81 78 78 77 76 77 79 77 82 90 91 80 62 52 57 53 45 34 27 26 28 29 29 29 30 31 27 27 33 35 33 33 32 31 32 34 33 32 35 35 34 33 34 36 37 36 39 37 39 42 50 79 95 92 108 98 55 53 105 123 114 128 155 157 145 141 147 134 118 123 122 123 127 128 127 131 132 127 118 116 121 120 118 116 107 103 89 72 88 117 125 100 66 57 82 89 82 82 85 83 85 81 82 
78 139 151 145 147 142 137 138 135 131 129 132 120 90 81 98 96 88 86 83 81 83 80 79 75 77 78 78 78 77 75 74 76 83 88 83 68 50 37 30 25 25 27 32 31 27 27 27 30 30 30 31 33 33 34 34 32 31 30 30 31 32 32 32 32 37 33 29 44 77 93 92 102 108 74 47 82 124 118 100 55 26 58 123 134 125 119 105 110 124 137 134 121 118 125 130 122 123 120 126 132 134 139 138 137 127 126 128 129 116 95 100 110 87 58 52 73 81 82 96 101 
76 132 141 136 133 127 127 132 136 131 131 131 115 88 77 84 86 88 87 82 83 84 79 79 81 78 76 77 77 76 75 72 74 73 74 75 76 77 80 81 76 58 31 19 24 27 28 27 28 28 28 27 27 28 29 30 30 30 30 29 29 29 29 30 31 29 30 32 38 68 93 97 103 110 88 49 59 116 125 80 29 28 58 59 33 58 107 119 104 112 114 114 118 120 121 122 122 126 134 133 127 124 124 128 128 127 130 133 127 120 117 113 114 107 99 103 93 84 83 61 54 
83 135 144 138 131 132 137 133 134 135 128 125 122 96 75 81 87 85 87 85 81 82 82 80 79 76 77 77 74 73 73 70 73 72 72 72 70 69 71 74 77 85 88 84 71 55 42 29 23 26 27 26 26 27 27 25 26 27 28 28 30 32 28 24 26 31 33 31 33 58 88 98 103 109 103 72 49 87 114 71 29 41 86 81 30 38 94 128 117 85 49 53 92 114 112 111 115 122 115 113 118 120 122 118 122 121 119 127 128 119 115 117 119 109 110 104 107 112 97 89 80 
81 130 138 138 138 133 133 138 138 135 129 133 129 98 62 62 84 82 77 80 79 78 77 74 75 75 75 75 75 72 70 71 71 72 70 68 69 70 70 72 70 70 71 72 75 74 58 39 34 39 33 28 26 26 29 27 24 24 27 27 27 29 29 26 26 28 29 28 33 59 96 103 101 107 104 87 50 58 93 61 25 62 93 78 37 29 65 105 117 90 48 43 91 116 100 100 81 35 9 9 27 27 28 41 77 112 124 132 145 154 155 157 153 145 143 135 120 108 102 98 99 
84 139 145 137 135 136 137 136 136 134 130 133 130 99 57 57 81 82 79 80 76 76 78 79 78 79 79 77 74 74 72 70 70 69 72 71 67 69 71 68 67 69 69 67 66 66 59 49 59 62 55 51 46 38 35 32 27 29 29 28 29 27 27 30 29 28 29 29 33 60 97 101 100 111 108 94 69 32 25 32 49 85 102 69 30 23 48 89 115 94 51 41 78 102 100 95 60 29 53 97 79 41 41 42 51 88 107 58 22 33 52 67 87 110 144 172 166 130 125 156 154 
91 140 144 140 139 135 136 140 137 143 147 147 139 102 53 52 81 82 79 78 75 76 78 77 77 76 76 75 74 74 73 69 70 68 69 72 72 70 70 69 66 66 67 67 67 65 54 41 45 55 56 55 55 58 59 55 47 40 37 36 32 31 32 31 29 32 30 27 29 50 88 101 94 105 112 103 87 50 25 37 60 86 99 70 33 18 30 62 100 101 55 32 73 109 105 89 57 34 57 82 85 83 70 52 43 74 104 74 30 24 29 30 26 31 27 23 41 80 112 122 127 
86 144 155 147 144 144 151 157 161 162 163 163 158 118 49 33 71 78 76 76 74 73 75 73 75 74 74 74 75 73 69 68 65 67 68 69 69 67 66 67 63 65 66 65 62 58 52 43 42 46 46 47 47 47 52 55 53 53 52 52 51 45 40 39 37 34 31 29 27 43 82 97 93 99 107 105 95 62 31 32 70 92 100 73 38 34 49 53 75 97 71 37 57 90 93 85 61 41 56 88 93 87 85 71 39 56 99 110 78 59 61 53 45 38 37 34 44 77 81 44 16 
92 152 161 153 154 158 160 159 161 162 163 162 157 122 56 40 68 80 75 76 76 73 73 72 73 75 75 74 71 65 61 61 59 57 57 59 60 60 58 57 56 56 56 55 53 52 48 43 41 48 50 48 48 49 50 47 50 51 49 48 48 50 53 58 54 52 47 38 29 39 75 94 89 100 110 105 100 79 44 35 74 99 98 75 39 38 63 56 45 71 79 49 53 100 117 107 60 27 51 111 133 132 119 81 36 37 75 98 95 94 96 89 80 67 45 27 43 87 96 65 20 
99 157 165 158 160 163 163 160 161 159 156 155 153 121 56 32 73 85 79 78 77 74 75 75 73 72 69 63 57 56 56 55 53 53 51 51 53 51 49 52 50 50 50 49 46 46 45 42 43 49 51 51 51 51 50 48 49 44 39 34 31 33 38 41 45 50 49 47 47 55 81 95 86 95 111 107 102 85 42 29 70 104 102 84 48 35 66 71 48 65 79 54 46 74 80 76 74 47 24 43 79 103 107 72 24 35 69 88 91 92 94 98 92 84 58 36 48 84 95 79 79 
89 152 160 143 136 137 139 136 133 135 134 134 127 109 73 60 78 81 76 77 79 79 76 72 66 63 61 58 55 55 54 51 52 54 50 46 51 51 47 48 49 50 51 51 50 51 49 44 40 48 54 54 53 53 51 49 46 44 35 30 29 24 20 25 25 26 31 38 41 52 82 96 90 96 111 107 102 88 41 27 63 108 105 82 47 34 67 83 54 37 33 36 52 61 52 53 61 49 28 19 25 22 17 22 24 38 71 93 94 95 97 94 95 80 42 19 45 90 105 95 93 
73 118 122 122 123 119 119 123 117 124 129 134 126 111 85 74 79 79 77 78 79 80 73 66 59 57 54 52 52 51 51 53 50 49 49 49 50 52 53 51 52 52 52 50 51 53 52 46 35 46 55 54 51 50 50 51 45 34 24 22 25 25 24 24 24 25 25 26 27 36 72 102 96 90 103 110 100 84 46 28 65 98 102 85 49 28 58 87 66 37 22 27 49 72 71 60 62 51 28 36 54 53 45 35 33 45 71 91 94 92 88 89 93 74 32 25 65 93 90 89 96 
71 105 99 92 98 95 89 86 81 78 78 80 86 91 85 82 84 79 79 79 78 77 74 63 53 55 53 52 53 52 54 57 55 53 53 54 51 51 54 55 54 53 54 54 53 54 52 49 44 53 57 55 54 55 53 53 50 37 25 25 27 24 24 23 26 24 25 24 25 29 46 92 118 107 99 102 98 91 67 47 67 96 99 87 54 36 70 94 84 53 32 29 42 72 88 80 69 50 32 50 80 80 71 63 39 29 58 87 85 83 90 93 81 44 24 44 85 100 95 94 97 
55 85 78 68 74 79 81 82 82 86 88 87 83 78 75 72 74 79 74 78 77 74 77 68 59 60 56 53 55 58 57 54 54 56 56 55 52 53 55 55 55 53 52 52 53 54 52 47 43 49 54 54 55 56 53 52 44 34 25 23 24 24 24 23 23 24 22 18 19 22 33 70 131 150 138 117 100 92 84 76 79 93 98 92 66 44 65 92 90 66 28 15 40 73 84 83 75 58 36 49 81 91 83 73 50 31 51 94 100 90 94 89 71 40 29 51 92 111 108 103 101 
51 87 85 74 80 88 88 82 74 80 79 76 79 79 70 63 68 71 75 75 77 75 71 75 70 65 61 59 57 57 57 56 58 55 54 56 56 54 53 56 53 54 55 55 52 51 49 47 41 48 55 54 53 55 53 50 43 28 20 24 28 28 24 24 22 20 24 22 20 20 22 32 63 113 137 139 139 138 133 117 93 94 94 93 87 80 82 91 91 85 54 22 32 76 93 80 73 66 42 33 53 78 86 82 57 26 41 80 94 88 85 85 57 22 28 70 100 105 100 100 99 
43 78 78 73 79 82 82 80 87 91 82 67 68 78 74 63 66 66 65 69 71 72 75 78 72 70 70 67 61 59 59 57 55 57 55 53 53 53 53 56 52 52 53 51 48 47 46 45 43 48 56 57 53 53 52 49 44 34 29 29 30 30 27 25 22 20 24 26 23 24 25 24 27 24 31 50 80 102 117 123 122 127 124 115 105 96 88 84 91 88 82 65 56 76 90 83 81 73 52 31 23 25 31 36 31 28 39 72 94 89 85 80 45 22 38 78 100 102 97 97 103 
57 88 80 69 71 70 69 62 59 62 49 40 49 80 94 66 45 58 67 63 63 63 61 63 69 70 70 69 68 69 67 60 57 55 53 53 54 52 49 50 51 49 48 46 45 46 47 45 41 42 50 54 51 50 49 48 42 36 32 34 34 29 30 32 31 30 23 22 24 22 22 24 26 24 27 23 22 20 24 35 52 74 93 114 120 113 113 111 108 97 90 92 93 87 83 87 82 82 75 56 48 50 45 33 25 26 45 76 88 87 85 69 30 17 53 102 111 99 97 102 99 
29 49 41 35 37 32 35 38 34 38 35 33 35 62 102 111 70 37 40 50 54 59 58 58 58 59 62 66 69 70 69 67 61 63 60 53 50 52 50 47 47 48 49 48 46 46 48 47 40 41 48 49 46 47 46 44 43 46 46 48 48 47 44 38 33 35 31 28 27 26 27 25 26 25 26 26 26 22 20 20 25 25 17 27 40 50 72 83 95 105 112 114 111 95 83 85 83 76 76 79 79 78 75 72 56 40 58 82 87 90 80 52 24 31 65 93 101 98 97 101 97 
19 36 32 29 31 32 33 33 34 34 33 30 36 55 79 95 104 104 82 56 42 41 48 51 56 58 58 56 56 58 61 63 61 61 62 62 60 58 55 50 49 49 49 48 47 47 47 46 40 42 48 49 47 50 49 47 47 50 60 70 72 69 65 60 62 57 52 44 40 40 42 33 28 25 26 24 20 20 25 23 20 25 26 25 24 22 22 23 29 33 46 67 83 89 93 98 103 110 111 103 96 95 95 90 87 84 81 88 91 86 79 55 29 32 75 109 104 97 102 100 98 
18 29 30 29 30 31 32 34 34 34 33 33 35 46 72 93 107 113 118 118 101 69 44 40 43 49 54 55 57 57 56 56 58 58 62 66 66 67 66 62 57 55 51 48 47 48 49 48 44 40 42 46 46 46 43 42 35 32 38 46 51 55 56 58 63 62 63 62 60 54 52 46 42 35 33 31 31 30 26 27 26 26 30 22 18 22 20 29 26 27 23 20 20 20 24 33 51 61 76 91 101 105 110 114 113 103 97 94 93 94 91 82 72 76 87 94 99 96 96 100 99 
23 32 29 29 30 29 31 31 32 31 33 34 33 42 66 91 109 114 114 114 113 109 97 83 73 59 53 53 52 57 62 60 56 59 59 60 66 63 63 71 71 67 67 63 55 54 53 49 43 45 46 48 50 48 45 42 37 31 28 26 27 30 35 42 45 51 55 56 60 65 65 62 63 58 54 47 37 33 33 31 28 26 26 26 25 25 25 25 20 29 27 19 20 23 23 28 27 25 24 23 25 35 58 84 104 111 116 121 123 118 112 110 110 107 101 98 99 99 98 97 94 
22 31 28 28 30 31 32 32 33 33 35 35 34 41 65 91 104 109 107 107 111 109 105 105 107 101 91 76 60 52 51 53 51 55 57 57 59 60 58 57 68 66 68 69 67 66 61 55 54 55 52 50 50 50 49 45 36 29 26 25 25 25 24 24 27 30 34 38 45 51 54 56 66 72 70 63 66 65 59 56 42 40 29 27 28 24 24 22 24 28 27 24 24 25 24 23 24 23 22 19 23 25 20 19 22 28 46 67 87 100 110 124 128 126 126 121 112 105 102 98 98 
