P2
121 46
218
60 63 67 72 87 94 90 109 161 178 151 135 157 171 178 182 191 190 167 141 98 46 13 7 1 4 10 4 7 9 16 20 20 24 25 21 27 23 24 28 25 16 18 26 21 21 22 23 22 20 21 22 24 23 22 20 20 21 19 21 21 21 25 34 32 21 19 24 24 24 21 21 25 26 23 20 21 22 21 18 18 21 22 21 21 25 27 28 31 36 37 37 45 47 47 48 50 50 48 49 48 50 51 48 46 48 49 46 45 43 41 43 41 38 36 35 33 33 35 35 34 
48 50 51 53 56 55 69 118 132 81 54 69 68 66 78 100 118 134 156 174 190 182 184 187 172 146 113 83 45 23 6 1 5 8 10 19 21 23 25 25 28 29 29 27 25 21 25 25 20 20 21 22 23 21 23 25 24 24 24 21 23 22 24 30 29 24 26 28 22 22 22 23 24 22 21 20 19 20 21 22 22 20 19 18 21 20 21 22 22 22 22 22 25 27 30 31 31 37 43 41 48 51 51 48 49 53 53 47 50 47 45 46 47 48 48 49 43 43 45 44 43 
43 43 47 53 54 56 74 118 126 106 115 132 131 126 124 118 103 87 76 69 69 88 109 129 150 167 179 185 181 173 176 174 151 102 41 6 0 0 0 2 7 15 20 21 21 24 26 29 28 25 25 26 25 25 22 22 22 22 23 22 25 26 30 33 29 24 24 24 24 24 24 22 21 22 24 25 21 19 20 23 23 20 20 22 23 21 20 22 21 18 18 20 21 22 23 22 21 21 21 21 26 25 26 31 38 43 46 49 48 46 46 50 53 53 51 51 51 50 47 46 46 
45 46 51 60 58 57 74 117 137 122 120 131 125 128 126 126 126 122 119 121 120 110 92 81 80 76 70 67 67 67 78 109 160 188 188 195 189 156 113 74 35 5 0 5 8 12 15 19 19 23 30 27 26 32 33 32 30 28 28 30 28 25 26 33 32 25 25 30 23 23 24 25 26 24 23 23 22 21 21 22 22 22 23 25 23 21 21 22 22 20 19 21 21 23 21 21 24 23 21 22 21 23 24 24 23 20 21 25 30 30 32 37 43 44 43 43 48 49 49 50 51 
44 45 52 61 62 52 81 130 139 124 124 128 133 131 128 128 128 124 124 130 129 129 129 128 123 118 117 119 106 95 101 104 87 77 98 134 154 171 181 179 180 185 178 164 125 78 35 8 2 5 1 2 11 16 22 21 21 28 30 26 29 27 30 33 32 27 24 28 27 23 21 21 20 22 24 23 21 23 23 22 22 23 22 20 20 22 21 20 20 21 21 20 21 21 22 21 20 22 22 18 22 22 19 17 18 20 20 19 21 20 20 21 23 24 28 31 30 32 35 39 43 
41 43 51 61 63 60 85 131 139 122 125 130 118 121 126 128 126 131 133 130 131 129 128 126 125 125 128 128 106 101 107 103 84 79 87 85 78 71 68 78 98 120 142 157 175 186 181 181 181 166 139 103 61 29 5 1 9 14 14 17 16 19 25 27 28 28 27 28 26 26 29 28 25 27 28 23 24 25 24 20 19 21 20 18 18 20 21 19 20 23 24 22 20 22 23 22 21 22 22 21 19 20 20 20 21 21 20 21 22 21 20 19 17 16 19 24 28 26 24 23 25 
43 44 50 58 55 54 89 135 133 117 125 125 123 123 126 129 124 126 133 135 131 131 132 132 129 125 121 116 109 93 59 52 64 69 92 120 121 110 101 100 93 80 72 72 75 69 88 113 138 157 163 171 183 180 179 176 159 115 66 37 17 13 13 14 15 18 21 22 23 25 27 26 26 27 29 29 28 26 24 21 20 20 22 22 19 19 20 19 19 19 21 20 22 24 21 19 19 18 18 21 21 21 20 20 17 17 18 16 19 21 23 22 19 18 24 31 25 25 24 23 22 
40 46 51 57 59 59 90 128 130 121 125 126 124 120 114 115 125 132 129 122 129 131 131 131 133 135 142 151 146 109 61 49 57 74 102 109 116 115 116 117 116 113 112 111 101 98 89 83 76 71 74 77 84 100 123 144 154 166 184 196 180 174 167 143 106 74 43 16 5 14 15 14 18 21 20 20 25 23 25 29 28 25 25 26 27 24 23 23 20 16 16 17 20 21 22 22 21 22 23 20 20 19 21 21 19 19 20 19 20 21 22 19 15 17 26 36 27 26 24 22 20 
40 45 50 55 55 55 89 134 137 125 131 130 121 130 130 123 124 130 131 129 130 131 125 128 129 132 126 102 101 128 128 113 128 150 145 128 114 124 124 116 116 119 120 120 121 119 118 117 116 116 111 106 94 87 80 71 66 72 80 86 112 140 159 160 166 179 183 180 172 164 134 100 65 35 19 5 8 18 18 19 23 25 27 28 30 28 28 26 26 29 26 21 19 21 21 21 17 19 23 21 19 17 18 19 21 21 20 20 19 21 20 18 17 19 24 30 26 23 24 25 21 
39 41 46 53 52 56 96 142 140 123 128 129 130 124 131 136 133 132 133 130 135 129 136 134 133 121 102 112 126 112 95 71 67 109 146 142 122 137 142 138 136 135 125 116 112 110 108 115 116 117 122 119 121 120 116 110 108 102 93 92 86 78 74 74 76 86 108 130 148 156 169 183 192 188 177 180 176 149 107 61 22 1 2 14 16 19 20 24 25 24 26 27 28 31 30 28 28 27 26 23 20 23 26 23 21 18 19 21 21 22 23 21 20 21 25 30 27 23 25 26 21 
44 44 50 58 54 62 99 137 132 118 124 124 119 111 112 120 122 124 131 132 125 137 132 125 130 131 120 107 122 119 120 124 122 115 120 137 141 130 132 150 160 152 142 139 111 75 88 120 123 112 102 104 108 116 116 115 115 116 117 116 112 117 117 108 99 97 94 84 82 72 70 76 102 110 93 101 135 156 170 180 185 180 160 129 85 53 30 16 12 18 22 25 26 25 26 28 29 30 29 31 29 27 30 29 27 27 29 25 24 24 26 25 20 20 25 29 30 29 28 25 21 
44 41 47 57 59 69 103 130 122 119 124 119 128 124 141 144 120 118 124 109 120 128 125 130 126 125 133 118 109 125 105 71 70 89 106 121 129 142 133 87 51 68 114 144 125 123 131 136 141 152 154 146 132 129 121 112 105 104 106 109 112 122 128 123 119 122 122 118 117 112 118 105 95 100 94 93 81 74 72 82 117 155 173 183 185 185 182 179 163 141 112 75 36 19 16 23 24 22 23 28 27 27 27 30 33 27 25 29 28 30 26 25 29 28 28 36 33 24 19 22 22 
43 40 45 55 57 71 109 133 124 122 128 120 119 113 98 98 121 140 146 149 115 91 91 94 98 96 70 53 85 102 118 110 103 121 123 94 48 76 107 113 109 123 135 125 94 83 111 144 129 100 108 139 144 131 132 140 152 153 134 121 113 113 107 104 106 109 112 117 120 129 128 125 130 106 79 88 118 112 94 88 88 81 78 77 88 103 122 146 160 167 177 182 186 181 174 154 125 91 52 23 6 1 0 23 49 45 36 40 32 26 29 31 23 26 34 31 29 30 30 30 28 
41 41 46 54 54 68 110 134 123 120 126 126 125 107 46 3 15 25 36 70 123 129 125 120 130 136 125 117 109 101 100 105 113 120 124 124 128 119 133 141 121 109 116 123 108 107 118 116 104 90 90 113 128 125 123 120 119 135 148 146 135 147 148 138 130 126 118 109 106 100 106 119 122 114 102 91 77 77 76 73 89 113 115 110 97 82 75 63 61 68 72 87 115 138 155 163 175 182 183 186 197 218 154 47 6 20 38 41 38 39 37 35 33 30 30 30 27 28 29 30 28 
39 39 43 49 56 67 108 130 120 118 124 126 130 96 50 15 9 21 29 28 73 120 137 116 72 46 75 106 124 142 131 105 102 102 104 116 120 114 112 95 74 85 104 99 65 68 85 107 111 107 112 109 116 124 121 97 58 49 87 121 128 113 117 132 139 140 141 137 145 145 136 119 113 115 100 73 65 59 63 83 105 122 129 125 128 120 116 117 114 106 99 92 90 83 75 74 76 77 97 125 161 201 207 136 56 47 73 67 65 64 61 59 61 60 55 50 47 44 40 38 37 
43 45 48 52 60 71 110 129 121 123 126 121 113 110 61 24 44 53 35 32 48 90 138 118 57 17 15 31 25 68 126 150 132 119 131 142 138 113 98 85 75 90 101 84 83 81 93 103 107 111 111 105 113 120 117 103 107 113 105 106 103 75 92 129 120 97 108 131 139 134 137 132 124 130 137 144 136 119 113 113 111 109 108 113 112 117 120 124 126 122 122 122 121 118 116 116 111 104 95 83 63 81 138 162 105 55 70 91 89 91 87 84 85 83 79 76 73 72 68 63 60 
53 52 51 52 60 76 115 131 122 119 119 121 124 105 55 30 68 113 97 41 22 69 138 126 65 17 16 30 30 21 49 105 136 113 59 16 36 93 124 122 116 119 122 105 89 88 88 93 92 74 69 93 120 118 116 95 51 34 80 104 88 95 116 123 107 100 103 98 102 97 99 110 125 135 136 138 140 139 132 131 131 130 129 126 119 115 112 112 110 106 106 111 117 116 118 121 121 120 119 118 107 97 114 165 182 97 22 39 78 76 73 81 84 85 86 88 92 90 88 88 85 
49 46 50 57 62 76 113 129 121 118 118 122 114 102 54 28 73 132 124 72 24 61 123 114 54 16 38 71 58 30 34 87 134 123 65 10 34 113 147 105 32 1 52 114 114 103 97 93 87 89 92 95 112 116 111 103 98 105 117 103 68 47 66 102 105 99 104 105 99 105 107 117 123 111 78 38 62 113 141 126 123 126 125 126 129 129 129 129 128 124 120 117 116 115 114 114 115 119 119 116 119 119 120 146 182 142 52 13 38 50 51 56 60 62 65 71 79 81 82 83 87 
59 57 58 61 63 77 113 129 119 117 117 122 121 97 40 20 69 122 110 60 22 61 124 116 54 26 70 113 111 54 20 63 128 135 76 16 33 120 129 59 3 7 66 119 119 118 117 114 111 107 102 103 91 85 83 87 92 103 110 99 91 86 88 95 99 98 95 93 98 101 106 134 137 108 101 107 100 106 124 124 125 122 121 120 125 125 128 128 126 126 125 125 122 124 125 123 121 120 120 120 120 119 121 140 163 124 39 6 35 39 40 44 44 46 47 49 50 56 63 65 65 
60 61 62 62 68 79 112 124 115 114 118 124 124 97 36 25 100 168 140 64 5 58 130 113 39 15 77 130 126 54 8 55 128 129 60 0 40 115 92 18 15 65 105 114 124 122 121 120 121 120 118 119 117 111 106 103 97 96 95 95 82 82 83 90 96 82 67 70 104 90 85 125 148 115 102 121 114 104 118 124 122 121 125 126 124 125 126 125 124 128 128 124 122 121 122 123 121 119 120 120 115 118 122 136 147 107 32 9 37 45 40 39 43 44 40 41 43 41 44 47 48 
69 68 68 68 69 83 118 130 120 119 120 123 122 95 34 11 53 92 77 33 28 69 122 106 45 26 83 128 112 48 10 59 123 115 56 17 71 97 49 3 37 95 129 137 121 122 125 124 122 123 122 119 117 123 117 78 22 16 52 87 97 91 83 85 90 87 83 85 83 89 70 57 82 103 89 67 71 103 123 120 122 126 123 128 125 124 126 126 125 128 126 123 120 125 125 124 125 120 116 121 120 120 123 135 140 93 24 9 38 44 40 40 44 41 37 37 38 39 40 44 43 
70 71 75 78 72 89 123 132 121 122 122 121 119 85 31 16 31 32 26 26 57 90 120 90 31 23 101 162 135 59 6 55 133 126 54 3 21 38 22 33 86 120 126 122 121 124 125 122 123 125 122 120 122 125 107 55 12 43 95 114 112 102 58 13 13 34 48 53 58 61 72 76 74 74 75 75 85 106 118 119 122 130 129 125 131 128 128 128 128 125 125 126 122 120 126 121 100 95 110 120 119 119 123 136 134 79 19 18 43 40 38 44 45 44 43 40 39 37 37 39 37 
77 77 76 75 78 94 122 122 110 117 122 122 117 84 30 14 30 32 31 38 79 120 135 86 21 3 43 69 51 35 32 76 126 109 50 17 11 32 41 68 102 119 133 137 125 128 128 124 124 128 125 122 124 119 73 18 9 57 106 120 120 104 53 14 19 27 25 31 35 25 52 93 95 83 88 92 89 80 82 88 93 103 114 113 123 125 125 125 128 130 128 128 123 125 125 122 114 104 106 117 115 116 123 136 124 62 13 23 39 43 39 40 43 44 44 45 39 35 33 35 35 
78 80 80 80 78 98 129 126 114 121 123 119 118 74 25 43 92 90 53 26 53 113 131 79 25 10 32 30 31 38 47 82 125 107 44 3 18 27 49 97 123 115 114 116 123 123 124 125 128 129 126 128 129 101 38 10 46 100 129 122 116 98 53 14 16 32 32 25 28 32 56 94 109 110 99 64 22 30 56 83 101 85 75 81 89 96 102 106 111 116 122 129 133 134 134 132 125 119 118 120 119 120 130 140 121 53 6 18 37 37 37 43 39 40 43 43 39 37 36 35 35 
81 81 81 80 79 102 126 125 119 124 123 121 120 76 24 40 102 131 95 30 27 99 135 84 23 18 48 40 27 46 70 102 122 97 48 13 27 30 50 101 137 129 122 129 129 130 125 125 123 123 124 126 118 63 8 15 74 114 121 117 116 97 44 13 47 82 73 52 43 44 64 103 125 110 65 16 20 35 32 38 84 119 114 102 94 99 108 122 131 122 112 113 120 120 119 124 130 119 111 115 115 116 130 139 110 38 2 18 39 38 36 40 43 43 43 43 40 40 38 37 37 
84 83 84 85 83 109 129 120 113 119 122 126 114 64 16 44 107 129 90 30 27 95 131 79 19 32 72 50 30 75 119 130 124 96 41 8 14 28 32 77 133 130 112 122 128 147 163 160 137 120 122 129 96 29 13 64 113 125 122 121 115 92 40 22 67 109 113 108 105 98 111 125 115 73 23 10 30 32 27 28 48 94 126 115 92 44 13 21 40 63 92 114 126 126 114 94 88 98 109 118 116 115 126 136 109 40 2 12 36 36 37 41 45 44 44 43 39 38 36 35 35 
83 83 84 86 89 109 125 118 112 119 124 123 116 72 29 55 114 133 90 28 31 99 125 74 21 43 88 65 21 69 133 135 117 89 27 2 37 43 19 52 126 141 117 115 119 91 69 101 140 140 128 112 57 8 9 75 142 152 130 119 118 89 30 18 87 149 156 145 129 114 121 124 113 64 12 21 59 64 57 40 30 67 124 134 96 45 12 18 28 32 31 26 21 49 102 132 126 121 122 123 120 117 128 139 109 39 1 13 32 35 37 38 39 40 43 43 40 39 37 38 37 
87 86 84 83 87 105 118 112 110 118 120 121 110 66 22 49 125 158 103 21 20 101 133 78 22 48 101 76 24 51 123 137 117 83 21 21 78 71 29 39 107 141 130 116 112 60 5 34 105 133 122 87 25 7 20 29 44 93 135 130 119 83 25 11 49 83 112 145 153 132 120 120 115 67 23 45 104 114 96 51 14 41 110 146 96 37 12 31 41 37 35 32 31 57 103 128 123 118 120 122 120 120 132 136 99 31 2 18 35 35 34 37 39 43 46 47 46 47 41 35 33 
83 85 85 83 83 107 119 112 118 124 118 118 105 55 8 7 21 19 20 26 44 97 117 67 15 50 112 84 34 41 117 141 118 74 17 35 93 95 47 30 85 130 132 120 117 107 94 93 111 124 98 43 7 14 28 28 25 48 102 138 119 86 30 2 17 28 28 32 90 134 139 117 117 118 105 98 114 121 98 38 8 52 111 131 86 22 13 64 89 82 68 52 38 66 103 124 125 122 122 120 118 121 134 135 93 25 1 20 33 34 36 40 40 41 45 47 46 41 41 41 38 
80 83 85 84 87 104 124 122 114 119 120 116 111 68 25 19 28 29 28 32 62 106 115 59 9 47 113 99 36 27 95 134 123 79 15 23 98 113 55 19 77 131 133 121 120 120 120 116 118 120 85 24 21 60 72 54 36 35 80 132 136 76 16 5 24 30 22 19 36 95 131 131 123 120 120 117 120 120 80 12 2 64 114 122 77 22 13 70 114 112 100 98 104 105 115 124 122 119 122 124 123 123 135 134 90 21 2 22 33 35 37 38 40 44 46 44 41 41 43 40 37 
78 77 77 79 81 85 116 131 113 108 118 122 119 112 102 89 73 58 58 68 90 122 112 47 13 63 123 109 45 18 75 130 136 88 21 19 102 123 66 16 60 123 139 124 123 125 123 124 124 114 73 19 19 90 128 106 51 8 47 113 126 79 32 20 44 69 61 31 21 66 119 134 122 123 128 125 129 96 31 0 36 96 122 118 70 18 19 96 158 154 130 121 126 126 125 124 126 128 125 125 121 124 137 134 86 19 2 19 27 32 34 35 37 41 46 45 44 44 43 41 40 
58 58 64 74 68 64 95 139 147 126 114 121 119 117 116 118 119 115 111 115 120 122 108 62 30 69 121 110 51 14 68 131 134 76 14 21 99 123 83 20 27 95 141 131 118 121 124 122 122 115 67 14 32 98 130 109 58 12 44 110 132 107 90 84 89 101 90 59 16 40 109 140 128 123 123 129 116 64 2 14 71 106 121 119 81 22 15 67 111 140 156 152 122 117 121 123 122 125 123 120 122 125 138 134 82 14 0 22 29 31 33 37 39 40 44 46 46 45 44 44 43 
31 34 35 35 37 44 54 90 143 169 169 172 165 141 132 129 117 117 122 116 119 129 120 105 94 99 115 118 78 38 62 116 136 79 17 35 108 117 92 33 22 91 144 132 123 122 120 120 119 111 73 20 37 108 134 106 53 6 43 115 138 129 119 120 123 119 104 79 17 30 98 141 129 118 119 120 79 19 6 45 89 121 125 114 71 27 13 20 17 12 47 112 138 135 120 119 122 121 123 121 123 124 137 128 71 6 4 24 28 30 36 37 39 43 44 47 48 45 45 44 43 
19 21 22 22 27 28 29 35 53 83 113 132 153 171 173 165 162 153 137 130 130 121 121 117 113 115 107 98 97 87 99 109 114 84 38 51 100 120 102 37 12 72 131 129 116 122 122 121 122 109 72 28 45 110 142 110 44 5 49 111 129 141 153 150 126 118 104 58 13 35 96 136 125 120 120 94 34 7 30 83 114 126 119 108 68 24 11 24 28 25 28 39 99 132 131 119 121 122 122 124 120 124 137 126 65 7 4 21 30 31 32 33 40 46 46 48 45 46 47 46 45 
15 14 14 14 12 19 23 22 21 20 19 19 33 63 98 125 138 145 158 175 171 163 152 129 115 105 60 7 0 13 35 60 109 128 96 92 112 125 112 58 26 64 113 125 115 117 121 124 121 109 74 30 22 88 149 111 26 2 58 125 121 57 8 52 114 130 99 44 6 46 102 132 119 118 108 53 4 14 60 103 118 123 119 108 55 8 9 48 56 41 31 26 60 120 137 120 121 122 121 123 119 126 138 126 59 5 4 22 25 30 32 33 38 44 45 47 46 47 47 46 46 
17 17 18 19 17 18 18 20 21 19 18 20 16 22 21 19 27 43 64 86 135 153 160 162 166 157 109 45 0 0 0 26 99 136 116 114 123 122 120 103 83 88 106 115 118 116 119 120 117 116 95 53 13 10 14 17 17 30 71 105 99 53 4 41 111 134 105 51 1 48 102 123 115 107 74 10 5 48 98 119 118 119 120 116 103 77 71 89 98 87 54 12 39 104 135 125 120 121 122 120 117 125 135 117 52 2 5 21 28 31 33 33 36 40 43 45 47 46 44 43 45 
16 15 15 16 17 12 19 24 15 14 17 12 16 14 14 19 21 18 17 22 17 20 31 70 115 142 156 159 154 148 130 128 149 141 111 112 121 114 116 121 118 116 119 122 119 120 123 125 123 123 115 96 44 12 17 23 27 58 95 114 107 74 19 15 82 154 134 34 5 52 109 131 117 85 37 7 28 78 116 123 122 120 121 123 120 116 110 113 118 104 62 18 28 94 134 130 121 121 124 124 119 130 142 119 55 2 6 23 28 29 32 36 36 40 45 46 49 48 47 47 47 
15 14 14 15 22 20 21 20 15 18 21 15 12 15 19 16 13 20 23 15 18 15 18 21 22 20 31 63 97 121 141 158 175 173 168 176 168 163 153 139 128 124 122 118 119 117 120 125 125 126 124 114 95 73 58 59 66 79 105 116 119 85 39 17 19 29 31 19 39 68 113 133 110 53 4 9 54 99 120 116 117 120 121 122 132 145 141 119 112 106 66 18 33 95 126 119 115 118 119 118 117 125 138 116 56 3 7 24 23 26 33 38 36 37 45 47 48 48 48 48 47 
18 19 18 18 13 20 20 17 18 18 17 19 19 18 12 14 20 17 14 20 19 20 21 17 19 18 15 22 19 20 12 11 27 64 109 135 149 163 171 168 164 162 159 154 132 115 111 119 120 119 123 122 120 117 116 112 113 117 120 117 115 113 82 34 20 27 27 34 41 82 123 125 76 13 2 37 115 150 161 152 140 125 109 95 72 85 120 135 122 103 62 19 34 97 130 122 118 119 119 121 120 129 137 110 44 1 6 21 27 30 33 35 36 39 45 46 46 47 48 49 48 
16 18 17 17 17 14 16 21 19 18 18 17 16 15 20 22 16 15 17 12 18 18 13 17 19 17 20 20 17 21 23 24 18 18 26 18 24 50 83 111 131 142 150 157 158 162 165 159 144 133 130 122 118 123 121 119 122 120 122 120 124 119 116 84 55 52 52 60 77 110 124 112 66 18 16 33 34 56 80 112 136 133 111 88 32 6 54 116 123 98 54 13 43 98 130 124 118 118 120 124 121 129 134 110 43 2 9 24 27 31 33 35 38 41 47 47 48 48 47 47 49 
18 19 17 12 9 12 15 15 13 12 15 18 15 17 18 17 17 16 17 18 18 16 14 15 15 16 15 15 17 14 12 15 19 18 17 19 23 20 19 22 27 30 47 76 114 132 148 157 164 171 172 167 155 143 133 126 119 119 124 126 126 122 121 118 107 95 96 106 116 112 116 106 60 13 7 28 29 23 21 23 45 98 129 109 45 11 45 118 160 126 48 0 47 112 128 115 117 117 117 119 118 126 135 98 30 1 8 21 22 26 31 34 36 39 44 48 46 45 45 45 46 
17 17 16 14 17 15 15 16 18 18 17 16 15 15 16 16 17 17 16 15 17 18 18 18 15 14 14 14 17 18 17 16 17 16 16 19 14 17 17 14 14 17 18 20 24 21 32 61 93 118 140 154 159 165 167 164 161 158 148 137 134 125 118 116 117 117 116 118 116 114 116 109 93 82 74 65 56 46 35 33 64 112 128 112 66 23 19 50 82 72 28 24 69 121 134 120 117 119 121 117 118 126 129 90 27 3 20 29 27 30 34 37 38 41 46 49 49 48 48 47 48 
15 14 15 17 17 15 16 17 18 18 18 19 18 17 15 15 16 17 18 17 17 16 16 17 19 20 17 16 16 19 19 17 17 17 15 13 16 19 20 17 15 17 24 26 26 24 24 24 20 18 24 35 57 89 120 137 146 151 156 165 162 158 150 141 136 133 128 121 113 114 113 100 83 82 91 96 91 86 79 76 86 111 126 117 89 45 12 12 21 23 29 43 78 113 122 117 118 118 119 117 119 128 125 84 20 0 15 23 26 29 33 35 36 38 43 46 49 49 49 49 50 
17 17 16 17 18 16 14 14 18 20 20 18 18 17 15 14 14 15 17 18 14 15 16 17 18 17 14 14 16 19 18 15 16 17 18 18 18 19 16 18 20 21 26 30 24 25 24 23 25 29 28 25 25 25 24 29 46 69 94 114 133 139 146 149 153 155 153 148 139 132 107 59 9 0 4 11 44 84 110 109 105 113 122 123 110 74 46 33 32 34 48 76 108 124 121 116 117 118 119 117 118 130 126 80 16 0 17 22 26 29 34 36 36 39 44 47 47 48 49 50 52 
16 16 18 19 15 17 17 16 14 16 17 15 18 18 17 17 16 16 15 15 17 17 16 14 13 14 15 15 18 19 18 16 15 15 16 18 17 19 16 18 20 19 21 24 29 29 28 25 25 28 29 30 26 26 28 29 26 24 22 18 24 40 65 89 108 122 135 143 147 153 156 129 70 19 1 1 12 64 117 120 110 120 126 123 120 115 101 83 81 86 92 105 119 122 121 120 117 120 122 116 119 129 125 76 14 0 16 24 24 27 32 34 36 39 45 48 48 50 51 52 52 
19 19 21 20 16 18 18 17 16 17 18 16 18 17 16 17 18 19 18 17 13 16 17 15 13 15 16 16 17 18 18 18 17 15 14 15 16 16 15 17 18 17 17 16 22 22 23 24 25 25 25 24 25 20 24 29 28 26 28 28 30 30 30 29 26 27 36 48 86 107 129 138 146 151 140 121 113 126 140 140 138 131 124 131 125 128 120 115 112 114 121 119 122 122 122 120 117 118 118 115 116 131 129 73 10 1 18 24 24 27 32 35 37 40 46 49 47 49 52 53 54 
