P2
121 46
238
109 109 110 113 114 114 113 115 114 115 115 114 115 115 115 113 115 112 111 112 110 109 111 112 109 107 107 105 104 103 102 99 103 105 107 105 105 108 110 110 108 110 112 112 111 113 113 111 109 108 108 108 105 103 102 102 98 99 98 96 95 97 98 95 94 94 93 94 93 91 93 96 97 99 96 95 93 88 86 82 79 75 71 70 70 68 66 69 59 50 40 34 30 29 29 27 19 17 17 20 24 22 20 20 25 22 22 27 28 25 24 27 29 24 19 27 35 32 22 13 18 
86 90 94 96 96 98 101 103 105 105 108 111 110 110 111 112 113 112 113 113 108 105 107 107 105 103 104 104 100 96 98 102 100 99 98 101 103 104 104 104 107 109 109 107 109 112 113 113 110 113 114 113 112 113 113 111 112 111 111 111 110 111 112 110 109 110 108 107 108 107 105 102 101 102 102 99 97 101 104 98 96 97 98 97 96 96 93 90 87 86 84 85 82 75 71 73 65 62 56 50 45 35 31 35 35 32 29 28 26 24 23 23 26 27 26 33 39 31 20 19 24 
66 71 76 79 80 81 83 86 87 91 93 93 96 101 103 101 105 108 111 113 110 109 110 111 112 111 110 110 109 109 108 105 102 100 101 101 101 101 97 94 97 102 103 100 100 99 98 100 104 105 104 103 105 107 108 110 115 112 111 114 114 114 114 113 114 118 118 118 118 116 115 112 111 109 110 110 110 105 98 104 105 104 103 101 100 101 99 94 94 96 95 94 92 90 90 89 91 89 87 89 91 87 81 80 75 77 74 71 68 68 67 63 59 54 53 60 66 54 43 42 35 
35 38 41 44 48 52 56 59 71 74 74 76 81 83 85 87 90 89 90 92 92 95 98 98 100 101 102 103 102 103 107 108 105 105 107 105 103 102 100 99 99 97 99 100 96 95 97 96 98 97 95 96 101 100 98 100 103 103 105 107 107 108 110 110 112 113 113 115 118 116 120 122 119 117 116 119 119 117 115 111 111 108 108 109 110 108 103 99 98 98 98 96 93 96 99 95 96 97 100 100 93 89 90 90 89 89 87 87 88 89 88 87 81 82 83 83 84 81 77 77 72 
47 48 45 43 45 43 39 39 39 41 45 47 50 54 57 65 71 70 72 74 73 77 82 84 82 85 89 86 88 90 86 86 90 95 96 95 98 98 96 97 102 98 96 97 96 94 96 95 91 93 95 93 92 93 93 94 96 93 92 98 98 96 97 97 97 98 100 102 102 103 105 109 114 114 114 117 119 121 122 121 125 129 129 125 123 124 124 125 123 122 121 116 112 110 108 104 100 100 96 93 96 98 97 97 97 95 93 92 91 89 87 86 92 91 89 90 90 87 84 86 83 
57 57 54 53 55 54 52 52 50 46 39 39 38 37 30 25 33 33 34 40 47 48 51 58 58 59 62 68 71 72 71 73 76 72 79 80 78 81 83 84 86 87 87 90 90 91 94 95 95 93 93 92 92 92 90 90 89 91 91 87 88 90 90 95 94 93 94 96 96 96 96 97 99 101 101 100 104 107 108 108 113 116 117 117 119 122 125 127 129 128 131 134 134 133 134 135 132 134 134 132 129 127 125 125 124 120 116 113 112 112 108 103 105 103 103 101 94 92 92 89 90 
57 58 59 59 59 58 57 57 56 56 59 43 15 26 63 49 9 3 0 0 0 0 0 1 7 23 32 36 41 48 54 54 52 55 57 61 63 65 67 68 71 73 73 73 74 76 80 83 82 85 88 90 88 87 87 86 88 86 87 85 86 89 85 83 85 83 85 88 89 87 87 88 86 88 87 88 91 93 96 98 96 99 102 104 107 108 110 113 115 115 118 120 121 122 124 126 129 131 134 138 140 141 142 143 147 148 148 147 146 146 146 145 143 144 143 139 136 135 133 131 123 
60 59 60 61 62 63 63 62 58 62 53 67 123 199 217 217 211 208 212 213 207 195 165 127 86 53 16 1 0 0 2 6 2 1 7 19 25 34 47 44 46 47 48 55 61 61 62 65 67 66 68 72 73 73 76 80 76 79 81 85 84 83 85 80 79 82 83 81 80 80 82 83 85 82 82 85 86 86 88 90 86 88 92 93 93 92 93 95 95 96 98 99 100 102 105 108 108 110 111 113 117 117 119 123 126 126 129 132 134 137 140 142 151 155 156 157 160 163 163 163 165 
57 58 59 60 59 59 61 62 67 56 72 134 158 107 46 59 86 102 113 123 144 165 180 192 196 200 202 199 198 199 190 179 167 145 113 70 31 5 1 2 1 1 1 1 4 9 20 32 34 37 42 47 51 54 56 56 57 63 62 63 66 67 69 70 73 73 74 76 76 76 77 77 75 74 77 80 79 78 81 82 79 81 81 81 83 84 84 85 86 87 89 90 90 90 90 91 93 93 92 96 103 103 101 103 101 101 103 107 110 112 115 117 118 119 122 125 126 131 135 136 139 
61 62 63 65 66 66 65 65 61 53 77 128 127 93 115 135 133 123 122 123 114 105 97 86 90 86 92 98 103 114 122 125 136 151 168 179 187 192 193 192 190 183 164 138 110 78 43 16 2 1 1 2 3 4 6 10 13 23 36 41 42 43 45 51 53 56 58 58 60 65 67 66 65 69 71 72 71 71 73 76 74 75 73 73 75 76 74 74 76 79 80 80 80 81 82 83 87 87 89 90 91 92 92 93 94 94 94 95 98 100 99 96 102 101 99 100 100 100 102 104 105 
59 61 60 59 60 60 61 65 66 65 81 128 138 124 127 135 132 132 132 133 134 134 132 134 134 127 124 123 121 121 111 94 94 111 81 44 59 96 116 118 132 144 156 162 168 177 186 186 181 184 182 175 166 151 130 115 80 52 26 7 0 2 3 4 7 6 9 15 20 24 33 41 46 49 50 51 53 56 57 58 59 60 61 62 63 63 63 66 69 72 72 71 72 74 75 77 78 79 79 80 83 85 85 86 88 89 90 88 88 89 90 91 95 96 93 93 96 94 92 94 96 
60 62 61 60 63 62 61 63 56 56 81 133 146 132 135 137 129 127 125 122 116 114 117 122 125 124 126 130 129 127 117 95 80 84 83 78 95 117 118 114 113 107 101 99 93 88 89 89 89 92 104 124 138 144 151 159 166 171 171 171 170 168 171 172 160 147 127 104 89 77 58 42 20 18 18 19 23 25 26 24 26 29 32 36 39 40 46 54 54 56 56 58 60 58 58 62 68 71 71 69 72 73 71 73 75 76 77 79 78 77 79 81 81 82 86 88 88 88 88 87 89 
59 60 61 60 60 60 61 62 57 57 89 139 147 132 134 134 133 136 139 139 140 141 138 134 127 134 127 116 111 98 96 111 115 88 51 47 92 140 146 128 131 130 132 127 127 128 121 122 118 120 116 114 107 93 89 90 92 85 86 90 95 105 115 122 132 139 145 148 154 157 154 160 156 143 125 126 139 147 142 130 122 104 84 75 68 50 29 17 13 14 11 10 12 12 15 22 24 15 4 1 25 66 62 58 59 60 60 65 65 63 68 68 70 72 73 73 71 72 74 73 75 
61 61 62 62 62 62 61 60 54 55 87 137 146 133 135 135 137 147 156 152 144 143 144 142 150 145 144 143 146 159 158 139 83 47 50 91 112 105 100 98 104 104 112 116 115 119 124 126 128 129 127 128 126 125 128 127 125 124 120 121 120 115 115 111 103 92 85 87 88 90 94 90 79 61 62 88 112 115 114 130 150 156 160 165 173 179 181 185 188 189 186 181 172 154 141 143 136 132 167 175 78 2 6 34 32 34 43 41 41 47 44 51 49 52 53 53 54 55 56 56 62 
57 58 59 59 60 60 60 58 58 56 83 128 137 125 129 129 132 137 133 135 138 138 141 140 137 139 136 142 140 100 75 93 112 86 68 97 145 151 137 142 140 144 150 152 144 131 110 86 103 122 114 102 109 110 111 118 117 118 119 121 125 127 125 123 124 128 125 125 127 124 121 117 93 76 87 108 98 71 56 77 94 91 87 87 87 84 88 101 109 118 135 148 155 163 168 168 175 196 224 238 178 74 4 0 4 17 15 11 18 22 23 24 28 31 32 32 33 36 37 40 46 
60 60 61 61 60 59 60 60 57 56 84 131 140 126 131 133 133 140 139 140 141 141 143 142 142 139 138 139 135 128 127 131 129 105 105 116 115 128 148 151 143 140 103 98 135 142 124 117 129 141 151 156 152 139 134 131 135 129 130 125 117 117 114 110 107 109 114 115 116 118 117 115 103 86 74 80 80 60 56 89 130 127 124 124 126 125 119 115 117 105 101 97 86 81 82 81 78 72 78 101 137 163 114 27 1 13 32 32 32 33 29 35 34 34 34 32 31 32 32 33 32 
59 58 58 60 59 58 59 61 58 56 81 131 143 128 130 131 131 129 135 137 136 142 140 139 135 144 145 138 136 140 136 124 113 103 78 80 113 117 91 79 122 118 109 119 134 133 112 83 109 144 116 67 82 128 143 133 132 138 138 141 144 141 142 146 139 139 140 135 131 133 126 110 94 89 100 103 67 25 37 92 125 122 122 125 125 125 127 128 126 126 124 123 124 125 124 122 115 119 113 102 103 151 199 176 68 5 16 36 33 39 39 38 38 38 39 41 40 40 38 37 39 
60 59 58 60 60 58 58 59 59 54 78 128 142 128 130 134 124 120 113 122 137 151 144 129 125 138 135 129 120 84 63 79 127 119 127 130 120 121 124 112 128 142 132 122 132 135 124 115 126 128 118 108 110 121 133 134 124 96 65 77 121 133 112 94 129 132 127 130 134 134 137 136 129 108 83 65 59 67 86 118 127 125 125 125 123 124 125 123 122 121 119 121 122 123 125 126 124 127 128 126 114 132 184 181 84 11 11 37 39 35 37 39 40 39 42 44 45 45 45 44 41 
59 59 59 59 60 60 60 59 60 58 84 133 145 131 134 139 139 139 142 150 128 104 114 143 147 120 103 112 135 160 160 140 133 118 103 113 129 121 114 124 121 125 116 103 110 115 102 90 109 122 123 125 130 125 126 133 124 112 107 109 116 116 103 100 126 123 113 113 116 114 115 109 123 130 108 63 54 100 136 136 130 130 130 132 133 132 133 134 134 131 132 132 127 127 128 125 125 127 125 121 122 132 166 173 91 11 16 40 37 37 40 42 42 41 40 42 43 44 45 46 45 
59 61 60 57 57 59 60 59 56 53 78 127 143 131 132 134 131 134 122 65 6 4 13 25 71 127 144 101 58 48 73 108 129 138 134 116 113 134 153 153 127 114 97 89 97 99 93 100 98 109 104 96 99 117 132 130 121 111 95 98 114 115 105 102 113 114 115 118 118 115 115 118 130 129 101 79 75 100 131 135 126 130 130 130 132 132 132 135 133 133 134 133 132 132 133 133 117 114 126 125 121 133 153 126 44 6 25 40 36 37 42 45 43 43 41 42 44 43 42 43 44 
59 58 57 59 62 61 58 60 58 56 79 128 143 130 129 132 133 129 91 29 22 42 43 31 47 104 144 107 34 2 14 26 17 38 92 139 140 98 68 79 112 125 134 139 135 125 104 96 101 108 101 91 95 108 112 113 112 104 110 115 116 102 90 92 103 115 109 110 111 112 109 118 141 134 109 97 102 103 121 131 127 129 129 131 132 134 133 134 134 132 133 132 129 130 135 142 126 115 126 134 127 132 143 118 42 7 29 45 38 36 38 39 40 42 42 43 45 44 44 46 47 
56 57 57 57 58 57 55 55 57 54 81 132 142 128 130 134 131 125 79 22 46 113 121 76 29 83 132 108 40 12 22 26 28 17 51 109 126 74 10 0 15 13 7 16 52 107 129 126 129 124 118 122 121 115 121 130 136 136 130 117 103 92 95 94 87 85 80 60 79 94 83 54 56 94 102 71 61 91 125 133 132 133 133 131 130 131 131 132 135 132 134 135 130 132 133 125 115 116 124 128 126 133 140 113 36 4 26 39 34 36 38 39 42 44 42 42 44 46 46 46 47 
41 41 43 47 51 52 53 55 56 57 81 129 143 130 129 133 132 125 77 26 58 131 134 74 22 73 129 111 45 42 94 126 89 38 40 101 132 79 16 13 32 29 19 28 59 108 129 129 121 124 125 128 125 125 125 108 46 41 81 125 133 122 120 122 128 137 142 136 139 127 102 103 110 97 90 83 78 99 123 121 119 122 124 127 131 131 132 133 129 135 134 133 133 133 128 119 113 119 128 129 126 137 143 104 33 7 31 43 39 41 42 42 43 42 40 42 45 45 45 47 46 
39 37 37 35 35 39 43 43 47 45 79 134 142 126 130 132 133 126 75 26 61 131 138 94 56 83 122 98 33 37 99 133 105 29 16 90 133 81 27 44 102 113 94 81 92 119 127 126 124 123 125 129 124 127 118 71 11 32 104 140 131 126 125 129 131 79 13 16 83 142 138 127 122 122 125 132 135 137 139 147 129 107 110 113 115 114 109 110 120 119 119 122 127 131 133 130 120 118 122 126 124 134 144 104 25 4 29 39 36 38 40 43 40 43 43 42 43 45 46 46 48 
75 59 52 52 47 42 42 40 34 37 67 122 140 128 127 131 132 119 68 26 68 133 144 126 127 127 133 93 25 35 109 153 109 30 16 89 125 66 17 55 113 127 122 122 123 122 122 128 128 123 125 130 123 126 107 43 8 57 123 140 125 120 122 119 59 6 1 16 11 26 79 125 126 124 127 98 39 0 14 77 134 141 134 124 125 127 137 146 144 145 142 127 109 103 108 110 109 118 123 124 125 137 141 93 19 6 33 41 38 40 40 41 43 42 43 46 46 45 46 48 47 
100 102 107 107 98 91 83 74 54 49 76 127 135 123 128 133 128 122 72 23 59 129 143 130 134 130 130 91 31 38 110 160 119 45 26 89 131 76 20 47 115 132 124 116 116 124 129 126 125 127 129 128 124 123 89 19 16 81 126 127 120 122 115 79 24 7 29 33 29 27 46 93 130 128 97 38 2 10 17 16 37 95 132 131 122 127 118 70 9 20 75 133 145 133 125 124 122 124 128 129 125 135 142 97 17 6 33 38 35 39 40 41 41 42 43 43 44 47 47 44 45 
37 43 50 57 66 73 80 85 91 92 105 136 139 126 128 131 130 123 74 22 52 122 139 129 124 119 119 90 32 0 10 22 18 16 48 105 122 67 26 57 142 166 164 157 137 123 124 129 127 127 124 126 131 116 67 14 29 96 136 135 127 124 118 86 23 25 84 113 87 39 16 73 137 127 58 4 14 39 43 30 25 53 112 134 125 97 38 3 7 18 19 37 88 128 133 128 125 126 131 130 124 134 139 91 16 3 30 39 35 39 40 42 41 39 41 44 44 45 46 46 47 
33 35 34 34 39 38 39 47 52 52 78 129 142 129 128 131 129 126 78 22 49 122 142 128 124 124 125 99 46 11 17 33 22 42 82 127 138 76 7 4 41 70 76 94 118 128 134 140 161 156 135 125 131 107 45 2 51 124 139 122 122 125 118 76 13 27 105 139 103 37 5 61 129 114 51 8 43 102 119 81 29 33 92 134 113 53 3 17 68 71 48 26 49 108 140 131 125 127 129 127 127 137 139 97 24 4 28 38 35 35 35 40 42 42 44 44 43 45 48 48 48 
30 29 31 33 31 33 34 31 29 30 61 116 137 127 124 126 125 126 76 23 48 111 137 144 161 153 131 93 38 19 51 71 45 19 49 118 134 84 20 11 25 23 15 48 99 130 122 81 14 38 116 141 130 102 36 9 62 115 122 114 126 125 103 79 18 22 86 137 117 41 2 48 131 111 48 14 48 118 132 90 22 9 79 138 115 37 2 60 118 119 80 28 18 80 135 129 121 122 124 123 122 133 138 94 25 7 28 38 37 41 42 41 40 41 42 42 43 44 44 44 44 
30 31 31 31 32 34 34 33 27 27 54 110 132 126 127 125 128 123 75 22 49 125 141 101 49 71 123 115 53 33 80 126 111 55 27 87 136 92 29 27 51 52 36 56 99 127 118 79 22 34 98 135 132 78 9 28 97 144 161 151 141 132 114 78 26 31 92 136 114 41 4 47 122 120 54 8 49 122 134 88 28 4 68 132 120 48 8 59 132 127 90 41 17 65 128 136 124 123 125 124 122 136 141 91 15 4 30 38 36 39 39 38 40 40 41 43 44 43 43 44 43 
33 33 31 31 33 31 30 33 37 32 50 109 138 122 120 129 126 120 81 29 47 136 167 113 20 42 127 116 41 26 78 136 120 54 31 87 125 82 29 48 111 124 110 110 120 126 127 118 115 116 124 127 115 52 8 54 121 117 80 68 103 135 123 80 13 25 90 132 111 44 7 50 123 114 50 3 45 127 161 120 36 13 78 137 115 42 8 63 137 153 94 19 12 72 126 131 119 123 121 121 126 139 139 89 16 3 26 35 33 35 36 37 38 41 42 41 39 41 44 44 47 
31 32 30 31 34 32 31 34 37 35 53 112 144 131 126 128 127 124 97 47 17 45 66 34 14 60 123 114 50 29 93 160 145 54 15 86 139 87 24 44 110 138 129 122 122 125 128 122 121 124 127 127 95 28 17 82 138 112 32 14 90 139 117 73 4 23 92 133 112 47 10 50 128 121 63 5 14 74 112 79 17 16 89 138 113 50 5 30 114 157 110 17 7 80 132 130 123 122 122 123 124 135 134 81 12 5 29 37 36 38 39 38 37 39 42 44 41 38 41 45 48 
32 34 34 33 34 35 35 33 36 32 57 117 141 127 124 128 131 131 120 85 34 6 18 31 34 82 119 105 37 8 65 117 100 40 32 86 126 87 25 45 115 138 127 124 124 124 124 121 121 125 124 113 70 12 27 102 157 115 34 24 103 158 127 66 15 33 99 135 109 43 8 49 119 133 99 44 8 3 20 17 28 52 108 125 122 103 45 8 6 18 17 26 57 96 118 124 122 121 122 121 120 132 132 80 12 6 28 33 32 34 37 37 40 43 44 42 41 43 46 46 46 
31 32 33 33 33 35 35 33 33 27 45 104 147 136 119 125 128 131 128 120 96 62 44 45 77 114 130 99 38 4 7 20 19 26 43 93 123 77 24 42 111 137 126 122 122 124 125 122 122 118 122 118 67 9 2 16 10 18 26 43 73 116 125 76 15 29 93 130 102 35 3 51 126 139 121 92 57 32 24 29 43 78 119 131 129 97 37 7 18 29 27 44 95 133 131 122 121 125 124 120 121 133 132 80 11 7 28 35 36 36 38 39 40 39 40 43 44 43 43 44 46 
35 34 34 36 35 35 35 35 38 39 40 75 138 160 137 127 119 124 128 127 129 127 122 125 125 128 127 112 65 35 42 46 41 42 76 121 126 68 10 34 113 139 127 122 122 124 125 125 121 126 122 113 68 9 5 25 26 20 27 34 41 91 121 75 9 24 94 139 111 35 0 50 118 134 120 119 110 86 32 13 47 102 128 119 102 53 11 20 60 69 45 22 56 121 140 125 124 124 126 124 122 135 134 77 10 10 33 37 36 37 38 39 40 41 41 40 43 45 46 45 47 
30 30 31 33 34 36 37 38 38 37 38 50 101 161 182 186 176 162 156 150 144 138 124 117 122 123 126 125 123 120 118 104 95 103 120 129 125 83 27 40 109 135 122 118 120 122 123 123 123 125 123 117 98 80 76 69 67 51 35 31 44 95 123 81 18 35 114 165 133 44 0 44 120 139 119 124 118 71 1 14 86 124 124 118 104 39 13 69 123 111 71 27 32 93 132 126 122 123 122 120 120 131 128 74 6 3 20 26 29 31 31 32 37 38 39 40 41 41 43 45 45 
31 29 28 29 30 29 30 32 32 35 36 33 40 79 134 172 180 183 185 186 186 188 187 186 175 169 158 147 135 131 118 79 14 1 4 52 109 123 112 110 114 120 121 124 123 122 126 125 120 124 124 122 125 126 124 123 113 82 25 14 80 132 121 95 31 14 51 115 98 22 6 52 119 129 124 125 97 25 5 49 110 121 119 114 91 33 20 79 132 115 80 26 25 83 128 128 121 121 122 119 118 130 128 74 7 3 16 22 16 20 22 28 29 27 28 29 29 33 37 35 36 
30 29 30 32 34 33 32 33 36 35 33 34 34 30 22 17 23 26 41 68 98 124 144 157 168 177 180 182 184 185 170 138 84 35 10 42 101 132 119 113 117 119 120 118 120 122 119 120 122 120 120 122 126 125 124 124 122 83 23 14 82 135 129 109 72 25 1 11 22 19 44 84 125 124 123 113 66 3 12 82 122 119 116 114 97 42 24 83 135 139 96 32 22 80 129 132 122 122 123 118 116 130 130 77 10 3 22 31 26 27 25 23 25 27 30 31 30 29 31 32 30 
57 52 45 38 36 35 35 37 34 35 32 33 36 32 30 36 32 30 26 24 24 23 16 13 18 40 60 77 93 121 150 165 171 178 181 188 193 189 190 188 171 158 156 148 138 131 124 122 121 122 121 121 124 124 124 126 120 118 96 87 107 120 117 119 108 70 28 8 13 36 71 98 124 128 126 78 15 1 47 110 128 116 120 120 104 57 19 44 112 153 109 22 8 85 134 125 118 122 124 118 115 129 131 81 9 10 39 58 66 67 66 66 68 66 59 54 54 51 39 28 32 
47 55 60 58 54 53 49 42 43 37 30 30 35 35 31 32 31 33 33 31 31 34 34 33 31 30 31 29 24 20 20 20 34 48 78 100 114 123 135 151 165 171 173 177 182 183 184 184 181 171 158 145 135 132 129 122 125 127 118 113 118 116 114 122 124 116 109 104 98 98 112 127 126 117 97 47 7 32 88 128 126 117 126 125 112 83 39 15 24 23 20 28 53 100 125 124 120 119 121 120 122 130 122 68 5 8 30 36 38 39 48 57 72 71 72 76 82 86 90 93 91 
29 29 32 36 39 47 57 59 62 61 61 56 49 45 40 35 37 36 38 40 38 34 32 33 34 32 33 32 30 31 33 31 20 12 8 7 10 11 11 15 17 25 45 73 95 118 143 153 155 172 180 179 179 181 182 183 179 168 152 144 144 137 129 129 123 119 120 126 125 118 116 119 123 120 99 77 65 75 104 126 125 123 126 128 121 107 75 37 29 27 27 39 84 123 127 120 120 122 124 120 118 127 124 75 7 3 19 20 19 26 33 35 29 32 36 39 43 48 51 52 60 
28 27 29 29 23 20 29 35 38 40 46 49 51 57 59 54 52 48 46 45 44 41 36 33 29 31 31 29 29 31 29 26 25 30 27 27 29 29 28 20 19 22 17 9 8 7 4 2 13 19 30 55 89 109 124 142 153 160 170 177 180 179 181 186 180 180 175 165 153 142 132 125 116 102 47 4 0 6 50 102 126 123 116 122 126 121 115 103 89 79 86 100 112 116 122 120 122 122 122 118 120 127 118 63 4 0 14 18 19 20 20 23 28 25 27 30 29 27 28 32 34 
28 31 32 29 27 27 32 35 30 32 33 33 34 37 41 42 46 49 50 51 53 54 48 41 35 38 37 34 32 29 30 31 27 23 29 29 26 25 20 25 25 20 23 23 23 24 24 24 20 15 14 14 10 8 7 4 2 9 28 51 77 103 121 125 145 159 173 178 178 180 185 190 196 172 112 58 34 23 45 92 138 131 118 118 120 115 115 121 118 118 121 124 123 121 124 125 122 123 124 121 120 128 122 73 4 1 9 13 15 14 10 14 14 17 20 22 23 24 26 30 29 
26 29 28 29 32 30 28 29 33 33 30 31 34 30 27 30 30 30 32 35 38 39 42 45 46 47 45 45 44 40 38 35 34 34 35 34 30 29 30 27 27 28 25 24 26 24 24 27 25 28 29 28 26 23 23 28 24 22 18 13 12 18 18 9 9 12 27 48 63 75 92 110 128 151 173 175 176 177 178 193 197 195 195 192 186 174 155 147 143 134 121 120 120 120 115 118 123 122 118 117 125 134 114 44 1 0 9 11 8 13 12 12 13 16 17 17 20 18 17 20 20 
29 31 31 32 35 34 32 34 35 34 33 32 31 31 32 33 30 26 24 25 25 25 26 28 35 37 39 43 44 45 46 46 49 47 44 39 37 37 35 32 34 31 30 30 30 28 28 30 30 30 27 27 27 28 27 27 24 24 24 24 24 24 25 25 23 22 19 17 16 13 10 8 7 5 18 46 68 85 104 115 124 132 145 160 170 178 180 180 185 185 190 193 184 177 171 158 144 132 131 142 163 141 82 16 2 6 11 13 12 12 12 14 13 15 18 20 20 19 16 15 15 
30 29 30 33 34 35 35 34 37 36 35 34 32 32 33 33 31 29 26 25 25 25 27 30 30 30 30 30 33 35 36 37 36 39 41 43 45 46 44 40 42 41 39 37 36 35 33 31 31 32 30 29 29 31 31 29 29 29 29 29 29 29 30 30 29 28 27 26 27 26 24 23 20 18 18 19 16 11 11 11 10 13 17 22 24 34 56 76 97 114 126 138 156 166 175 186 181 174 173 178 150 82 17 0 4 7 11 12 12 12 12 13 14 15 17 18 18 18 16 15 19 
