P2
121 46
247
92 90 81 63 42 31 37 46 60 65 66 61 57 55 50 44 42 36 40 55 64 60 55 59 64 63 62 42 7 0 11 18 50 64 67 58 58 74 97 115 95 70 61 68 66 60 59 59 58 55 53 52 52 54 54 54 60 60 58 55 50 46 45 46 45 46 48 49 49 51 54 55 49 53 51 45 43 47 49 48 50 49 45 47 54 57 54 53 53 55 56 53 49 48 49 51 47 48 48 49 50 50 50 50 55 55 56 56 57 57 58 58 56 55 56 55 54 54 55 55 57 
95 93 80 58 38 33 37 40 52 64 76 81 83 83 76 68 59 50 48 58 65 62 59 61 63 53 26 12 21 27 22 18 21 47 65 63 56 55 54 52 77 92 108 98 72 61 61 58 62 60 60 59 57 57 57 56 56 55 53 53 52 50 49 50 50 48 50 51 49 50 53 55 50 47 47 50 50 47 47 50 49 47 43 46 53 54 48 44 50 53 55 55 56 56 57 56 56 56 55 54 53 52 50 50 49 50 50 50 51 51 51 51 55 55 56 55 54 54 55 54 56 
99 93 80 62 49 43 38 33 27 29 37 46 58 71 83 92 92 87 82 75 68 64 63 64 63 43 20 19 36 45 42 38 21 28 50 67 64 50 28 7 5 7 5 5 19 42 60 67 59 58 60 60 57 57 60 59 65 61 58 59 59 56 55 54 54 53 53 52 48 51 56 56 49 53 54 49 45 46 48 49 51 50 47 48 54 54 48 43 48 51 52 52 52 54 55 54 55 55 55 55 55 55 55 55 56 56 55 54 53 53 52 52 54 54 54 54 54 54 53 52 51 
109 98 80 63 50 43 42 42 41 34 30 30 27 23 26 34 55 70 82 78 67 63 63 61 60 35 16 24 47 59 55 48 41 19 34 65 70 57 41 22 20 30 26 17 18 23 36 52 63 57 55 56 55 58 59 56 56 55 57 58 58 56 58 61 54 55 58 55 49 52 54 49 52 51 52 53 54 53 51 50 53 51 48 50 56 57 51 50 51 56 57 55 53 54 57 57 54 55 55 55 56 57 56 56 57 57 56 56 56 55 55 55 51 52 53 55 55 55 55 54 53 
113 100 87 68 45 36 39 39 34 33 29 28 26 24 22 21 17 12 11 36 65 69 60 62 55 29 15 38 62 62 59 59 52 24 12 40 70 63 33 16 35 50 47 44 40 23 23 33 60 65 58 55 57 57 56 46 25 14 24 53 64 55 50 54 54 57 58 57 59 60 57 56 55 55 54 54 51 48 49 50 46 47 50 46 41 45 51 50 51 53 57 60 58 57 58 57 58 63 60 60 59 57 61 57 56 54 58 59 60 62 59 65 48 50 55 59 58 57 58 57 58 
113 86 64 53 46 45 44 38 34 34 31 29 28 27 26 25 26 21 18 35 61 65 56 57 54 33 21 43 64 66 64 61 58 47 38 47 60 54 30 16 36 58 58 54 52 38 27 21 48 63 63 56 56 59 56 41 19 21 31 49 60 60 56 55 56 57 59 60 60 58 56 57 60 68 73 70 63 61 59 54 56 55 56 54 50 51 53 50 50 48 50 54 54 54 57 59 59 57 56 56 60 63 59 55 54 57 57 58 59 59 58 54 57 57 60 60 57 57 58 57 57 
110 81 60 53 46 42 40 38 36 35 34 31 28 26 25 24 26 25 21 34 58 64 56 56 46 28 21 43 62 65 64 60 59 60 58 59 61 53 31 13 36 63 65 59 60 54 40 20 33 59 67 58 56 62 55 35 20 21 28 45 59 57 52 57 58 57 57 59 59 57 60 63 86 61 35 35 56 65 60 58 56 58 63 64 62 62 61 57 61 57 54 54 54 52 50 50 51 51 59 56 54 57 55 60 54 57 53 57 59 56 59 54 50 54 60 60 58 59 58 54 56 
122 87 59 52 47 42 39 39 35 34 33 30 29 27 26 25 25 26 26 41 64 68 60 60 48 27 20 43 62 63 63 60 62 63 62 64 64 56 37 19 37 65 67 58 61 61 47 20 21 53 68 59 57 62 51 28 21 26 26 36 55 60 53 54 58 56 55 57 57 57 59 57 25 2 3 13 18 42 63 61 50 52 52 50 50 56 63 66 61 64 65 63 63 62 60 60 58 57 58 52 51 55 53 53 55 58 56 57 58 58 59 55 56 58 60 58 56 59 62 60 57 
125 89 57 50 52 48 41 38 36 35 35 34 30 28 28 28 24 24 24 42 64 66 58 60 55 28 17 42 63 61 59 59 62 61 62 63 63 55 38 21 31 61 67 61 63 62 48 20 16 46 63 58 58 60 45 24 26 33 26 28 52 66 60 56 58 59 57 59 60 58 56 42 21 18 33 34 18 23 44 61 57 53 39 23 16 17 18 18 19 23 24 30 46 57 56 51 60 64 65 72 71 63 62 60 59 60 62 56 54 57 57 57 53 55 59 59 57 59 60 57 59 
119 94 69 59 56 50 43 40 39 38 38 36 31 29 28 28 28 26 25 42 64 67 60 64 58 30 15 41 67 65 61 65 62 62 62 62 64 61 43 19 29 59 67 62 61 61 50 26 15 41 61 59 58 56 39 21 27 37 26 21 44 64 63 57 58 60 57 58 58 57 54 34 18 38 47 43 41 23 16 47 62 59 43 23 20 25 23 19 18 19 15 21 45 60 59 54 65 68 48 36 42 62 79 72 60 55 61 62 60 57 54 60 59 59 62 62 58 58 59 59 59 
131 115 90 71 61 55 49 46 41 41 39 38 36 35 34 33 28 27 23 36 59 66 60 62 54 29 11 35 64 63 59 64 62 63 63 59 58 58 42 17 34 61 66 59 56 58 52 30 15 41 62 61 58 53 33 17 25 45 37 16 30 60 65 55 57 58 55 60 58 55 51 31 20 39 53 49 50 47 26 22 58 61 45 23 22 34 39 37 33 29 24 28 44 51 50 53 49 27 9 7 8 12 34 57 68 59 55 55 56 56 62 72 86 79 73 68 61 56 58 60 58 
138 133 115 90 71 61 55 52 47 45 43 42 39 37 36 35 30 30 25 34 57 65 59 57 56 37 16 35 64 62 56 59 63 72 81 77 66 57 42 21 26 57 64 57 56 60 57 35 14 41 64 62 57 51 29 14 33 49 43 23 28 49 60 61 58 62 64 75 70 60 52 29 25 42 63 57 49 48 35 28 47 60 52 30 27 41 49 50 45 30 18 27 50 55 49 49 28 9 10 25 30 19 10 20 63 68 62 59 60 64 69 62 22 27 45 63 67 61 56 54 57 
141 138 125 111 92 77 69 57 51 49 49 48 45 43 41 35 35 33 29 38 57 66 58 59 61 40 17 28 60 68 58 56 56 52 54 58 59 61 45 15 28 55 62 57 54 57 54 31 10 42 63 59 53 48 29 15 35 51 45 30 23 40 63 53 56 57 47 48 59 60 53 40 21 36 61 60 52 51 36 20 40 60 59 50 52 54 55 54 46 33 17 30 53 60 56 45 26 19 44 58 52 44 37 18 38 68 73 59 62 54 25 8 16 18 16 20 48 70 65 57 55 
165 163 134 108 101 88 70 58 56 54 52 50 45 42 44 43 35 33 31 38 56 65 58 58 58 47 27 29 61 76 68 62 61 46 20 21 49 58 40 25 23 50 64 57 56 60 54 37 20 39 60 58 54 44 20 18 40 56 50 36 18 31 67 62 54 56 39 20 33 58 60 42 22 18 49 83 87 59 23 14 42 58 56 50 52 53 54 53 47 28 15 34 55 57 53 46 20 19 47 59 53 50 42 18 15 48 66 61 52 30 10 13 23 24 24 11 11 47 70 60 55 
167 189 156 108 109 111 87 78 73 66 61 57 51 47 46 47 45 43 38 39 53 63 60 59 64 58 39 15 24 70 105 107 72 21 2 29 54 56 43 26 24 55 56 53 51 53 57 34 12 36 62 59 56 42 12 13 59 73 64 47 20 20 56 59 57 51 43 37 44 58 57 48 37 13 13 30 36 22 14 31 47 57 54 53 56 54 54 53 46 24 17 39 57 56 51 47 23 21 49 60 55 55 51 28 15 44 66 61 43 19 15 38 54 51 42 30 23 34 55 65 56 
156 204 195 131 110 124 111 88 84 72 64 62 59 57 54 53 48 45 43 41 53 64 63 62 63 58 53 35 14 19 33 31 12 17 29 44 54 57 44 22 28 58 60 59 60 61 59 28 6 42 66 57 50 39 14 14 33 57 64 53 26 13 40 62 59 51 51 48 48 55 56 55 49 36 23 14 17 19 23 39 54 56 53 56 57 56 55 54 43 23 22 43 57 57 52 46 22 16 47 64 59 55 51 31 11 40 66 61 44 30 31 50 52 56 54 44 20 16 47 71 60 
247 242 230 176 122 120 128 118 97 84 73 68 63 60 59 57 49 48 48 48 56 65 65 65 62 62 59 52 38 21 17 23 25 36 42 47 58 57 40 23 21 51 89 100 94 77 33 0 10 45 59 54 46 26 13 16 22 14 11 11 14 18 34 62 58 53 59 58 56 60 58 57 55 54 48 38 30 23 25 45 57 55 52 56 57 54 56 53 38 19 24 46 55 54 49 44 24 14 45 64 57 53 51 33 10 36 66 64 52 51 49 56 55 59 57 53 34 19 39 64 58 
241 243 237 190 140 138 147 136 125 117 106 92 80 73 71 68 62 57 57 54 57 64 69 74 56 58 59 61 60 53 47 44 42 47 55 57 56 62 53 29 11 9 14 10 7 10 9 17 34 48 53 59 49 20 13 26 31 14 15 16 17 20 28 57 65 56 55 57 57 57 56 58 56 56 56 53 38 18 24 54 61 55 53 58 57 55 58 53 36 17 30 55 59 54 51 50 28 15 43 60 54 53 55 36 16 33 62 61 51 54 54 57 59 59 58 56 37 13 25 59 58 
245 213 163 129 128 142 149 145 138 136 130 117 105 98 92 86 77 70 67 63 60 63 70 81 84 65 55 55 53 54 57 54 56 58 59 60 61 63 57 47 39 40 36 38 33 25 35 41 52 52 51 54 42 16 17 40 43 39 45 43 36 25 22 44 64 64 57 54 55 57 57 54 58 57 56 55 42 22 30 56 62 55 54 59 57 56 60 54 27 12 31 55 56 52 51 50 27 10 39 62 56 53 51 33 15 26 60 65 55 57 53 55 57 65 80 65 23 10 33 54 57 
197 218 236 233 192 143 130 137 144 145 144 136 128 124 115 103 92 85 84 79 70 65 68 78 93 101 106 102 92 82 71 60 63 59 59 63 63 60 58 56 53 54 55 53 49 47 48 50 54 56 61 56 40 22 23 46 49 52 50 49 49 35 21 33 60 65 57 55 56 55 59 60 54 59 60 51 31 18 34 60 60 54 53 57 54 54 59 52 23 15 38 57 55 56 55 51 35 8 34 62 57 51 52 40 12 21 58 66 58 61 58 57 57 52 42 18 10 21 37 50 57 
108 95 104 145 194 219 218 209 162 152 153 155 150 146 141 130 121 115 105 98 94 85 70 57 58 64 67 71 80 88 94 102 101 97 87 77 74 74 68 58 57 56 55 56 54 53 54 54 57 58 58 55 47 41 44 52 56 55 56 59 56 43 26 17 50 70 59 52 57 58 60 55 57 54 57 51 29 21 40 59 55 52 54 58 58 57 55 52 22 14 35 57 57 54 51 50 35 20 27 59 62 52 57 45 26 20 50 67 60 56 55 60 58 54 29 6 10 31 40 53 49 
146 150 161 158 137 118 125 146 184 180 174 165 158 157 158 154 149 142 132 123 118 110 97 85 63 55 47 47 53 57 57 57 66 74 81 84 86 90 95 95 85 83 76 66 60 57 47 33 22 38 50 54 57 54 52 55 58 56 55 56 56 49 31 16 40 63 63 56 56 56 59 59 57 56 60 47 19 19 47 67 59 56 57 58 57 56 52 46 21 19 42 59 54 50 50 51 36 24 22 47 59 52 51 43 21 16 47 74 62 52 56 56 56 51 40 24 16 33 49 64 54 
123 130 136 144 156 169 168 161 140 137 135 141 147 149 150 155 156 153 150 147 143 138 130 122 109 94 79 67 56 48 49 53 49 50 52 53 56 59 61 62 68 76 82 83 81 78 60 38 26 26 24 34 52 55 49 49 52 56 58 56 55 55 53 51 45 54 59 60 60 58 58 62 57 58 60 41 18 31 56 59 51 51 52 53 56 57 52 42 19 21 44 58 54 53 53 53 45 21 20 52 65 56 54 47 26 17 42 68 58 53 63 53 54 54 48 35 17 20 35 61 59 
95 105 113 116 120 131 143 150 162 165 158 148 143 144 145 145 149 151 153 154 154 155 153 148 138 119 104 99 93 89 84 78 64 61 58 58 57 56 55 55 54 55 56 59 61 66 69 67 56 51 53 72 94 98 85 77 69 64 59 59 59 57 54 53 57 52 56 58 59 60 57 60 58 59 54 30 15 35 60 63 53 54 56 56 58 60 52 40 21 28 50 59 55 55 54 52 44 35 23 42 62 53 46 52 30 16 36 59 59 69 88 87 60 56 51 50 38 23 22 51 61 
75 76 84 93 98 101 108 116 124 129 142 155 156 149 147 147 143 144 143 143 145 148 151 151 143 139 137 134 124 117 111 102 91 84 76 71 67 63 59 57 55 51 51 52 51 54 63 69 78 79 80 76 68 69 78 82 85 84 85 87 85 76 66 61 62 63 67 58 52 58 58 57 62 56 49 45 46 52 57 57 53 54 56 57 57 57 49 36 19 31 54 59 52 52 53 52 51 35 14 29 69 87 72 50 19 9 36 57 53 48 51 59 60 55 49 54 52 31 15 33 64 
55 61 69 72 75 82 90 97 100 104 110 115 123 136 146 145 143 143 142 139 137 138 138 137 132 133 136 137 137 137 134 128 124 117 107 98 92 87 82 77 71 67 66 62 56 52 50 47 48 43 48 53 51 55 60 57 63 62 62 67 78 86 85 80 88 90 91 78 68 69 67 65 62 62 59 57 55 52 54 60 56 56 56 56 56 55 47 37 28 37 53 56 53 55 54 53 48 48 31 9 19 66 75 37 7 9 40 55 50 36 13 9 45 67 60 49 50 37 15 34 64 
53 52 55 58 60 61 66 71 76 80 83 90 97 101 109 118 138 140 143 143 143 143 141 139 132 130 128 129 132 132 131 132 131 134 133 126 118 112 106 103 82 79 77 73 68 64 60 54 53 45 43 46 43 41 43 43 44 50 54 55 56 60 62 63 66 68 73 75 79 84 85 87 83 80 75 69 65 63 60 56 55 52 52 54 55 56 55 50 49 50 55 55 56 59 56 53 58 58 46 22 10 11 13 15 19 28 46 50 49 46 26 9 34 75 91 81 65 37 13 29 57 
44 43 44 46 50 53 54 54 60 66 63 65 75 80 81 87 95 101 108 115 124 132 136 137 135 132 127 128 130 126 122 126 122 123 120 114 114 116 111 105 95 92 89 83 75 70 69 66 65 61 56 54 53 51 48 44 43 39 37 38 40 42 45 47 52 57 58 56 59 64 65 65 68 66 73 81 84 88 90 87 78 71 66 64 59 56 55 52 55 53 56 53 52 55 55 55 53 51 49 44 39 31 21 19 33 44 53 53 51 50 43 24 12 26 59 70 35 4 4 26 55 
26 38 37 33 36 40 41 41 51 51 54 58 60 62 67 71 75 79 84 90 95 104 112 119 122 124 128 130 131 131 131 132 127 123 118 113 110 107 104 101 94 91 88 88 85 81 76 74 75 70 66 66 64 59 55 54 49 48 47 45 42 40 40 39 37 35 36 40 45 48 51 54 58 57 59 62 63 64 65 63 70 72 77 82 84 84 81 79 62 59 56 42 20 9 13 19 33 55 59 49 51 53 47 45 50 52 53 53 53 52 47 41 24 20 15 12 13 17 28 39 52 
31 29 45 57 45 34 38 42 39 41 46 47 45 48 53 54 58 61 65 68 71 76 82 86 94 97 106 117 122 121 123 128 132 131 129 127 125 123 122 121 115 109 101 92 88 86 84 81 73 74 72 67 63 61 59 57 54 54 53 51 49 48 48 47 40 39 37 34 31 33 38 42 46 45 46 48 48 51 55 56 57 59 61 62 60 61 63 65 68 73 74 62 40 21 18 22 30 44 48 44 45 47 46 48 52 55 56 57 58 58 53 49 50 41 28 23 26 33 42 49 48 
39 41 58 72 57 25 15 28 34 34 36 37 37 39 43 43 45 48 52 55 57 60 62 66 68 72 78 86 93 101 108 113 122 124 127 130 131 132 133 134 137 136 131 125 121 119 115 109 93 95 94 89 84 79 72 66 58 54 50 49 50 50 48 45 45 46 46 44 42 42 43 45 45 43 41 38 31 30 33 31 36 40 45 49 52 54 55 57 55 59 63 68 67 59 50 46 51 75 92 87 74 67 62 59 51 52 54 55 57 59 58 57 55 52 49 48 47 47 49 52 54 
79 81 78 77 69 39 10 10 18 16 14 19 25 28 29 34 36 39 42 44 45 46 47 49 54 56 58 60 65 73 81 86 97 101 108 113 117 122 127 131 136 140 143 144 143 141 137 133 137 135 133 129 123 118 116 116 106 98 85 73 64 58 53 51 47 46 46 45 43 41 43 45 44 43 43 42 38 37 36 33 29 29 29 31 35 37 35 34 44 46 47 53 64 69 72 78 74 66 65 70 71 74 81 87 83 80 76 69 63 58 54 52 51 52 52 52 51 50 50 50 50 
73 81 86 82 71 55 35 18 18 22 19 18 23 23 19 22 27 29 33 36 38 40 42 43 45 43 46 52 53 52 55 61 69 74 80 85 89 95 104 109 118 140 158 165 170 175 170 157 142 139 140 148 157 156 144 132 127 129 129 126 119 112 107 105 84 68 53 48 45 41 39 39 40 37 36 37 36 38 39 36 38 37 36 37 38 38 36 34 29 30 26 25 26 27 33 42 49 50 55 55 51 55 59 56 63 66 71 76 81 82 83 83 71 65 58 54 53 53 51 49 49 
70 67 70 72 72 70 50 19 8 18 19 16 19 18 14 16 16 18 20 23 26 29 33 34 33 34 38 42 43 43 44 47 51 54 58 61 64 69 75 80 87 87 92 105 116 129 147 164 171 173 169 162 156 158 157 153 140 139 136 134 133 132 129 128 124 122 122 122 115 101 86 78 59 50 43 38 35 36 37 33 34 37 39 40 39 37 37 37 38 37 36 36 34 28 26 26 28 23 29 41 42 41 47 52 55 54 53 54 57 59 63 67 70 73 77 79 80 79 75 71 57 
75 70 68 69 69 71 63 47 19 18 21 23 23 20 19 19 17 17 17 17 19 20 21 22 23 25 27 28 29 34 38 39 39 42 45 47 49 51 56 59 62 68 70 68 74 88 99 99 103 116 129 137 145 155 157 154 149 146 144 143 144 145 144 143 133 127 119 113 116 122 122 120 124 120 118 113 101 85 69 56 41 41 40 37 34 29 29 29 33 33 35 37 34 34 37 39 34 34 35 34 30 29 29 27 31 33 39 44 47 49 52 55 52 55 57 55 55 60 65 68 69 
66 61 69 73 66 68 68 56 27 9 9 21 21 16 17 18 20 19 17 16 17 18 19 19 19 17 19 22 23 23 26 31 28 31 35 38 39 41 43 45 52 49 50 57 63 65 68 72 79 83 89 97 105 114 118 119 125 131 136 138 137 139 146 153 170 184 185 162 134 123 122 123 125 123 123 124 124 126 127 125 123 119 111 101 88 73 58 49 31 29 33 34 29 30 37 40 42 39 36 36 35 33 33 35 36 33 31 30 29 30 35 41 44 46 47 46 48 51 53 52 54 
69 66 64 65 66 66 65 66 51 26 12 15 18 16 17 18 17 17 17 17 18 20 19 16 17 17 17 18 18 19 19 19 23 24 27 28 29 31 34 36 41 42 43 44 47 48 50 51 56 59 65 71 77 84 90 93 104 110 117 124 129 130 130 130 132 129 135 153 174 179 169 156 131 134 134 132 130 128 127 125 127 127 128 128 129 129 128 127 119 111 95 74 53 38 30 29 34 34 34 35 37 39 37 34 38 39 37 35 36 38 37 35 31 29 30 35 38 39 41 43 45 
64 67 67 64 64 66 64 62 62 50 27 13 15 17 19 23 18 18 18 18 18 18 20 21 18 18 18 18 18 18 18 18 15 17 19 20 21 22 24 26 33 34 35 37 38 39 41 41 45 46 47 49 51 56 61 65 72 75 80 86 93 102 109 114 121 122 126 131 131 129 129 133 133 135 136 135 134 134 134 133 132 131 129 128 128 128 128 128 129 131 133 133 130 126 122 119 90 68 46 37 34 30 29 30 27 28 34 39 40 37 35 35 37 35 33 31 33 34 33 30 33 
68 66 64 61 60 60 62 66 59 56 45 27 16 17 22 22 17 17 18 19 19 18 18 18 18 18 18 17 17 16 16 16 17 18 18 18 17 17 17 18 21 22 23 25 28 30 31 33 35 37 39 40 41 43 46 48 50 52 55 59 65 71 77 81 87 97 103 105 111 124 129 128 126 132 141 144 144 142 138 135 138 137 136 134 132 131 131 131 131 128 124 123 125 127 128 127 129 129 131 129 118 97 73 58 37 30 25 24 26 28 34 38 35 37 38 38 41 43 42 36 37 
67 64 63 63 64 60 61 64 61 60 58 44 23 16 19 20 20 20 19 18 20 21 19 15 18 18 17 17 17 17 16 16 17 18 19 19 18 18 19 20 16 17 18 20 22 23 24 25 29 31 35 36 36 36 37 38 39 41 43 46 49 51 53 54 59 62 67 74 81 88 92 94 102 109 117 123 127 132 134 134 136 137 137 137 135 134 133 133 133 131 129 129 131 132 130 128 122 125 126 125 128 133 133 130 130 118 97 76 61 51 39 29 27 33 38 37 36 38 43 45 40 
71 71 67 63 62 62 61 58 54 59 58 52 43 29 21 21 22 24 22 18 19 22 23 20 16 16 18 18 18 18 19 19 16 17 17 17 17 17 18 19 19 19 19 18 18 18 18 18 22 23 24 24 24 26 28 30 34 35 36 37 37 40 43 45 50 48 49 55 59 61 65 70 74 78 82 86 91 98 104 106 113 116 120 123 127 130 132 134 132 133 135 137 137 135 132 130 130 130 128 123 122 125 128 128 124 127 130 132 134 131 121 112 80 64 46 36 35 36 38 40 44 
73 71 66 63 62 62 61 59 56 58 58 57 55 46 33 21 17 21 23 20 19 20 20 19 16 16 17 18 18 19 19 19 16 17 17 17 16 15 16 17 19 19 18 18 17 16 16 16 15 17 19 20 21 21 23 24 27 28 29 30 31 33 36 38 41 39 38 40 44 48 48 47 53 55 55 57 61 70 79 83 90 93 97 101 105 109 113 117 124 125 127 128 129 131 134 136 135 139 140 136 132 132 130 126 122 121 122 125 126 125 125 127 123 121 120 116 104 86 72 66 51 
60 59 62 66 66 63 61 62 63 57 56 57 55 57 53 42 24 21 20 22 22 19 16 17 17 17 17 17 18 18 18 18 16 17 18 18 17 17 18 19 17 17 17 16 17 17 17 17 15 17 20 21 20 18 15 14 16 18 22 23 23 24 26 28 29 29 34 39 38 35 36 41 40 44 48 50 53 54 55 54 60 64 68 72 77 82 89 94 99 103 109 114 117 120 122 123 131 134 137 141 146 151 151 148 145 136 127 121 119 118 120 123 124 124 124 126 126 125 123 123 109 
58 62 64 63 61 61 61 61 62 63 59 58 59 55 51 52 45 28 17 20 23 20 18 21 18 18 18 17 18 17 17 17 19 20 20 19 17 16 16 17 19 19 18 18 18 18 17 17 16 18 19 19 18 17 17 18 17 18 19 19 17 18 20 22 20 27 30 28 25 29 31 30 30 35 38 39 41 42 43 42 46 50 53 55 56 57 59 62 71 73 76 81 86 93 99 102 110 111 119 129 130 126 132 143 157 157 156 160 164 162 149 137 135 134 130 125 125 127 125 122 125 
56 58 58 58 59 60 58 58 59 57 58 57 54 55 56 53 54 54 48 35 24 21 19 16 20 18 18 21 23 22 21 21 20 20 18 18 18 18 18 18 18 18 18 18 18 18 18 18 18 18 18 18 17 17 18 18 19 19 18 18 18 18 17 17 17 17 18 19 20 21 21 22 29 29 31 33 34 36 37 37 39 40 41 43 44 46 47 48 50 52 55 59 60 61 65 71 72 75 80 84 90 100 105 106 106 109 113 117 123 129 136 140 135 134 134 132 131 130 130 130 128 
60 59 59 60 59 56 54 56 56 54 56 57 55 55 55 54 55 52 51 51 44 31 24 25 17 22 23 20 20 22 21 18 18 18 17 17 17 17 16 16 18 18 18 18 18 18 18 18 18 18 18 18 17 17 18 18 19 19 18 18 18 18 17 17 16 16 17 18 19 20 20 20 23 23 24 25 27 28 29 29 35 35 36 38 39 40 41 42 42 45 47 48 48 50 53 56 55 58 62 65 69 74 76 76 83 85 88 91 95 100 105 108 117 118 121 123 125 127 129 130 129 
