P2
121 46
158
51 50 50 49 49 50 50 51 52 51 51 51 50 49 45 39 21 27 33 34 32 27 23 21 15 22 30 31 30 30 34 39 40 43 44 47 52 50 49 53 56 56 54 59 63 58 56 60 56 56 52 54 59 64 78 97 118 122 120 120 124 126 112 93 80 65 42 32 37 40 36 34 34 37 42 43 43 42 44 45 48 47 43 43 50 51 50 52 54 52 51 53 54 53 52 51 54 52 52 54 56 57 58 60 61 63 65 65 66 70 70 68 73 74 76 77 79 79 80 80 80 
48 48 49 49 49 49 48 48 49 48 49 49 49 49 46 39 30 28 32 38 67 125 145 105 74 52 28 13 14 21 22 20 23 19 22 34 42 39 37 42 39 42 44 47 50 48 50 57 56 56 53 53 56 53 48 49 48 45 44 48 59 73 89 101 113 116 117 121 124 115 99 88 62 56 48 40 36 36 38 39 38 40 41 44 49 48 46 44 47 49 50 50 49 49 51 52 52 54 56 53 52 52 53 54 53 53 54 56 57 57 58 59 62 63 65 67 68 69 69 69 73 
46 47 48 49 49 48 48 47 46 45 46 47 48 49 46 40 28 21 24 82 148 158 149 154 154 154 152 143 126 103 79 66 39 31 30 36 37 33 32 34 33 32 33 37 38 35 37 44 43 48 50 50 53 53 50 50 52 50 52 58 54 47 44 49 48 51 51 51 58 68 81 94 106 104 103 105 105 99 86 77 70 57 43 37 37 40 41 39 36 40 42 40 40 43 45 45 47 46 46 47 50 53 52 49 53 51 51 53 53 50 48 51 53 52 50 50 50 52 54 57 58 
49 48 49 48 48 49 49 50 45 44 45 46 47 49 46 41 32 26 56 113 128 111 112 117 126 128 131 134 137 140 142 143 144 136 125 110 89 76 67 58 53 53 48 41 39 40 37 31 32 35 35 35 39 42 43 44 46 45 45 48 50 48 49 52 53 53 51 49 48 48 47 48 46 48 51 53 57 65 76 84 100 105 108 105 106 111 100 75 71 62 47 38 40 45 39 29 29 34 40 42 42 44 46 48 45 46 49 51 51 48 46 46 51 51 51 51 52 52 52 52 53 
49 49 47 47 48 48 49 49 48 46 47 47 47 48 46 40 35 30 66 111 89 45 49 72 68 68 67 67 72 84 102 115 118 122 129 128 125 130 129 119 119 117 112 106 97 85 71 59 46 41 34 29 25 25 28 31 35 36 36 36 38 41 42 43 45 45 46 46 45 46 47 47 53 52 51 51 51 50 50 49 51 45 46 52 57 64 74 78 102 108 113 113 112 112 109 103 87 72 58 54 48 39 36 42 35 38 38 37 38 41 46 47 44 45 46 48 49 50 50 50 48 
46 46 46 47 48 47 46 46 49 47 47 46 46 47 44 39 22 31 74 97 74 71 87 86 85 84 83 82 80 77 73 69 68 70 76 83 92 99 99 95 71 69 72 78 89 107 121 129 129 121 114 103 83 65 51 44 37 31 24 21 23 25 26 26 28 32 38 39 34 34 38 39 38 40 43 44 44 45 49 52 47 51 53 49 48 52 51 44 44 44 43 44 54 68 77 80 95 110 117 114 114 120 118 109 94 89 76 59 46 42 42 41 39 39 39 40 40 40 41 41 45 
46 46 47 47 47 47 46 46 49 47 46 45 44 45 43 38 29 30 73 95 78 79 93 97 96 96 94 92 89 87 86 86 88 84 80 80 81 77 73 73 72 74 68 58 64 95 116 116 122 124 131 138 141 145 146 140 138 130 118 105 88 67 45 32 25 22 22 23 21 23 25 24 30 30 30 34 39 41 40 38 39 40 39 41 47 49 47 45 48 49 50 50 49 48 47 46 45 40 39 45 52 58 65 72 97 103 111 116 117 117 118 118 112 102 86 70 56 47 44 43 37 
48 48 47 47 47 47 48 48 47 45 44 43 43 44 43 38 26 35 87 102 76 82 94 88 93 94 95 93 88 85 85 86 85 86 86 87 89 84 81 85 78 68 56 47 46 60 71 69 71 81 97 103 106 117 128 128 134 142 148 149 148 149 149 149 143 132 117 100 77 63 51 42 32 30 28 25 23 23 24 25 31 33 32 35 39 37 35 40 44 43 44 46 47 46 46 46 50 51 51 50 49 48 47 47 41 40 41 44 45 47 56 64 75 82 94 105 113 116 116 115 118 
45 47 48 47 46 46 45 46 44 44 42 41 42 44 42 38 34 37 79 101 83 84 98 99 95 97 100 98 92 89 92 95 89 92 90 88 87 84 84 86 85 76 59 45 50 68 77 76 75 77 75 72 72 71 72 74 81 84 95 103 104 108 118 123 130 135 137 139 142 141 140 144 138 132 120 104 84 70 58 47 28 30 31 32 31 29 30 32 29 34 37 36 36 38 39 38 41 43 45 47 48 48 47 45 50 50 47 48 52 49 46 49 50 46 46 45 44 50 57 56 72 
42 46 48 47 45 45 44 43 40 43 43 42 43 45 41 36 29 34 79 104 87 84 95 96 94 98 101 99 93 95 101 104 97 93 96 98 96 96 95 89 84 83 75 67 67 73 79 84 80 85 83 76 77 81 77 71 70 64 66 73 74 74 75 75 78 78 84 100 111 109 108 115 123 125 129 130 129 131 131 128 117 115 110 101 92 81 67 54 38 28 24 30 33 29 25 26 32 31 30 32 36 40 41 39 48 46 42 41 46 48 48 48 45 47 48 48 47 47 49 48 48 
44 43 41 40 43 47 46 43 41 44 44 42 43 45 43 39 32 35 74 99 83 79 94 99 96 95 95 93 90 93 95 92 95 92 96 96 92 93 98 97 92 90 87 90 96 90 80 78 77 75 75 77 76 75 78 82 81 79 80 78 73 72 74 75 78 75 69 68 70 68 67 69 72 75 82 89 94 100 104 102 79 74 76 89 99 103 111 122 121 116 104 86 73 64 51 40 33 30 29 30 27 22 22 25 30 32 36 36 35 36 40 43 38 41 44 46 46 45 46 48 45 
75 69 60 53 47 44 42 41 43 43 43 43 43 43 42 40 35 33 67 98 90 83 92 94 90 92 95 94 88 86 87 87 93 95 97 95 93 93 95 98 94 97 96 95 97 94 96 106 116 103 90 87 85 81 77 74 75 70 70 76 78 76 76 77 76 83 82 77 75 79 80 76 73 74 75 73 70 69 68 64 69 69 70 67 59 60 79 102 121 125 129 128 126 126 128 128 113 117 106 80 63 59 53 43 37 32 33 34 33 33 36 34 34 35 37 36 35 39 43 41 42 
108 96 86 85 84 77 68 64 52 47 43 43 43 41 42 44 34 33 62 95 90 80 89 97 99 96 97 98 94 90 94 97 99 99 98 98 98 97 95 95 98 97 92 90 97 97 92 89 70 82 103 114 108 98 94 93 92 94 89 83 81 81 78 74 70 74 79 81 81 80 80 79 79 78 79 78 74 75 76 73 70 64 62 64 61 58 62 70 69 68 73 84 93 96 100 104 114 114 115 117 118 118 117 116 110 105 99 84 66 53 44 34 31 32 36 36 30 33 40 40 39 
132 133 134 128 110 92 83 85 83 77 73 71 67 58 48 44 35 31 57 93 93 79 86 95 90 88 90 97 98 96 92 86 85 83 90 95 92 94 98 95 95 96 94 94 96 98 94 85 80 71 63 59 64 80 92 88 90 105 111 107 106 108 108 105 105 97 92 89 84 78 75 73 78 77 78 76 74 76 78 76 74 63 57 60 57 52 60 73 72 72 69 66 68 71 70 64 68 72 76 80 86 95 100 101 109 112 116 118 120 117 100 78 39 21 14 28 35 33 35 38 37 
103 108 116 121 124 128 130 131 123 109 86 68 62 65 67 67 58 41 52 88 97 85 89 95 92 90 90 92 98 108 113 110 110 104 98 89 78 78 85 87 88 87 90 92 89 94 92 82 62 52 59 70 69 70 87 105 99 67 38 42 64 75 76 80 89 87 93 100 103 106 111 110 95 93 90 85 79 78 76 72 69 67 64 63 64 65 70 73 79 78 77 77 78 77 77 78 75 70 70 74 69 58 56 62 64 69 72 77 86 98 108 114 111 69 22 7 17 26 29 34 35 
33 33 37 50 76 104 114 112 118 124 125 123 124 122 107 89 69 57 70 105 107 88 90 98 92 93 93 96 110 130 133 120 98 100 102 105 107 107 106 106 87 82 85 86 83 87 88 79 69 77 76 61 60 82 86 65 65 69 70 70 67 58 57 64 56 56 65 76 76 75 80 81 108 107 107 104 101 100 100 96 83 82 82 80 71 64 68 76 71 72 74 77 80 81 81 80 83 78 76 77 79 78 76 76 80 77 71 68 66 64 77 99 123 112 63 15 10 24 30 32 32 
28 26 19 17 21 14 15 27 59 77 99 111 116 118 122 126 114 102 98 107 102 85 84 89 89 89 97 97 82 33 5 53 102 96 88 89 89 105 116 118 117 116 116 121 119 117 104 97 85 85 79 71 69 78 86 90 79 75 82 83 70 68 69 58 54 62 57 62 71 66 66 71 68 56 54 67 86 99 97 96 92 88 84 88 90 88 90 89 84 83 83 82 82 80 77 75 75 75 76 80 79 78 80 82 77 77 79 77 78 78 76 82 113 136 105 32 0 15 31 33 33 
24 30 26 19 22 22 19 19 13 16 19 24 39 61 78 87 107 104 103 109 102 86 86 89 93 100 111 97 63 17 7 53 96 98 86 85 89 89 76 73 98 106 106 108 111 115 105 100 97 92 86 83 81 77 76 78 77 78 64 53 65 68 59 56 47 53 70 72 66 65 69 74 75 69 61 62 71 64 54 70 88 94 90 86 83 83 88 86 88 88 89 90 89 88 87 85 80 79 78 78 75 71 70 70 74 74 78 79 80 79 75 78 94 119 112 51 2 9 31 30 31 
29 28 22 19 22 22 17 20 17 11 13 24 27 20 13 12 19 24 47 86 103 92 87 90 92 90 96 86 57 25 20 42 84 96 88 85 87 68 26 11 19 15 11 27 35 34 41 70 93 108 119 120 116 108 100 96 101 95 88 83 78 72 70 72 73 70 74 72 72 75 74 74 68 60 61 64 67 70 70 74 89 86 83 88 93 90 94 94 89 90 93 94 92 90 90 89 92 89 87 87 85 82 80 79 77 76 80 83 86 85 80 81 89 114 107 51 5 9 28 32 32 
79 62 43 37 37 28 20 20 21 21 23 25 26 25 23 22 16 13 35 83 107 94 86 94 93 90 92 78 43 19 24 39 65 86 90 87 89 71 25 5 20 34 25 21 24 27 38 67 87 67 42 44 65 83 94 103 110 106 90 81 86 88 89 98 89 96 89 85 83 76 75 73 74 65 62 64 68 64 60 70 87 92 89 89 93 94 95 90 95 95 94 92 89 89 93 95 90 88 87 86 87 87 87 88 80 77 80 82 84 85 81 82 96 112 95 40 4 10 27 32 33 
60 68 76 81 77 63 45 37 33 31 26 23 25 27 23 14 19 17 37 83 107 92 83 89 89 89 86 69 40 29 35 36 57 88 97 87 86 74 36 21 45 58 44 42 41 31 39 72 89 58 17 6 20 26 20 19 37 84 108 97 86 89 90 84 90 94 92 94 94 93 95 90 92 87 79 71 73 69 60 66 81 86 84 85 88 92 96 92 89 92 92 92 92 90 90 92 90 89 88 88 89 89 87 86 82 76 79 80 80 81 79 79 93 105 90 40 2 10 29 28 31 
15 23 29 29 30 41 58 71 76 71 61 47 35 25 22 22 19 14 30 77 105 92 83 90 90 95 84 48 16 22 38 32 41 79 96 87 84 73 36 23 67 93 84 79 81 74 72 85 76 63 35 20 29 34 27 24 29 26 61 101 97 86 90 88 88 89 94 96 104 107 103 111 116 106 92 81 85 92 85 83 85 85 81 83 84 82 84 83 88 89 90 92 93 93 93 93 94 94 94 93 94 93 87 83 75 71 77 81 79 81 80 78 85 101 87 42 9 16 31 30 32 
23 21 22 25 24 22 22 23 30 41 57 69 79 79 66 51 34 27 36 76 103 93 84 90 93 93 83 43 12 31 50 38 31 65 93 94 86 74 34 15 54 92 88 81 85 86 83 86 83 60 29 28 54 67 59 56 41 27 44 84 100 88 84 92 87 89 93 92 85 59 24 15 67 106 122 99 88 95 89 82 88 99 99 97 97 100 101 93 92 89 85 84 85 88 92 94 88 88 87 87 88 88 85 80 69 66 75 80 78 79 78 76 80 94 82 43 14 17 30 34 33 
22 21 25 29 27 24 21 19 20 15 14 16 20 28 43 59 66 66 65 83 98 90 84 87 90 86 79 41 10 37 63 52 26 48 83 95 85 76 42 19 56 104 108 100 98 97 90 86 85 67 35 28 58 81 82 80 65 36 19 51 97 97 79 84 81 84 87 79 44 15 16 22 22 23 64 100 98 92 92 90 90 93 94 105 117 121 116 105 92 90 89 89 90 90 89 87 92 89 87 85 87 92 90 87 75 72 80 83 79 79 77 75 75 81 81 49 8 8 29 30 31 
76 66 31 12 19 22 22 20 20 17 14 16 21 21 21 23 20 23 35 68 95 90 84 93 90 86 70 37 17 50 85 72 28 27 72 100 95 77 39 14 29 79 108 118 122 111 95 87 86 66 37 32 61 81 77 77 76 57 22 35 78 86 79 83 83 86 80 46 12 15 34 35 28 24 30 70 103 98 89 92 95 90 88 65 34 19 34 76 95 89 86 86 86 88 97 106 117 115 111 105 103 105 102 92 87 88 86 86 83 82 82 76 78 86 80 49 16 17 35 32 33 
34 53 70 77 70 52 39 35 30 29 27 24 22 24 27 27 24 17 20 60 103 99 83 89 90 83 60 27 16 54 87 74 37 20 65 103 89 73 43 11 16 26 27 22 19 31 63 87 82 66 35 22 54 88 85 77 78 59 29 30 69 87 81 82 81 82 74 41 17 30 58 76 63 37 17 46 94 103 90 88 88 90 82 45 13 20 49 79 92 89 89 89 87 85 76 64 50 59 71 84 99 113 117 114 100 93 83 82 81 79 79 74 80 89 86 57 17 9 29 35 30 
17 16 19 23 33 50 65 71 60 52 47 43 35 28 28 28 32 22 21 57 101 100 80 86 85 83 53 23 35 90 128 116 49 9 39 90 92 77 53 20 15 27 25 20 22 31 56 78 83 70 38 16 43 84 100 104 85 38 8 23 66 92 86 86 86 82 71 41 21 45 81 83 72 52 25 28 71 97 88 83 83 82 62 25 12 41 72 83 86 84 83 84 85 79 51 19 9 33 59 68 61 54 64 79 101 94 86 86 87 86 85 78 79 88 85 54 16 10 27 29 31 
19 11 13 16 16 16 15 19 26 35 43 46 46 47 48 49 39 27 23 48 86 95 82 82 84 76 42 15 21 48 70 69 60 29 39 81 96 80 52 22 26 62 70 56 47 47 64 86 90 72 39 11 12 23 21 22 23 23 24 38 70 88 92 107 125 109 73 31 7 35 81 84 72 56 28 20 59 97 94 84 87 75 43 17 23 51 76 87 81 87 90 89 85 68 40 17 22 49 74 72 47 19 10 20 21 22 21 29 40 58 76 79 73 86 86 57 15 8 27 31 31 
1 0 0 0 10 23 19 15 15 17 15 16 24 30 37 46 58 57 59 70 89 92 79 83 81 75 46 24 22 24 26 25 22 26 39 71 98 87 52 26 33 69 82 77 73 74 81 84 85 73 47 20 20 30 28 26 22 23 30 53 78 86 76 52 36 65 79 60 25 19 61 111 110 64 19 12 50 87 89 82 80 57 19 6 36 74 88 83 81 81 81 85 83 57 27 16 36 66 85 78 53 25 16 29 25 24 20 20 22 37 65 81 78 82 80 60 25 12 27 32 31 
57 54 37 9 0 6 13 17 13 15 15 16 17 16 15 19 27 28 31 48 84 94 76 79 82 74 39 19 30 42 39 30 34 34 35 60 96 94 52 20 27 74 95 86 79 81 85 84 83 79 53 19 21 46 50 41 34 24 30 64 88 90 71 35 13 41 85 86 52 22 25 66 72 38 17 30 61 80 83 81 71 37 17 28 56 78 85 83 80 81 84 85 69 34 16 26 58 72 77 70 49 20 16 41 39 37 32 29 23 30 59 79 72 83 87 65 22 6 25 36 30 
128 135 133 105 51 6 0 1 0 2 10 11 9 17 26 22 22 23 23 33 72 94 81 84 80 61 27 22 46 65 68 66 54 41 32 50 94 104 60 14 24 75 102 94 85 85 88 87 87 80 51 22 35 74 84 74 61 51 25 28 73 98 78 52 38 46 79 92 66 34 16 21 24 21 25 49 72 79 81 81 63 17 11 49 87 96 86 89 87 83 83 77 49 22 22 39 66 78 81 76 53 14 10 42 71 67 51 34 22 30 57 72 72 82 84 62 24 10 24 30 28 
53 57 71 98 115 124 122 102 59 16 0 2 0 0 12 16 21 21 21 28 67 97 80 67 76 68 43 39 61 76 78 76 72 60 38 31 66 96 68 27 19 58 103 121 114 112 116 106 90 80 54 30 37 65 77 76 76 66 45 21 38 84 95 77 67 72 71 71 45 15 24 35 33 30 29 58 88 93 83 73 37 20 20 42 90 120 106 92 89 85 86 70 29 10 34 63 68 75 72 72 73 51 38 50 77 75 54 29 21 41 70 78 76 80 81 66 29 12 25 33 35 
61 58 53 52 53 57 73 97 129 131 130 112 70 25 3 5 2 4 11 17 47 87 96 85 75 77 75 74 76 78 78 82 82 73 50 31 47 80 74 37 11 14 20 21 26 35 46 61 79 82 63 27 33 69 80 74 83 75 46 21 36 77 94 83 76 77 77 63 29 22 44 58 53 42 17 27 74 104 88 49 15 9 22 25 20 52 96 109 93 88 82 53 24 16 49 106 114 90 73 80 81 76 79 76 76 69 45 20 30 59 73 79 73 77 86 68 21 0 16 32 33 
70 68 63 60 60 59 56 53 52 63 82 104 119 126 128 128 82 35 2 0 15 67 114 110 76 70 74 81 79 78 81 81 82 81 74 65 68 80 72 47 25 30 28 24 26 25 26 41 79 94 61 24 34 73 105 107 100 82 42 11 26 70 88 79 78 81 77 53 22 26 58 71 69 54 29 20 59 100 76 21 14 23 32 29 20 25 53 92 95 81 61 31 15 20 32 44 89 109 100 79 81 84 78 83 79 60 29 13 39 73 78 72 71 73 83 70 28 10 26 38 42 
77 76 73 68 66 68 65 58 58 57 54 53 51 54 65 76 113 124 124 113 90 81 108 137 137 120 98 82 77 76 76 78 77 80 80 77 77 82 81 73 69 67 58 49 49 43 41 59 84 85 61 25 14 23 26 29 38 37 27 22 40 72 85 80 84 82 78 51 14 31 78 92 78 61 40 24 40 68 54 26 21 46 69 67 44 16 27 75 99 77 35 11 17 24 22 17 23 66 99 88 79 86 84 85 78 40 9 16 54 80 77 71 70 74 86 72 32 15 34 51 69 
82 80 82 82 75 72 74 72 70 66 61 59 58 54 52 51 52 52 59 73 96 104 98 102 125 131 133 139 147 146 135 130 99 82 68 68 74 75 75 76 75 78 69 45 35 41 52 66 77 73 63 35 20 25 24 26 28 23 22 34 58 78 85 84 82 81 81 64 27 25 67 98 85 69 39 16 34 63 52 26 35 66 88 82 61 30 17 43 78 63 23 10 32 45 42 28 20 34 81 103 84 81 86 80 70 30 12 35 70 83 79 78 71 78 90 74 29 3 12 27 33 
83 79 82 88 84 82 84 84 79 82 81 74 70 68 64 59 56 50 52 49 49 54 57 61 73 75 89 103 106 111 122 130 133 143 148 142 128 111 93 80 74 73 68 44 15 1 20 57 83 82 71 68 61 54 53 43 42 34 35 50 69 79 81 81 81 83 80 71 44 17 38 81 115 78 26 9 34 62 54 25 36 75 97 83 67 39 16 34 67 53 26 29 49 60 61 48 32 19 42 86 95 83 83 79 49 21 19 46 73 81 75 73 74 79 87 74 33 6 10 22 22 
87 85 84 82 79 80 83 82 81 81 79 77 77 76 73 69 64 67 61 60 59 52 52 53 49 51 57 60 60 64 74 84 86 104 114 115 122 136 140 140 138 119 86 60 62 65 59 63 71 71 68 71 75 72 70 71 72 73 74 76 75 77 80 83 80 84 85 81 60 31 20 21 24 29 27 30 45 67 67 32 20 57 108 116 82 35 9 29 67 53 24 32 65 73 66 60 34 15 22 67 92 82 75 69 39 16 27 60 81 83 75 72 78 81 87 73 30 1 6 21 20 
83 89 90 85 82 83 84 84 82 81 82 85 84 78 78 81 76 72 67 68 65 63 64 54 52 57 51 47 50 50 48 51 58 63 67 72 76 78 88 105 106 107 102 95 98 95 88 98 110 112 104 74 61 68 67 68 71 71 71 72 73 76 80 82 80 81 83 83 75 67 52 28 22 14 23 43 62 76 72 50 13 11 53 77 52 21 14 38 67 65 30 22 63 96 90 67 46 23 28 63 84 85 77 64 28 14 37 71 83 81 76 76 73 81 90 76 33 0 1 15 16 
81 88 88 85 85 85 84 85 83 84 85 84 82 80 81 83 79 78 78 71 71 76 72 69 70 64 63 63 59 54 53 52 42 49 50 49 53 56 59 64 69 73 83 97 110 116 113 118 117 134 144 147 144 144 131 99 74 69 67 71 75 76 76 77 78 80 76 78 83 78 71 67 54 49 57 63 74 86 78 67 44 11 11 20 21 23 29 53 76 69 43 20 33 82 107 85 40 8 17 52 75 82 69 48 13 14 45 72 76 76 76 75 79 84 92 78 38 5 4 16 20 
83 85 87 87 85 84 85 86 79 85 84 82 84 82 79 82 77 80 79 78 81 82 77 75 76 74 69 65 62 60 60 61 56 54 52 50 49 49 51 51 49 53 63 70 72 73 79 84 74 73 77 92 110 125 137 143 143 145 142 130 114 101 87 77 74 76 77 76 76 77 77 75 73 75 76 78 79 80 77 74 66 53 34 22 28 38 48 68 74 72 58 29 11 21 38 41 28 25 36 59 76 79 61 35 15 29 56 78 81 77 77 77 77 81 87 79 46 15 11 23 26 
86 82 78 79 83 86 86 84 85 83 82 82 81 79 78 80 79 82 84 81 78 80 81 79 81 80 78 77 75 72 71 70 64 63 61 58 56 53 53 53 47 46 46 46 46 50 59 67 73 72 73 74 69 62 63 69 89 101 119 132 138 139 141 144 146 131 113 98 85 75 70 70 71 71 72 72 74 77 78 78 79 74 70 64 66 70 70 77 73 73 70 57 33 16 14 19 16 19 42 69 80 79 57 21 15 37 63 77 76 73 74 76 77 82 88 78 44 15 13 26 34 
97 96 93 86 80 77 78 80 80 77 81 84 83 83 84 81 80 79 80 78 75 77 83 82 77 76 76 76 76 77 79 80 72 71 69 67 65 63 62 61 56 53 52 50 48 45 44 45 46 56 62 62 64 70 74 73 61 56 54 62 75 88 96 99 118 123 132 141 147 146 138 132 104 85 72 72 73 71 72 78 70 73 69 43 31 44 54 58 74 74 73 72 67 53 40 34 39 50 60 66 73 69 43 14 16 46 73 79 76 74 75 76 74 83 93 82 47 12 3 14 13 
99 100 101 99 94 88 83 80 76 72 76 84 84 83 84 86 79 76 77 81 81 79 79 78 78 77 76 75 75 76 78 79 76 76 75 74 73 71 69 68 66 64 61 60 57 53 49 47 49 46 43 41 45 50 53 53 71 77 79 72 64 59 52 47 59 65 73 83 99 114 123 125 137 140 145 145 138 124 108 96 83 74 69 51 26 9 10 25 57 73 80 74 69 68 70 73 70 74 74 77 80 60 26 7 29 54 73 75 74 73 74 76 76 83 90 82 49 10 1 11 17 
104 100 96 96 99 102 102 102 99 80 68 70 75 74 74 77 78 82 82 81 83 82 79 79 78 78 80 81 80 79 76 75 78 78 78 78 76 73 72 71 71 69 67 65 64 63 60 58 53 54 53 51 49 48 45 41 43 45 44 45 54 68 76 77 68 61 51 41 35 37 48 61 77 84 95 106 118 131 139 143 140 131 108 78 68 71 69 65 79 81 75 71 74 76 74 74 73 76 79 81 79 73 67 60 59 70 75 75 76 77 76 79 78 82 89 87 57 14 1 11 10 
101 102 103 102 102 101 102 104 105 107 107 102 95 85 69 53 58 72 76 73 76 80 80 80 78 78 80 80 80 80 78 77 76 76 77 77 76 75 75 74 73 73 74 74 74 73 69 65 64 67 64 57 53 57 56 52 49 47 44 41 40 40 42 45 49 52 63 76 83 76 60 45 43 36 35 42 49 58 71 85 104 112 116 107 100 98 92 89 95 103 106 98 82 70 68 72 76 80 80 78 78 77 77 77 73 75 76 78 80 79 76 77 76 82 90 88 62 19 2 12 15 
