P2
10 10
35
-26 -23 -5 -14 -14 -18 -16 -11 22 -18 
-12 -2 -3 3 -10 -10 -3 14 14 -38 
-2 0 1 3 10 28 22 0 -6 -38 
0 0 0 10 32 25 24 8 -14 -49 
2 3 18 35 20 18 3 -17 -11 -40 
6 17 32 21 16 -3 -16 -7 -11 -30 
24 34 12 15 -9 -12 -10 -10 -2 -28 
31 18 19 -14 -13 -7 -4 4 15 -36 
13 5 -23 -11 -4 2 4 13 19 -47 
-51 -60 -50 -41 -41 -40 -38 -36 -53 -124 
